<?xml version="1.0" encoding="utf-8" standalone="no"?>
<!DOCTYPE svg PUBLIC "-//W3C//DTD SVG 1.1//EN"
  "http://www.w3.org/Graphics/SVG/1.1/DTD/svg11.dtd">
<svg xmlns:xlink="http://www.w3.org/1999/xlink" width="623.723438pt" height="392.514375pt" viewBox="0 0 623.723438 392.514375" xmlns="http://www.w3.org/2000/svg" version="1.1">
 <metadata>
  <rdf:RDF xmlns:dc="http://purl.org/dc/elements/1.1/" xmlns:cc="http://creativecommons.org/ns#" xmlns:rdf="http://www.w3.org/1999/02/22-rdf-syntax-ns#">
   <cc:Work>
    <dc:type rdf:resource="http://purl.org/dc/dcmitype/StillImage"/>
    <dc:date>2025-08-01T00:31:01.154153</dc:date>
    <dc:format>image/svg+xml</dc:format>
    <dc:creator>
     <cc:Agent>
      <dc:title>Matplotlib v3.9.1, https://matplotlib.org/</dc:title>
     </cc:Agent>
    </dc:creator>
   </cc:Work>
  </rdf:RDF>
 </metadata>
 <defs>
  <style type="text/css">*{stroke-linejoin: round; stroke-linecap: butt}</style>
 </defs>
 <g id="figure_1">
  <g id="patch_1">
   <path d="M -0 392.514375 
L 623.723438 392.514375 
L 623.723438 0 
L -0 0 
z
" style="fill: #ffffff"/>
  </g>
  <g id="axes_1">
   <g id="patch_2">
    <path d="M 58.523438 354.958125 
L 616.523438 354.958125 
L 616.523438 22.318125 
L 58.523438 22.318125 
z
" style="fill: #ffffff"/>
   </g>
   <g id="matplotlib.axis_1">
    <g id="xtick_1">
     <g id="line2d_1">
      <path d="M 83.440138 354.958125 
L 83.440138 22.318125 
" clip-path="url(#p3521ed0e6e)" style="fill: none; stroke: #b0b0b0; stroke-width: 0.8; stroke-linecap: square"/>
     </g>
     <g id="line2d_2">
      <defs>
       <path id="m8243f4cc41" d="M 0 0 
L 0 3.5 
" style="stroke: #000000; stroke-width: 0.8"/>
      </defs>
      <g>
       <use xlink:href="#m8243f4cc41" x="83.440138" y="354.958125" style="stroke: #000000; stroke-width: 0.8"/>
      </g>
     </g>
     <g id="text_1">
      <!-- 2019-01 -->
      <g transform="translate(62.548731 369.556562) scale(0.1 -0.1)">
       <defs>
        <path id="DejaVuSans-32" d="M 1228 531 
L 3431 531 
L 3431 0 
L 469 0 
L 469 531 
Q 828 903 1448 1529 
Q 2069 2156 2228 2338 
Q 2531 2678 2651 2914 
Q 2772 3150 2772 3378 
Q 2772 3750 2511 3984 
Q 2250 4219 1831 4219 
Q 1534 4219 1204 4116 
Q 875 4013 500 3803 
L 500 4441 
Q 881 4594 1212 4672 
Q 1544 4750 1819 4750 
Q 2544 4750 2975 4387 
Q 3406 4025 3406 3419 
Q 3406 3131 3298 2873 
Q 3191 2616 2906 2266 
Q 2828 2175 2409 1742 
Q 1991 1309 1228 531 
z
" transform="scale(0.015625)"/>
        <path id="DejaVuSans-30" d="M 2034 4250 
Q 1547 4250 1301 3770 
Q 1056 3291 1056 2328 
Q 1056 1369 1301 889 
Q 1547 409 2034 409 
Q 2525 409 2770 889 
Q 3016 1369 3016 2328 
Q 3016 3291 2770 3770 
Q 2525 4250 2034 4250 
z
M 2034 4750 
Q 2819 4750 3233 4129 
Q 3647 3509 3647 2328 
Q 3647 1150 3233 529 
Q 2819 -91 2034 -91 
Q 1250 -91 836 529 
Q 422 1150 422 2328 
Q 422 3509 836 4129 
Q 1250 4750 2034 4750 
z
" transform="scale(0.015625)"/>
        <path id="DejaVuSans-31" d="M 794 531 
L 1825 531 
L 1825 4091 
L 703 3866 
L 703 4441 
L 1819 4666 
L 2450 4666 
L 2450 531 
L 3481 531 
L 3481 0 
L 794 0 
L 794 531 
z
" transform="scale(0.015625)"/>
        <path id="DejaVuSans-39" d="M 703 97 
L 703 672 
Q 941 559 1184 500 
Q 1428 441 1663 441 
Q 2288 441 2617 861 
Q 2947 1281 2994 2138 
Q 2813 1869 2534 1725 
Q 2256 1581 1919 1581 
Q 1219 1581 811 2004 
Q 403 2428 403 3163 
Q 403 3881 828 4315 
Q 1253 4750 1959 4750 
Q 2769 4750 3195 4129 
Q 3622 3509 3622 2328 
Q 3622 1225 3098 567 
Q 2575 -91 1691 -91 
Q 1453 -91 1209 -44 
Q 966 3 703 97 
z
M 1959 2075 
Q 2384 2075 2632 2365 
Q 2881 2656 2881 3163 
Q 2881 3666 2632 3958 
Q 2384 4250 1959 4250 
Q 1534 4250 1286 3958 
Q 1038 3666 1038 3163 
Q 1038 2656 1286 2365 
Q 1534 2075 1959 2075 
z
" transform="scale(0.015625)"/>
        <path id="DejaVuSans-2d" d="M 313 2009 
L 1997 2009 
L 1997 1497 
L 313 1497 
L 313 2009 
z
" transform="scale(0.015625)"/>
       </defs>
       <use xlink:href="#DejaVuSans-32"/>
       <use xlink:href="#DejaVuSans-30" x="63.623047"/>
       <use xlink:href="#DejaVuSans-31" x="127.246094"/>
       <use xlink:href="#DejaVuSans-39" x="190.869141"/>
       <use xlink:href="#DejaVuSans-2d" x="254.492188"/>
       <use xlink:href="#DejaVuSans-30" x="290.576172"/>
       <use xlink:href="#DejaVuSans-31" x="354.199219"/>
      </g>
     </g>
    </g>
    <g id="xtick_2">
     <g id="line2d_3">
      <path d="M 137.072496 354.958125 
L 137.072496 22.318125 
" clip-path="url(#p3521ed0e6e)" style="fill: none; stroke: #b0b0b0; stroke-width: 0.8; stroke-linecap: square"/>
     </g>
     <g id="line2d_4">
      <g>
       <use xlink:href="#m8243f4cc41" x="137.072496" y="354.958125" style="stroke: #000000; stroke-width: 0.8"/>
      </g>
     </g>
     <g id="text_2">
      <!-- 2019-05 -->
      <g transform="translate(116.18109 369.556562) scale(0.1 -0.1)">
       <defs>
        <path id="DejaVuSans-35" d="M 691 4666 
L 3169 4666 
L 3169 4134 
L 1269 4134 
L 1269 2991 
Q 1406 3038 1543 3061 
Q 1681 3084 1819 3084 
Q 2600 3084 3056 2656 
Q 3513 2228 3513 1497 
Q 3513 744 3044 326 
Q 2575 -91 1722 -91 
Q 1428 -91 1123 -41 
Q 819 9 494 109 
L 494 744 
Q 775 591 1075 516 
Q 1375 441 1709 441 
Q 2250 441 2565 725 
Q 2881 1009 2881 1497 
Q 2881 1984 2565 2268 
Q 2250 2553 1709 2553 
Q 1456 2553 1204 2497 
Q 953 2441 691 2322 
L 691 4666 
z
" transform="scale(0.015625)"/>
       </defs>
       <use xlink:href="#DejaVuSans-32"/>
       <use xlink:href="#DejaVuSans-30" x="63.623047"/>
       <use xlink:href="#DejaVuSans-31" x="127.246094"/>
       <use xlink:href="#DejaVuSans-39" x="190.869141"/>
       <use xlink:href="#DejaVuSans-2d" x="254.492188"/>
       <use xlink:href="#DejaVuSans-30" x="290.576172"/>
       <use xlink:href="#DejaVuSans-35" x="354.199219"/>
      </g>
     </g>
    </g>
    <g id="xtick_3">
     <g id="line2d_5">
      <path d="M 192.045664 354.958125 
L 192.045664 22.318125 
" clip-path="url(#p3521ed0e6e)" style="fill: none; stroke: #b0b0b0; stroke-width: 0.8; stroke-linecap: square"/>
     </g>
     <g id="line2d_6">
      <g>
       <use xlink:href="#m8243f4cc41" x="192.045664" y="354.958125" style="stroke: #000000; stroke-width: 0.8"/>
      </g>
     </g>
     <g id="text_3">
      <!-- 2019-09 -->
      <g transform="translate(171.154258 369.556562) scale(0.1 -0.1)">
       <use xlink:href="#DejaVuSans-32"/>
       <use xlink:href="#DejaVuSans-30" x="63.623047"/>
       <use xlink:href="#DejaVuSans-31" x="127.246094"/>
       <use xlink:href="#DejaVuSans-39" x="190.869141"/>
       <use xlink:href="#DejaVuSans-2d" x="254.492188"/>
       <use xlink:href="#DejaVuSans-30" x="290.576172"/>
       <use xlink:href="#DejaVuSans-39" x="354.199219"/>
      </g>
     </g>
    </g>
    <g id="xtick_4">
     <g id="line2d_7">
      <path d="M 246.571896 354.958125 
L 246.571896 22.318125 
" clip-path="url(#p3521ed0e6e)" style="fill: none; stroke: #b0b0b0; stroke-width: 0.8; stroke-linecap: square"/>
     </g>
     <g id="line2d_8">
      <g>
       <use xlink:href="#m8243f4cc41" x="246.571896" y="354.958125" style="stroke: #000000; stroke-width: 0.8"/>
      </g>
     </g>
     <g id="text_4">
      <!-- 2020-01 -->
      <g transform="translate(225.680489 369.556562) scale(0.1 -0.1)">
       <use xlink:href="#DejaVuSans-32"/>
       <use xlink:href="#DejaVuSans-30" x="63.623047"/>
       <use xlink:href="#DejaVuSans-32" x="127.246094"/>
       <use xlink:href="#DejaVuSans-30" x="190.869141"/>
       <use xlink:href="#DejaVuSans-2d" x="254.492188"/>
       <use xlink:href="#DejaVuSans-30" x="290.576172"/>
       <use xlink:href="#DejaVuSans-31" x="354.199219"/>
      </g>
     </g>
    </g>
    <g id="xtick_5">
     <g id="line2d_9">
      <path d="M 300.651191 354.958125 
L 300.651191 22.318125 
" clip-path="url(#p3521ed0e6e)" style="fill: none; stroke: #b0b0b0; stroke-width: 0.8; stroke-linecap: square"/>
     </g>
     <g id="line2d_10">
      <g>
       <use xlink:href="#m8243f4cc41" x="300.651191" y="354.958125" style="stroke: #000000; stroke-width: 0.8"/>
      </g>
     </g>
     <g id="text_5">
      <!-- 2020-05 -->
      <g transform="translate(279.759785 369.556562) scale(0.1 -0.1)">
       <use xlink:href="#DejaVuSans-32"/>
       <use xlink:href="#DejaVuSans-30" x="63.623047"/>
       <use xlink:href="#DejaVuSans-32" x="127.246094"/>
       <use xlink:href="#DejaVuSans-30" x="190.869141"/>
       <use xlink:href="#DejaVuSans-2d" x="254.492188"/>
       <use xlink:href="#DejaVuSans-30" x="290.576172"/>
       <use xlink:href="#DejaVuSans-35" x="354.199219"/>
      </g>
     </g>
    </g>
    <g id="xtick_6">
     <g id="line2d_11">
      <path d="M 355.624359 354.958125 
L 355.624359 22.318125 
" clip-path="url(#p3521ed0e6e)" style="fill: none; stroke: #b0b0b0; stroke-width: 0.8; stroke-linecap: square"/>
     </g>
     <g id="line2d_12">
      <g>
       <use xlink:href="#m8243f4cc41" x="355.624359" y="354.958125" style="stroke: #000000; stroke-width: 0.8"/>
      </g>
     </g>
     <g id="text_6">
      <!-- 2020-09 -->
      <g transform="translate(334.732952 369.556562) scale(0.1 -0.1)">
       <use xlink:href="#DejaVuSans-32"/>
       <use xlink:href="#DejaVuSans-30" x="63.623047"/>
       <use xlink:href="#DejaVuSans-32" x="127.246094"/>
       <use xlink:href="#DejaVuSans-30" x="190.869141"/>
       <use xlink:href="#DejaVuSans-2d" x="254.492188"/>
       <use xlink:href="#DejaVuSans-30" x="290.576172"/>
       <use xlink:href="#DejaVuSans-39" x="354.199219"/>
      </g>
     </g>
    </g>
    <g id="xtick_7">
     <g id="line2d_13">
      <path d="M 410.15059 354.958125 
L 410.15059 22.318125 
" clip-path="url(#p3521ed0e6e)" style="fill: none; stroke: #b0b0b0; stroke-width: 0.8; stroke-linecap: square"/>
     </g>
     <g id="line2d_14">
      <g>
       <use xlink:href="#m8243f4cc41" x="410.15059" y="354.958125" style="stroke: #000000; stroke-width: 0.8"/>
      </g>
     </g>
     <g id="text_7">
      <!-- 2021-01 -->
      <g transform="translate(389.259184 369.556562) scale(0.1 -0.1)">
       <use xlink:href="#DejaVuSans-32"/>
       <use xlink:href="#DejaVuSans-30" x="63.623047"/>
       <use xlink:href="#DejaVuSans-32" x="127.246094"/>
       <use xlink:href="#DejaVuSans-31" x="190.869141"/>
       <use xlink:href="#DejaVuSans-2d" x="254.492188"/>
       <use xlink:href="#DejaVuSans-30" x="290.576172"/>
       <use xlink:href="#DejaVuSans-31" x="354.199219"/>
      </g>
     </g>
    </g>
    <g id="xtick_8">
     <g id="line2d_15">
      <path d="M 463.782949 354.958125 
L 463.782949 22.318125 
" clip-path="url(#p3521ed0e6e)" style="fill: none; stroke: #b0b0b0; stroke-width: 0.8; stroke-linecap: square"/>
     </g>
     <g id="line2d_16">
      <g>
       <use xlink:href="#m8243f4cc41" x="463.782949" y="354.958125" style="stroke: #000000; stroke-width: 0.8"/>
      </g>
     </g>
     <g id="text_8">
      <!-- 2021-05 -->
      <g transform="translate(442.891543 369.556562) scale(0.1 -0.1)">
       <use xlink:href="#DejaVuSans-32"/>
       <use xlink:href="#DejaVuSans-30" x="63.623047"/>
       <use xlink:href="#DejaVuSans-32" x="127.246094"/>
       <use xlink:href="#DejaVuSans-31" x="190.869141"/>
       <use xlink:href="#DejaVuSans-2d" x="254.492188"/>
       <use xlink:href="#DejaVuSans-30" x="290.576172"/>
       <use xlink:href="#DejaVuSans-35" x="354.199219"/>
      </g>
     </g>
    </g>
    <g id="xtick_9">
     <g id="line2d_17">
      <path d="M 518.756117 354.958125 
L 518.756117 22.318125 
" clip-path="url(#p3521ed0e6e)" style="fill: none; stroke: #b0b0b0; stroke-width: 0.8; stroke-linecap: square"/>
     </g>
     <g id="line2d_18">
      <g>
       <use xlink:href="#m8243f4cc41" x="518.756117" y="354.958125" style="stroke: #000000; stroke-width: 0.8"/>
      </g>
     </g>
     <g id="text_9">
      <!-- 2021-09 -->
      <g transform="translate(497.86471 369.556562) scale(0.1 -0.1)">
       <use xlink:href="#DejaVuSans-32"/>
       <use xlink:href="#DejaVuSans-30" x="63.623047"/>
       <use xlink:href="#DejaVuSans-32" x="127.246094"/>
       <use xlink:href="#DejaVuSans-31" x="190.869141"/>
       <use xlink:href="#DejaVuSans-2d" x="254.492188"/>
       <use xlink:href="#DejaVuSans-30" x="290.576172"/>
       <use xlink:href="#DejaVuSans-39" x="354.199219"/>
      </g>
     </g>
    </g>
    <g id="xtick_10">
     <g id="line2d_19">
      <path d="M 573.282348 354.958125 
L 573.282348 22.318125 
" clip-path="url(#p3521ed0e6e)" style="fill: none; stroke: #b0b0b0; stroke-width: 0.8; stroke-linecap: square"/>
     </g>
     <g id="line2d_20">
      <g>
       <use xlink:href="#m8243f4cc41" x="573.282348" y="354.958125" style="stroke: #000000; stroke-width: 0.8"/>
      </g>
     </g>
     <g id="text_10">
      <!-- 2022-01 -->
      <g transform="translate(552.390942 369.556562) scale(0.1 -0.1)">
       <use xlink:href="#DejaVuSans-32"/>
       <use xlink:href="#DejaVuSans-30" x="63.623047"/>
       <use xlink:href="#DejaVuSans-32" x="127.246094"/>
       <use xlink:href="#DejaVuSans-32" x="190.869141"/>
       <use xlink:href="#DejaVuSans-2d" x="254.492188"/>
       <use xlink:href="#DejaVuSans-30" x="290.576172"/>
       <use xlink:href="#DejaVuSans-31" x="354.199219"/>
      </g>
     </g>
    </g>
    <g id="text_11">
     <!-- Time Step -->
     <g transform="translate(312.315625 383.234687) scale(0.1 -0.1)">
      <defs>
       <path id="DejaVuSans-54" d="M -19 4666 
L 3928 4666 
L 3928 4134 
L 2272 4134 
L 2272 0 
L 1638 0 
L 1638 4134 
L -19 4134 
L -19 4666 
z
" transform="scale(0.015625)"/>
       <path id="DejaVuSans-69" d="M 603 3500 
L 1178 3500 
L 1178 0 
L 603 0 
L 603 3500 
z
M 603 4863 
L 1178 4863 
L 1178 4134 
L 603 4134 
L 603 4863 
z
" transform="scale(0.015625)"/>
       <path id="DejaVuSans-6d" d="M 3328 2828 
Q 3544 3216 3844 3400 
Q 4144 3584 4550 3584 
Q 5097 3584 5394 3201 
Q 5691 2819 5691 2113 
L 5691 0 
L 5113 0 
L 5113 2094 
Q 5113 2597 4934 2840 
Q 4756 3084 4391 3084 
Q 3944 3084 3684 2787 
Q 3425 2491 3425 1978 
L 3425 0 
L 2847 0 
L 2847 2094 
Q 2847 2600 2669 2842 
Q 2491 3084 2119 3084 
Q 1678 3084 1418 2786 
Q 1159 2488 1159 1978 
L 1159 0 
L 581 0 
L 581 3500 
L 1159 3500 
L 1159 2956 
Q 1356 3278 1631 3431 
Q 1906 3584 2284 3584 
Q 2666 3584 2933 3390 
Q 3200 3197 3328 2828 
z
" transform="scale(0.015625)"/>
       <path id="DejaVuSans-65" d="M 3597 1894 
L 3597 1613 
L 953 1613 
Q 991 1019 1311 708 
Q 1631 397 2203 397 
Q 2534 397 2845 478 
Q 3156 559 3463 722 
L 3463 178 
Q 3153 47 2828 -22 
Q 2503 -91 2169 -91 
Q 1331 -91 842 396 
Q 353 884 353 1716 
Q 353 2575 817 3079 
Q 1281 3584 2069 3584 
Q 2775 3584 3186 3129 
Q 3597 2675 3597 1894 
z
M 3022 2063 
Q 3016 2534 2758 2815 
Q 2500 3097 2075 3097 
Q 1594 3097 1305 2825 
Q 1016 2553 972 2059 
L 3022 2063 
z
" transform="scale(0.015625)"/>
       <path id="DejaVuSans-20" transform="scale(0.015625)"/>
       <path id="DejaVuSans-53" d="M 3425 4513 
L 3425 3897 
Q 3066 4069 2747 4153 
Q 2428 4238 2131 4238 
Q 1616 4238 1336 4038 
Q 1056 3838 1056 3469 
Q 1056 3159 1242 3001 
Q 1428 2844 1947 2747 
L 2328 2669 
Q 3034 2534 3370 2195 
Q 3706 1856 3706 1288 
Q 3706 609 3251 259 
Q 2797 -91 1919 -91 
Q 1588 -91 1214 -16 
Q 841 59 441 206 
L 441 856 
Q 825 641 1194 531 
Q 1563 422 1919 422 
Q 2459 422 2753 634 
Q 3047 847 3047 1241 
Q 3047 1584 2836 1778 
Q 2625 1972 2144 2069 
L 1759 2144 
Q 1053 2284 737 2584 
Q 422 2884 422 3419 
Q 422 4038 858 4394 
Q 1294 4750 2059 4750 
Q 2388 4750 2728 4690 
Q 3069 4631 3425 4513 
z
" transform="scale(0.015625)"/>
       <path id="DejaVuSans-74" d="M 1172 4494 
L 1172 3500 
L 2356 3500 
L 2356 3053 
L 1172 3053 
L 1172 1153 
Q 1172 725 1289 603 
Q 1406 481 1766 481 
L 2356 481 
L 2356 0 
L 1766 0 
Q 1100 0 847 248 
Q 594 497 594 1153 
L 594 3053 
L 172 3053 
L 172 3500 
L 594 3500 
L 594 4494 
L 1172 4494 
z
" transform="scale(0.015625)"/>
       <path id="DejaVuSans-70" d="M 1159 525 
L 1159 -1331 
L 581 -1331 
L 581 3500 
L 1159 3500 
L 1159 2969 
Q 1341 3281 1617 3432 
Q 1894 3584 2278 3584 
Q 2916 3584 3314 3078 
Q 3713 2572 3713 1747 
Q 3713 922 3314 415 
Q 2916 -91 2278 -91 
Q 1894 -91 1617 61 
Q 1341 213 1159 525 
z
M 3116 1747 
Q 3116 2381 2855 2742 
Q 2594 3103 2138 3103 
Q 1681 3103 1420 2742 
Q 1159 2381 1159 1747 
Q 1159 1113 1420 752 
Q 1681 391 2138 391 
Q 2594 391 2855 752 
Q 3116 1113 3116 1747 
z
" transform="scale(0.015625)"/>
      </defs>
      <use xlink:href="#DejaVuSans-54"/>
      <use xlink:href="#DejaVuSans-69" x="57.958984"/>
      <use xlink:href="#DejaVuSans-6d" x="85.742188"/>
      <use xlink:href="#DejaVuSans-65" x="183.154297"/>
      <use xlink:href="#DejaVuSans-20" x="244.677734"/>
      <use xlink:href="#DejaVuSans-53" x="276.464844"/>
      <use xlink:href="#DejaVuSans-74" x="339.941406"/>
      <use xlink:href="#DejaVuSans-65" x="379.150391"/>
      <use xlink:href="#DejaVuSans-70" x="440.673828"/>
     </g>
    </g>
   </g>
   <g id="matplotlib.axis_2">
    <g id="ytick_1">
     <g id="line2d_21">
      <path d="M 58.523438 304.770702 
L 616.523438 304.770702 
" clip-path="url(#p3521ed0e6e)" style="fill: none; stroke: #b0b0b0; stroke-width: 0.8; stroke-linecap: square"/>
     </g>
     <g id="line2d_22">
      <defs>
       <path id="m6750434c64" d="M 0 0 
L -3.5 0 
" style="stroke: #000000; stroke-width: 0.8"/>
      </defs>
      <g>
       <use xlink:href="#m6750434c64" x="58.523438" y="304.770702" style="stroke: #000000; stroke-width: 0.8"/>
      </g>
     </g>
     <g id="text_12">
      <!-- −0.25 -->
      <g transform="translate(20.878125 308.569921) scale(0.1 -0.1)">
       <defs>
        <path id="DejaVuSans-2212" d="M 678 2272 
L 4684 2272 
L 4684 1741 
L 678 1741 
L 678 2272 
z
" transform="scale(0.015625)"/>
        <path id="DejaVuSans-2e" d="M 684 794 
L 1344 794 
L 1344 0 
L 684 0 
L 684 794 
z
" transform="scale(0.015625)"/>
       </defs>
       <use xlink:href="#DejaVuSans-2212"/>
       <use xlink:href="#DejaVuSans-30" x="83.789062"/>
       <use xlink:href="#DejaVuSans-2e" x="147.412109"/>
       <use xlink:href="#DejaVuSans-32" x="179.199219"/>
       <use xlink:href="#DejaVuSans-35" x="242.822266"/>
      </g>
     </g>
    </g>
    <g id="ytick_2">
     <g id="line2d_23">
      <path d="M 58.523438 251.304187 
L 616.523438 251.304187 
" clip-path="url(#p3521ed0e6e)" style="fill: none; stroke: #b0b0b0; stroke-width: 0.8; stroke-linecap: square"/>
     </g>
     <g id="line2d_24">
      <g>
       <use xlink:href="#m6750434c64" x="58.523438" y="251.304187" style="stroke: #000000; stroke-width: 0.8"/>
      </g>
     </g>
     <g id="text_13">
      <!-- −0.20 -->
      <g transform="translate(20.878125 255.103406) scale(0.1 -0.1)">
       <use xlink:href="#DejaVuSans-2212"/>
       <use xlink:href="#DejaVuSans-30" x="83.789062"/>
       <use xlink:href="#DejaVuSans-2e" x="147.412109"/>
       <use xlink:href="#DejaVuSans-32" x="179.199219"/>
       <use xlink:href="#DejaVuSans-30" x="242.822266"/>
      </g>
     </g>
    </g>
    <g id="ytick_3">
     <g id="line2d_25">
      <path d="M 58.523438 197.837671 
L 616.523438 197.837671 
" clip-path="url(#p3521ed0e6e)" style="fill: none; stroke: #b0b0b0; stroke-width: 0.8; stroke-linecap: square"/>
     </g>
     <g id="line2d_26">
      <g>
       <use xlink:href="#m6750434c64" x="58.523438" y="197.837671" style="stroke: #000000; stroke-width: 0.8"/>
      </g>
     </g>
     <g id="text_14">
      <!-- −0.15 -->
      <g transform="translate(20.878125 201.63689) scale(0.1 -0.1)">
       <use xlink:href="#DejaVuSans-2212"/>
       <use xlink:href="#DejaVuSans-30" x="83.789062"/>
       <use xlink:href="#DejaVuSans-2e" x="147.412109"/>
       <use xlink:href="#DejaVuSans-31" x="179.199219"/>
       <use xlink:href="#DejaVuSans-35" x="242.822266"/>
      </g>
     </g>
    </g>
    <g id="ytick_4">
     <g id="line2d_27">
      <path d="M 58.523438 144.371156 
L 616.523438 144.371156 
" clip-path="url(#p3521ed0e6e)" style="fill: none; stroke: #b0b0b0; stroke-width: 0.8; stroke-linecap: square"/>
     </g>
     <g id="line2d_28">
      <g>
       <use xlink:href="#m6750434c64" x="58.523438" y="144.371156" style="stroke: #000000; stroke-width: 0.8"/>
      </g>
     </g>
     <g id="text_15">
      <!-- −0.10 -->
      <g transform="translate(20.878125 148.170375) scale(0.1 -0.1)">
       <use xlink:href="#DejaVuSans-2212"/>
       <use xlink:href="#DejaVuSans-30" x="83.789062"/>
       <use xlink:href="#DejaVuSans-2e" x="147.412109"/>
       <use xlink:href="#DejaVuSans-31" x="179.199219"/>
       <use xlink:href="#DejaVuSans-30" x="242.822266"/>
      </g>
     </g>
    </g>
    <g id="ytick_5">
     <g id="line2d_29">
      <path d="M 58.523438 90.90464 
L 616.523438 90.90464 
" clip-path="url(#p3521ed0e6e)" style="fill: none; stroke: #b0b0b0; stroke-width: 0.8; stroke-linecap: square"/>
     </g>
     <g id="line2d_30">
      <g>
       <use xlink:href="#m6750434c64" x="58.523438" y="90.90464" style="stroke: #000000; stroke-width: 0.8"/>
      </g>
     </g>
     <g id="text_16">
      <!-- −0.05 -->
      <g transform="translate(20.878125 94.703859) scale(0.1 -0.1)">
       <use xlink:href="#DejaVuSans-2212"/>
       <use xlink:href="#DejaVuSans-30" x="83.789062"/>
       <use xlink:href="#DejaVuSans-2e" x="147.412109"/>
       <use xlink:href="#DejaVuSans-30" x="179.199219"/>
       <use xlink:href="#DejaVuSans-35" x="242.822266"/>
      </g>
     </g>
    </g>
    <g id="ytick_6">
     <g id="line2d_31">
      <path d="M 58.523438 37.438125 
L 616.523438 37.438125 
" clip-path="url(#p3521ed0e6e)" style="fill: none; stroke: #b0b0b0; stroke-width: 0.8; stroke-linecap: square"/>
     </g>
     <g id="line2d_32">
      <g>
       <use xlink:href="#m6750434c64" x="58.523438" y="37.438125" style="stroke: #000000; stroke-width: 0.8"/>
      </g>
     </g>
     <g id="text_17">
      <!-- 0.00 -->
      <g transform="translate(29.257812 41.237344) scale(0.1 -0.1)">
       <use xlink:href="#DejaVuSans-30"/>
       <use xlink:href="#DejaVuSans-2e" x="63.623047"/>
       <use xlink:href="#DejaVuSans-30" x="95.410156"/>
       <use xlink:href="#DejaVuSans-30" x="159.033203"/>
      </g>
     </g>
    </g>
    <g id="text_18">
     <!-- Percentage -->
     <g transform="translate(14.798437 216.760781) rotate(-90) scale(0.1 -0.1)">
      <defs>
       <path id="DejaVuSans-50" d="M 1259 4147 
L 1259 2394 
L 2053 2394 
Q 2494 2394 2734 2622 
Q 2975 2850 2975 3272 
Q 2975 3691 2734 3919 
Q 2494 4147 2053 4147 
L 1259 4147 
z
M 628 4666 
L 2053 4666 
Q 2838 4666 3239 4311 
Q 3641 3956 3641 3272 
Q 3641 2581 3239 2228 
Q 2838 1875 2053 1875 
L 1259 1875 
L 1259 0 
L 628 0 
L 628 4666 
z
" transform="scale(0.015625)"/>
       <path id="DejaVuSans-72" d="M 2631 2963 
Q 2534 3019 2420 3045 
Q 2306 3072 2169 3072 
Q 1681 3072 1420 2755 
Q 1159 2438 1159 1844 
L 1159 0 
L 581 0 
L 581 3500 
L 1159 3500 
L 1159 2956 
Q 1341 3275 1631 3429 
Q 1922 3584 2338 3584 
Q 2397 3584 2469 3576 
Q 2541 3569 2628 3553 
L 2631 2963 
z
" transform="scale(0.015625)"/>
       <path id="DejaVuSans-63" d="M 3122 3366 
L 3122 2828 
Q 2878 2963 2633 3030 
Q 2388 3097 2138 3097 
Q 1578 3097 1268 2742 
Q 959 2388 959 1747 
Q 959 1106 1268 751 
Q 1578 397 2138 397 
Q 2388 397 2633 464 
Q 2878 531 3122 666 
L 3122 134 
Q 2881 22 2623 -34 
Q 2366 -91 2075 -91 
Q 1284 -91 818 406 
Q 353 903 353 1747 
Q 353 2603 823 3093 
Q 1294 3584 2113 3584 
Q 2378 3584 2631 3529 
Q 2884 3475 3122 3366 
z
" transform="scale(0.015625)"/>
       <path id="DejaVuSans-6e" d="M 3513 2113 
L 3513 0 
L 2938 0 
L 2938 2094 
Q 2938 2591 2744 2837 
Q 2550 3084 2163 3084 
Q 1697 3084 1428 2787 
Q 1159 2491 1159 1978 
L 1159 0 
L 581 0 
L 581 3500 
L 1159 3500 
L 1159 2956 
Q 1366 3272 1645 3428 
Q 1925 3584 2291 3584 
Q 2894 3584 3203 3211 
Q 3513 2838 3513 2113 
z
" transform="scale(0.015625)"/>
       <path id="DejaVuSans-61" d="M 2194 1759 
Q 1497 1759 1228 1600 
Q 959 1441 959 1056 
Q 959 750 1161 570 
Q 1363 391 1709 391 
Q 2188 391 2477 730 
Q 2766 1069 2766 1631 
L 2766 1759 
L 2194 1759 
z
M 3341 1997 
L 3341 0 
L 2766 0 
L 2766 531 
Q 2569 213 2275 61 
Q 1981 -91 1556 -91 
Q 1019 -91 701 211 
Q 384 513 384 1019 
Q 384 1609 779 1909 
Q 1175 2209 1959 2209 
L 2766 2209 
L 2766 2266 
Q 2766 2663 2505 2880 
Q 2244 3097 1772 3097 
Q 1472 3097 1187 3025 
Q 903 2953 641 2809 
L 641 3341 
Q 956 3463 1253 3523 
Q 1550 3584 1831 3584 
Q 2591 3584 2966 3190 
Q 3341 2797 3341 1997 
z
" transform="scale(0.015625)"/>
       <path id="DejaVuSans-67" d="M 2906 1791 
Q 2906 2416 2648 2759 
Q 2391 3103 1925 3103 
Q 1463 3103 1205 2759 
Q 947 2416 947 1791 
Q 947 1169 1205 825 
Q 1463 481 1925 481 
Q 2391 481 2648 825 
Q 2906 1169 2906 1791 
z
M 3481 434 
Q 3481 -459 3084 -895 
Q 2688 -1331 1869 -1331 
Q 1566 -1331 1297 -1286 
Q 1028 -1241 775 -1147 
L 775 -588 
Q 1028 -725 1275 -790 
Q 1522 -856 1778 -856 
Q 2344 -856 2625 -561 
Q 2906 -266 2906 331 
L 2906 616 
Q 2728 306 2450 153 
Q 2172 0 1784 0 
Q 1141 0 747 490 
Q 353 981 353 1791 
Q 353 2603 747 3093 
Q 1141 3584 1784 3584 
Q 2172 3584 2450 3431 
Q 2728 3278 2906 2969 
L 2906 3500 
L 3481 3500 
L 3481 434 
z
" transform="scale(0.015625)"/>
      </defs>
      <use xlink:href="#DejaVuSans-50"/>
      <use xlink:href="#DejaVuSans-65" x="56.677734"/>
      <use xlink:href="#DejaVuSans-72" x="118.201172"/>
      <use xlink:href="#DejaVuSans-63" x="157.064453"/>
      <use xlink:href="#DejaVuSans-65" x="212.044922"/>
      <use xlink:href="#DejaVuSans-6e" x="273.568359"/>
      <use xlink:href="#DejaVuSans-74" x="336.947266"/>
      <use xlink:href="#DejaVuSans-61" x="376.15625"/>
      <use xlink:href="#DejaVuSans-67" x="437.435547"/>
      <use xlink:href="#DejaVuSans-65" x="500.912109"/>
     </g>
    </g>
   </g>
   <g id="line2d_33">
    <path d="M 83.887074 37.438125 
L 103.105336 37.438125 
L 103.552272 38.34241 
L 104.893081 37.438125 
L 105.340017 42.891936 
L 105.786954 42.700552 
L 106.23389 46.58402 
L 106.680826 48.781634 
L 108.021635 43.616418 
L 108.468572 41.061201 
L 108.915508 39.251015 
L 109.362444 43.821446 
L 109.809381 37.438125 
L 112.490999 37.438125 
L 112.937935 38.708935 
L 114.278744 37.438125 
L 115.619553 37.438125 
L 116.066489 39.247082 
L 117.407298 37.438125 
L 117.854234 39.888576 
L 118.301171 37.91891 
L 118.748107 44.325001 
L 119.195043 44.451502 
L 120.535852 57.858059 
L 120.982789 59.646186 
L 121.429725 54.665026 
L 121.876661 52.709789 
L 122.323598 52.380566 
L 123.664407 55.94957 
L 124.111343 54.873488 
L 124.558279 51.710432 
L 125.452152 37.438125 
L 126.792961 37.438125 
L 127.239897 42.930304 
L 127.686834 44.418969 
L 128.13377 41.7991 
L 128.580706 42.293063 
L 130.368452 46.57373 
L 130.815388 49.352381 
L 131.262324 53.471715 
L 131.70926 50.134854 
L 133.050069 56.344424 
L 133.497006 54.820328 
L 133.943942 49.951959 
L 134.390878 52.036297 
L 134.837815 49.704779 
L 137.519433 55.729216 
L 139.307178 68.805046 
L 139.754114 66.433553 
L 140.647987 75.581912 
L 141.094923 71.00839 
L 142.435732 71.377328 
L 142.882669 70.805688 
L 143.329605 65.641794 
L 143.776541 68.094391 
L 144.223478 68.961158 
L 145.564287 66.991284 
L 146.011223 68.201322 
L 146.458159 72.30304 
L 146.905095 71.59928 
L 147.352032 75.728777 
L 148.692841 75.485383 
L 149.139777 70.923937 
L 149.586713 68.661687 
L 150.03365 68.429652 
L 150.480586 75.345731 
L 151.821395 84.68456 
L 152.268331 85.909106 
L 152.715268 82.425937 
L 153.162204 82.777618 
L 153.60914 74.863968 
L 154.949949 76.295121 
L 155.396886 77.74417 
L 155.843822 78.179745 
L 156.290758 82.064532 
L 156.737695 84.527691 
L 158.078504 89.83303 
L 158.52544 90.669826 
L 158.972376 89.978142 
L 159.419313 85.048477 
L 159.866249 84.643988 
L 161.207058 87.647182 
L 161.653994 89.377647 
L 162.10093 88.427743 
L 162.547867 92.894851 
L 162.994803 89.394346 
L 164.335612 85.843407 
L 164.782548 87.248695 
L 165.229485 86.794547 
L 165.676421 85.57881 
L 166.123357 82.813151 
L 167.464166 82.698528 
L 167.911103 79.579475 
L 168.804975 76.896157 
L 169.251912 77.805768 
L 170.592721 74.277205 
L 171.039657 73.792568 
L 171.486593 77.491432 
L 171.93353 78.717691 
L 172.380466 76.417738 
L 173.721275 80.452061 
L 174.168211 79.741048 
L 174.615148 84.559797 
L 175.062084 84.20716 
L 175.50902 83.271564 
L 176.849829 83.038372 
L 177.296765 89.884745 
L 177.743702 89.306329 
L 178.637574 84.422608 
L 179.978383 84.318347 
L 180.42532 88.707021 
L 180.872256 86.820165 
L 181.319192 77.887542 
L 181.766129 81.247877 
L 183.106938 81.313239 
L 183.553874 87.201498 
L 184.00081 85.185512 
L 184.447747 82.37952 
L 184.894683 83.56979 
L 186.235492 82.954309 
L 186.682428 78.148194 
L 187.129365 80.487205 
L 187.576301 79.037558 
L 188.023237 81.400761 
L 189.364046 84.141191 
L 189.810983 83.375975 
L 190.257919 87.518345 
L 190.704855 86.7171 
L 191.151792 81.806166 
L 192.939537 83.660131 
L 193.386473 88.328666 
L 193.833409 89.622081 
L 194.280346 93.661505 
L 195.621155 98.274364 
L 196.068091 105.539573 
L 196.515027 104.835136 
L 196.961964 101.374725 
L 197.4089 99.70739 
L 198.749709 96.137697 
L 199.196645 97.371728 
L 199.643582 95.572792 
L 200.090518 95.540151 
L 200.537454 93.682828 
L 202.3252 101.468942 
L 203.219072 95.871904 
L 203.666009 95.237612 
L 205.006818 95.602006 
L 205.453754 96.099888 
L 205.90069 101.417423 
L 206.347627 99.285937 
L 206.794563 97.873635 
L 208.135372 96.371221 
L 208.582308 97.392466 
L 209.029244 97.632991 
L 209.476181 98.684246 
L 209.923117 98.472736 
L 211.263926 100.135327 
L 211.710862 99.550136 
L 212.157799 98.024407 
L 212.604735 97.786951 
L 213.051671 94.184178 
L 214.39248 96.373334 
L 215.286353 101.868303 
L 215.733289 102.497693 
L 216.180226 105.885249 
L 217.521035 103.615227 
L 217.967971 105.600884 
L 218.414907 105.319228 
L 218.861844 111.073853 
L 219.30878 112.813359 
L 220.649589 115.05903 
L 221.096525 113.90439 
L 221.543462 109.875408 
L 221.990398 112.568052 
L 222.437334 112.742258 
L 223.778143 115.786104 
L 224.225079 112.263639 
L 224.672016 115.777894 
L 225.118952 117.902445 
L 225.565888 117.642431 
L 226.906697 118.646817 
L 227.353634 121.071715 
L 227.80057 118.774712 
L 228.247506 118.592694 
L 228.694443 124.39913 
L 230.035252 128.887721 
L 230.929124 129.781389 
L 231.376061 132.537642 
L 233.163806 137.06205 
L 233.610742 139.328565 
L 234.057679 135.908885 
L 234.504615 136.717025 
L 234.951551 136.577214 
L 236.29236 134.545924 
L 236.739297 134.57175 
L 237.186233 135.744523 
L 238.080106 130.279366 
L 239.420914 128.487564 
L 240.314787 136.452627 
L 240.761723 136.344421 
L 242.549469 137.748393 
L 242.996405 140.986613 
L 243.443341 137.079268 
L 244.337214 135.055789 
L 245.678023 141.834887 
L 246.124959 140.643222 
L 247.018832 141.613448 
L 247.465768 141.009445 
L 249.253514 146.859682 
L 249.70045 157.030401 
L 250.147386 155.017564 
L 250.594323 155.018839 
L 251.935132 157.167183 
L 252.382068 156.68701 
L 252.829004 159.400538 
L 253.275941 158.084486 
L 253.722877 157.571074 
L 255.063686 156.969303 
L 255.510622 154.502239 
L 255.957558 147.006149 
L 259.533049 160.476863 
L 259.979985 175.509334 
L 261.320794 196.259683 
L 261.767731 199.367457 
L 262.214667 197.580478 
L 262.661603 184.876456 
L 263.10854 181.545613 
L 264.449349 181.407197 
L 264.896285 177.364305 
L 265.343221 168.05565 
L 265.790158 167.688067 
L 266.237094 166.350693 
L 267.577903 170.87296 
L 268.024839 170.376526 
L 268.471776 166.764148 
L 268.918712 159.522414 
L 269.365648 162.688735 
L 270.706457 184.345946 
L 271.153393 181.235023 
L 271.60033 186.364243 
L 272.047266 179.915025 
L 272.494202 188.885192 
L 273.835011 190.66486 
L 274.281948 185.162238 
L 274.728884 184.319305 
L 275.17582 182.450663 
L 275.622757 179.509682 
L 276.963566 221.321809 
L 277.410502 216.99774 
L 277.857438 232.772113 
L 278.304375 262.528299 
L 278.751311 275.605205 
L 280.09212 279.04816 
L 280.985993 266.538112 
L 281.432929 278.960399 
L 281.879865 281.059004 
L 283.220674 316.243762 
L 283.667611 317.569459 
L 284.114547 302.776157 
L 284.561483 310.490532 
L 285.008419 315.505687 
L 286.349228 336.786188 
L 286.796165 339.838125 
L 287.243101 328.622993 
L 288.136974 313.287424 
L 289.924719 280.028341 
L 290.371655 274.404362 
L 290.818592 264.336469 
L 291.265528 265.825292 
L 292.606337 260.679533 
L 293.053273 257.879121 
L 293.50021 245.615775 
L 293.947146 241.96135 
L 294.394082 227.214838 
L 295.734891 216.180939 
L 296.181828 239.737719 
L 296.628764 229.558153 
L 297.0757 227.020385 
L 297.522637 222.261777 
L 298.863446 215.561792 
L 299.310382 213.998519 
L 299.757318 207.308936 
L 301.992 214.158025 
L 302.438936 209.032671 
L 302.885872 199.690777 
L 303.779745 192.642698 
L 305.120554 184.920671 
L 305.56749 173.417081 
L 306.014427 170.192452 
L 306.461363 171.550751 
L 306.908299 178.988173 
L 308.249108 175.668211 
L 308.696045 170.481799 
L 309.142981 166.708846 
L 309.589917 164.64882 
L 310.036854 168.217796 
L 311.377663 158.233041 
L 311.824599 144.623154 
L 312.271535 150.925067 
L 312.718472 151.796377 
L 314.506217 138.92893 
L 314.953153 145.149858 
L 315.400089 142.765971 
L 315.847026 135.210258 
L 316.293962 125.613452 
L 317.634771 114.933785 
L 318.081707 112.503705 
L 318.528644 107.850793 
L 318.97558 133.555399 
L 319.422516 140.125816 
L 320.763325 157.510649 
L 321.210262 146.35041 
L 322.104134 140.022073 
L 322.551071 127.032848 
L 323.89188 121.782349 
L 324.338816 121.979233 
L 324.785752 128.242846 
L 325.679625 137.520255 
L 327.020434 160.634604 
L 327.46737 161.35586 
L 327.914307 149.267458 
L 328.361243 149.22011 
L 328.808179 146.570151 
L 330.148988 141.580304 
L 330.595924 141.231334 
L 331.042861 139.339456 
L 331.489797 129.37969 
L 333.277542 128.673978 
L 334.171415 123.351102 
L 334.618351 122.410086 
L 335.065288 122.611672 
L 336.406097 127.526193 
L 337.299969 135.066681 
L 337.746906 137.050862 
L 338.193842 163.623152 
L 339.534651 201.101964 
L 339.981587 176.305772 
L 340.428524 196.617837 
L 340.87546 190.958466 
L 341.322396 192.711209 
L 342.663205 177.675654 
L 343.110142 167.517849 
L 343.557078 160.312861 
L 344.004014 158.900678 
L 344.450951 153.582984 
L 346.238696 143.978804 
L 346.685632 140.866048 
L 347.132568 131.754197 
L 347.579505 132.509171 
L 348.920314 130.062113 
L 349.36725 123.628957 
L 349.814186 119.16707 
L 350.261123 119.100312 
L 350.708059 111.351503 
L 352.048868 100.086366 
L 353.389677 80.205373 
L 353.836613 77.346135 
L 355.177422 79.091824 
L 355.624359 75.678008 
L 356.518231 76.830097 
L 356.965168 78.070823 
L 358.305977 80.005066 
L 358.752913 72.9261 
L 359.199849 70.018836 
L 359.646786 65.937086 
L 360.093722 58.203819 
L 361.881467 47.990257 
L 362.328403 46.747777 
L 362.77534 47.045852 
L 363.222276 44.301835 
L 364.563085 44.299244 
L 365.010021 46.360266 
L 365.456958 44.672606 
L 365.903894 48.660139 
L 366.35083 47.502431 
L 367.691639 41.461887 
L 368.138576 46.332169 
L 368.585512 41.13934 
L 369.032448 37.438125 
L 369.479385 39.478832 
L 370.820194 37.438125 
L 371.714066 37.438125 
L 372.161003 37.975872 
L 372.607939 37.438125 
L 373.948748 43.759697 
L 374.395684 42.319392 
L 375.289557 51.294431 
L 375.736493 52.67098 
L 377.077302 50.912557 
L 377.524238 50.756033 
L 377.971175 54.740034 
L 378.418111 51.164267 
L 378.865047 48.581264 
L 380.205856 57.876059 
L 380.652793 66.9689 
L 381.099729 85.941222 
L 381.993602 80.699917 
L 383.334411 73.831019 
L 383.781347 68.306574 
L 384.228283 58.156589 
L 384.67522 61.077207 
L 385.122156 60.383454 
L 386.462965 45.972177 
L 387.356838 40.533091 
L 387.803774 37.438125 
L 388.25071 37.438125 
L 389.591519 41.946372 
L 390.038456 37.438125 
L 393.16701 37.438125 
L 394.060882 40.211853 
L 394.507819 37.438125 
L 395.848628 38.088296 
L 396.295564 37.438125 
L 397.189437 37.438125 
L 397.636373 37.934816 
L 398.977182 37.438125 
L 399.871055 37.438125 
L 400.317991 44.127011 
L 400.764927 40.745149 
L 402.105736 37.438125 
L 402.999609 37.438125 
L 403.446545 38.87493 
L 403.893482 37.438125 
L 406.128163 37.438125 
L 406.575099 54.226812 
L 407.022036 37.667533 
L 408.809781 37.438125 
L 409.256717 38.696937 
L 409.703654 37.438125 
L 417.748508 37.438125 
L 418.195444 81.497089 
L 418.64238 82.776034 
L 419.089317 57.606271 
L 419.536253 51.811189 
L 420.877062 42.58921 
L 421.323998 61.995786 
L 421.770934 87.627965 
L 422.217871 146.308436 
L 422.664807 123.07448 
L 424.005616 145.136016 
L 424.452552 134.877708 
L 424.899489 108.409193 
L 425.346425 106.378597 
L 425.793361 96.988086 
L 427.13417 116.937671 
L 427.581107 101.137682 
L 431.156597 73.606924 
L 431.603534 63.490831 
L 432.05047 58.09834 
L 433.391279 55.529911 
L 433.838215 51.937583 
L 434.285152 58.496282 
L 435.179024 41.909491 
L 436.519833 37.438125 
L 437.413706 37.438125 
L 437.860642 45.574422 
L 438.307578 37.438125 
L 443.670814 37.438125 
L 444.117751 37.627475 
L 444.564687 37.438125 
L 445.905496 37.438125 
L 446.352432 40.004855 
L 446.799369 55.090964 
L 447.246305 56.312391 
L 447.693241 62.469466 
L 449.03405 47.68543 
L 449.480987 41.209056 
L 449.927923 37.446795 
L 450.821796 37.438125 
L 452.162605 39.759751 
L 452.609541 41.717579 
L 453.056477 37.438125 
L 455.291159 37.438125 
L 455.738095 49.070999 
L 456.185031 44.695663 
L 456.631968 54.872083 
L 457.078904 70.887468 
L 458.419713 62.941035 
L 458.866649 68.156679 
L 459.760522 90.275973 
L 460.207458 81.329111 
L 461.548267 98.090672 
L 461.995204 95.719377 
L 462.44214 86.523064 
L 462.889076 82.799104 
L 465.123758 89.044698 
L 465.570694 78.407479 
L 466.017631 82.768076 
L 466.464567 89.396794 
L 467.805376 89.565905 
L 468.252312 85.113745 
L 468.699248 75.684954 
L 469.146185 81.452036 
L 469.593121 79.506087 
L 470.93393 84.042104 
L 471.380866 87.806541 
L 471.827803 93.304046 
L 472.274739 100.200248 
L 472.721675 88.938089 
L 474.509421 75.819087 
L 474.956357 80.325374 
L 475.403293 88.651762 
L 475.85023 80.395832 
L 477.191039 82.42148 
L 477.637975 83.32407 
L 478.084911 75.471434 
L 478.531848 62.23287 
L 478.978784 54.201826 
L 480.319593 52.269555 
L 480.766529 61.620156 
L 481.213466 60.423482 
L 481.660402 62.759716 
L 482.107338 54.435533 
L 483.448147 50.651862 
L 483.895083 43.014955 
L 484.34202 39.484337 
L 484.788956 37.438125 
L 486.576701 37.438125 
L 487.023638 37.989203 
L 487.470574 48.140541 
L 487.91751 54.795287 
L 488.364447 51.001054 
L 489.705256 46.153351 
L 490.599128 51.704348 
L 491.046065 46.834911 
L 491.493001 44.632716 
L 492.83381 51.179204 
L 493.280746 72.059872 
L 493.727683 74.162605 
L 494.174619 75.574855 
L 495.962364 122.058508 
L 496.409301 112.119838 
L 496.856237 116.536735 
L 497.75011 105.811336 
L 499.090918 124.63518 
L 499.537855 114.009463 
L 499.984791 109.854525 
L 500.431727 98.643037 
L 500.878664 100.68595 
L 502.219473 90.855016 
L 502.666409 89.941776 
L 503.113345 92.133414 
L 503.560282 87.45981 
L 504.007218 77.790492 
L 505.348027 72.027563 
L 505.794963 65.025499 
L 506.2419 61.664354 
L 507.135772 49.575639 
L 508.476581 37.438125 
L 511.605136 37.438125 
L 512.052072 42.003117 
L 512.499008 38.271217 
L 512.945945 37.438125 
L 513.392881 55.244942 
L 514.73369 67.196175 
L 515.180626 72.309121 
L 516.074499 55.611941 
L 516.521435 38.259271 
L 517.862244 37.438125 
L 518.30918 37.438125 
L 518.756117 61.386248 
L 520.990798 37.438125 
L 521.437735 55.799968 
L 521.884671 58.255221 
L 522.331607 48.091499 
L 522.778544 44.79186 
L 524.119353 43.215623 
L 524.566289 43.156202 
L 525.013225 37.438125 
L 525.907098 37.438125 
L 527.247907 39.243625 
L 527.694843 37.438125 
L 528.14178 37.438125 
L 528.588716 42.51283 
L 529.035652 53.484219 
L 530.376461 77.968058 
L 531.270334 57.490305 
L 531.71727 51.806253 
L 532.164206 53.205273 
L 533.951952 37.438125 
L 534.845824 37.438125 
L 535.292761 37.963348 
L 536.63357 37.996248 
L 537.080506 37.438125 
L 539.762124 37.438125 
L 540.20906 37.626502 
L 540.655997 37.438125 
L 544.678423 37.438125 
L 546.019232 43.845346 
L 546.466169 37.438125 
L 546.913105 57.426117 
L 547.360041 49.682456 
L 547.806978 39.141893 
L 549.147787 37.438125 
L 553.61715 37.438125 
L 554.064086 61.664179 
L 555.404895 93.599926 
L 555.851832 78.725134 
L 556.298768 72.788539 
L 556.745704 65.309248 
L 557.192641 69.230857 
L 558.53345 63.030226 
L 558.980386 57.683147 
L 559.427322 56.065736 
L 559.874258 56.858587 
L 560.321195 76.297955 
L 561.662004 106.803717 
L 562.10894 88.16557 
L 562.555876 87.478462 
L 563.002813 76.615163 
L 563.449749 74.711354 
L 564.790558 60.113482 
L 565.237494 58.861787 
L 565.684431 61.615053 
L 566.131367 58.129338 
L 566.578303 59.507828 
L 567.919112 67.032981 
L 568.366049 62.31057 
L 568.812985 60.30757 
L 569.259921 70.608839 
L 569.706858 72.023303 
L 571.047667 66.272708 
L 571.494603 65.098771 
L 571.941539 66.224011 
L 572.388476 68.766271 
L 572.835412 69.203164 
L 574.623157 60.963702 
L 575.070093 57.311742 
L 575.51703 56.759858 
L 575.963966 53.041385 
L 577.751711 67.743701 
L 578.198648 72.573732 
L 578.645584 83.914112 
L 579.09252 85.275445 
L 580.433329 110.401451 
L 580.880266 122.747305 
L 581.327202 117.594394 
L 581.774138 101.273679 
L 582.221075 101.84234 
L 583.561884 127.497799 
L 584.00882 120.711568 
L 584.455756 122.828899 
L 584.902693 125.689886 
L 585.349629 120.112306 
L 589.818992 105.626229 
L 590.712865 85.67203 
L 591.159801 83.354538 
L 591.159801 83.354538 
" clip-path="url(#p3521ed0e6e)" style="fill: none; stroke: #000000; stroke-width: 1.5; stroke-linecap: square"/>
   </g>
   <g id="patch_3">
    <path d="M 58.523438 354.958125 
L 58.523438 22.318125 
" style="fill: none; stroke: #000000; stroke-width: 0.8; stroke-linejoin: miter; stroke-linecap: square"/>
   </g>
   <g id="patch_4">
    <path d="M 616.523438 354.958125 
L 616.523438 22.318125 
" style="fill: none; stroke: #000000; stroke-width: 0.8; stroke-linejoin: miter; stroke-linecap: square"/>
   </g>
   <g id="patch_5">
    <path d="M 58.523438 354.958125 
L 616.523437 354.958125 
" style="fill: none; stroke: #000000; stroke-width: 0.8; stroke-linejoin: miter; stroke-linecap: square"/>
   </g>
   <g id="patch_6">
    <path d="M 58.523438 22.318125 
L 616.523437 22.318125 
" style="fill: none; stroke: #000000; stroke-width: 0.8; stroke-linejoin: miter; stroke-linecap: square"/>
   </g>
   <g id="text_19">
    <!-- Draw down Value Over Time -->
    <g transform="translate(252.445312 16.318125) scale(0.12 -0.12)">
     <defs>
      <path id="DejaVuSans-44" d="M 1259 4147 
L 1259 519 
L 2022 519 
Q 2988 519 3436 956 
Q 3884 1394 3884 2338 
Q 3884 3275 3436 3711 
Q 2988 4147 2022 4147 
L 1259 4147 
z
M 628 4666 
L 1925 4666 
Q 3281 4666 3915 4102 
Q 4550 3538 4550 2338 
Q 4550 1131 3912 565 
Q 3275 0 1925 0 
L 628 0 
L 628 4666 
z
" transform="scale(0.015625)"/>
      <path id="DejaVuSans-77" d="M 269 3500 
L 844 3500 
L 1563 769 
L 2278 3500 
L 2956 3500 
L 3675 769 
L 4391 3500 
L 4966 3500 
L 4050 0 
L 3372 0 
L 2619 2869 
L 1863 0 
L 1184 0 
L 269 3500 
z
" transform="scale(0.015625)"/>
      <path id="DejaVuSans-64" d="M 2906 2969 
L 2906 4863 
L 3481 4863 
L 3481 0 
L 2906 0 
L 2906 525 
Q 2725 213 2448 61 
Q 2172 -91 1784 -91 
Q 1150 -91 751 415 
Q 353 922 353 1747 
Q 353 2572 751 3078 
Q 1150 3584 1784 3584 
Q 2172 3584 2448 3432 
Q 2725 3281 2906 2969 
z
M 947 1747 
Q 947 1113 1208 752 
Q 1469 391 1925 391 
Q 2381 391 2643 752 
Q 2906 1113 2906 1747 
Q 2906 2381 2643 2742 
Q 2381 3103 1925 3103 
Q 1469 3103 1208 2742 
Q 947 2381 947 1747 
z
" transform="scale(0.015625)"/>
      <path id="DejaVuSans-6f" d="M 1959 3097 
Q 1497 3097 1228 2736 
Q 959 2375 959 1747 
Q 959 1119 1226 758 
Q 1494 397 1959 397 
Q 2419 397 2687 759 
Q 2956 1122 2956 1747 
Q 2956 2369 2687 2733 
Q 2419 3097 1959 3097 
z
M 1959 3584 
Q 2709 3584 3137 3096 
Q 3566 2609 3566 1747 
Q 3566 888 3137 398 
Q 2709 -91 1959 -91 
Q 1206 -91 779 398 
Q 353 888 353 1747 
Q 353 2609 779 3096 
Q 1206 3584 1959 3584 
z
" transform="scale(0.015625)"/>
      <path id="DejaVuSans-56" d="M 1831 0 
L 50 4666 
L 709 4666 
L 2188 738 
L 3669 4666 
L 4325 4666 
L 2547 0 
L 1831 0 
z
" transform="scale(0.015625)"/>
      <path id="DejaVuSans-6c" d="M 603 4863 
L 1178 4863 
L 1178 0 
L 603 0 
L 603 4863 
z
" transform="scale(0.015625)"/>
      <path id="DejaVuSans-75" d="M 544 1381 
L 544 3500 
L 1119 3500 
L 1119 1403 
Q 1119 906 1312 657 
Q 1506 409 1894 409 
Q 2359 409 2629 706 
Q 2900 1003 2900 1516 
L 2900 3500 
L 3475 3500 
L 3475 0 
L 2900 0 
L 2900 538 
Q 2691 219 2414 64 
Q 2138 -91 1772 -91 
Q 1169 -91 856 284 
Q 544 659 544 1381 
z
M 1991 3584 
L 1991 3584 
z
" transform="scale(0.015625)"/>
      <path id="DejaVuSans-4f" d="M 2522 4238 
Q 1834 4238 1429 3725 
Q 1025 3213 1025 2328 
Q 1025 1447 1429 934 
Q 1834 422 2522 422 
Q 3209 422 3611 934 
Q 4013 1447 4013 2328 
Q 4013 3213 3611 3725 
Q 3209 4238 2522 4238 
z
M 2522 4750 
Q 3503 4750 4090 4092 
Q 4678 3434 4678 2328 
Q 4678 1225 4090 567 
Q 3503 -91 2522 -91 
Q 1538 -91 948 565 
Q 359 1222 359 2328 
Q 359 3434 948 4092 
Q 1538 4750 2522 4750 
z
" transform="scale(0.015625)"/>
      <path id="DejaVuSans-76" d="M 191 3500 
L 800 3500 
L 1894 563 
L 2988 3500 
L 3597 3500 
L 2284 0 
L 1503 0 
L 191 3500 
z
" transform="scale(0.015625)"/>
     </defs>
     <use xlink:href="#DejaVuSans-44"/>
     <use xlink:href="#DejaVuSans-72" x="77.001953"/>
     <use xlink:href="#DejaVuSans-61" x="118.115234"/>
     <use xlink:href="#DejaVuSans-77" x="179.394531"/>
     <use xlink:href="#DejaVuSans-20" x="261.181641"/>
     <use xlink:href="#DejaVuSans-64" x="292.96875"/>
     <use xlink:href="#DejaVuSans-6f" x="356.445312"/>
     <use xlink:href="#DejaVuSans-77" x="417.626953"/>
     <use xlink:href="#DejaVuSans-6e" x="499.414062"/>
     <use xlink:href="#DejaVuSans-20" x="562.792969"/>
     <use xlink:href="#DejaVuSans-56" x="594.580078"/>
     <use xlink:href="#DejaVuSans-61" x="655.238281"/>
     <use xlink:href="#DejaVuSans-6c" x="716.517578"/>
     <use xlink:href="#DejaVuSans-75" x="744.300781"/>
     <use xlink:href="#DejaVuSans-65" x="807.679688"/>
     <use xlink:href="#DejaVuSans-20" x="869.203125"/>
     <use xlink:href="#DejaVuSans-4f" x="900.990234"/>
     <use xlink:href="#DejaVuSans-76" x="979.701172"/>
     <use xlink:href="#DejaVuSans-65" x="1038.880859"/>
     <use xlink:href="#DejaVuSans-72" x="1100.404297"/>
     <use xlink:href="#DejaVuSans-20" x="1141.517578"/>
     <use xlink:href="#DejaVuSans-54" x="1173.304688"/>
     <use xlink:href="#DejaVuSans-69" x="1231.263672"/>
     <use xlink:href="#DejaVuSans-6d" x="1259.046875"/>
     <use xlink:href="#DejaVuSans-65" x="1356.458984"/>
    </g>
   </g>
  </g>
 </g>
 <defs>
  <clipPath id="p3521ed0e6e">
   <rect x="58.523438" y="22.318125" width="558" height="332.64"/>
  </clipPath>
 </defs>
</svg>
