<?xml version="1.0" encoding="utf-8" standalone="no"?>
<!DOCTYPE svg PUBLIC "-//W3C//DTD SVG 1.1//EN"
  "http://www.w3.org/Graphics/SVG/1.1/DTD/svg11.dtd">
<svg xmlns:xlink="http://www.w3.org/1999/xlink" width="614.182812pt" height="392.514375pt" viewBox="0 0 614.182812 392.514375" xmlns="http://www.w3.org/2000/svg" version="1.1">
 <metadata>
  <rdf:RDF xmlns:dc="http://purl.org/dc/elements/1.1/" xmlns:cc="http://creativecommons.org/ns#" xmlns:rdf="http://www.w3.org/1999/02/22-rdf-syntax-ns#">
   <cc:Work>
    <dc:type rdf:resource="http://purl.org/dc/dcmitype/StillImage"/>
    <dc:date>2025-08-01T00:31:01.099939</dc:date>
    <dc:format>image/svg+xml</dc:format>
    <dc:creator>
     <cc:Agent>
      <dc:title>Matplotlib v3.9.1, https://matplotlib.org/</dc:title>
     </cc:Agent>
    </dc:creator>
   </cc:Work>
  </rdf:RDF>
 </metadata>
 <defs>
  <style type="text/css">*{stroke-linejoin: round; stroke-linecap: butt}</style>
 </defs>
 <g id="figure_1">
  <g id="patch_1">
   <path d="M 0 392.514375 
L 614.182812 392.514375 
L 614.182812 0 
L 0 0 
z
" style="fill: #ffffff"/>
  </g>
  <g id="axes_1">
   <g id="patch_2">
    <path d="M 48.982813 354.958125 
L 606.982813 354.958125 
L 606.982813 22.318125 
L 48.982813 22.318125 
z
" style="fill: #ffffff"/>
   </g>
   <g id="matplotlib.axis_1">
    <g id="xtick_1">
     <g id="line2d_1">
      <path d="M 73.899513 354.958125 
L 73.899513 22.318125 
" clip-path="url(#pbcf9de57b1)" style="fill: none; stroke: #b0b0b0; stroke-width: 0.8; stroke-linecap: square"/>
     </g>
     <g id="line2d_2">
      <defs>
       <path id="mb737eb397b" d="M 0 0 
L 0 3.5 
" style="stroke: #000000; stroke-width: 0.8"/>
      </defs>
      <g>
       <use xlink:href="#mb737eb397b" x="73.899513" y="354.958125" style="stroke: #000000; stroke-width: 0.8"/>
      </g>
     </g>
     <g id="text_1">
      <!-- 2019-01 -->
      <g transform="translate(53.008106 369.556562) scale(0.1 -0.1)">
       <defs>
        <path id="DejaVuSans-32" d="M 1228 531 
L 3431 531 
L 3431 0 
L 469 0 
L 469 531 
Q 828 903 1448 1529 
Q 2069 2156 2228 2338 
Q 2531 2678 2651 2914 
Q 2772 3150 2772 3378 
Q 2772 3750 2511 3984 
Q 2250 4219 1831 4219 
Q 1534 4219 1204 4116 
Q 875 4013 500 3803 
L 500 4441 
Q 881 4594 1212 4672 
Q 1544 4750 1819 4750 
Q 2544 4750 2975 4387 
Q 3406 4025 3406 3419 
Q 3406 3131 3298 2873 
Q 3191 2616 2906 2266 
Q 2828 2175 2409 1742 
Q 1991 1309 1228 531 
z
" transform="scale(0.015625)"/>
        <path id="DejaVuSans-30" d="M 2034 4250 
Q 1547 4250 1301 3770 
Q 1056 3291 1056 2328 
Q 1056 1369 1301 889 
Q 1547 409 2034 409 
Q 2525 409 2770 889 
Q 3016 1369 3016 2328 
Q 3016 3291 2770 3770 
Q 2525 4250 2034 4250 
z
M 2034 4750 
Q 2819 4750 3233 4129 
Q 3647 3509 3647 2328 
Q 3647 1150 3233 529 
Q 2819 -91 2034 -91 
Q 1250 -91 836 529 
Q 422 1150 422 2328 
Q 422 3509 836 4129 
Q 1250 4750 2034 4750 
z
" transform="scale(0.015625)"/>
        <path id="DejaVuSans-31" d="M 794 531 
L 1825 531 
L 1825 4091 
L 703 3866 
L 703 4441 
L 1819 4666 
L 2450 4666 
L 2450 531 
L 3481 531 
L 3481 0 
L 794 0 
L 794 531 
z
" transform="scale(0.015625)"/>
        <path id="DejaVuSans-39" d="M 703 97 
L 703 672 
Q 941 559 1184 500 
Q 1428 441 1663 441 
Q 2288 441 2617 861 
Q 2947 1281 2994 2138 
Q 2813 1869 2534 1725 
Q 2256 1581 1919 1581 
Q 1219 1581 811 2004 
Q 403 2428 403 3163 
Q 403 3881 828 4315 
Q 1253 4750 1959 4750 
Q 2769 4750 3195 4129 
Q 3622 3509 3622 2328 
Q 3622 1225 3098 567 
Q 2575 -91 1691 -91 
Q 1453 -91 1209 -44 
Q 966 3 703 97 
z
M 1959 2075 
Q 2384 2075 2632 2365 
Q 2881 2656 2881 3163 
Q 2881 3666 2632 3958 
Q 2384 4250 1959 4250 
Q 1534 4250 1286 3958 
Q 1038 3666 1038 3163 
Q 1038 2656 1286 2365 
Q 1534 2075 1959 2075 
z
" transform="scale(0.015625)"/>
        <path id="DejaVuSans-2d" d="M 313 2009 
L 1997 2009 
L 1997 1497 
L 313 1497 
L 313 2009 
z
" transform="scale(0.015625)"/>
       </defs>
       <use xlink:href="#DejaVuSans-32"/>
       <use xlink:href="#DejaVuSans-30" x="63.623047"/>
       <use xlink:href="#DejaVuSans-31" x="127.246094"/>
       <use xlink:href="#DejaVuSans-39" x="190.869141"/>
       <use xlink:href="#DejaVuSans-2d" x="254.492188"/>
       <use xlink:href="#DejaVuSans-30" x="290.576172"/>
       <use xlink:href="#DejaVuSans-31" x="354.199219"/>
      </g>
     </g>
    </g>
    <g id="xtick_2">
     <g id="line2d_3">
      <path d="M 127.531871 354.958125 
L 127.531871 22.318125 
" clip-path="url(#pbcf9de57b1)" style="fill: none; stroke: #b0b0b0; stroke-width: 0.8; stroke-linecap: square"/>
     </g>
     <g id="line2d_4">
      <g>
       <use xlink:href="#mb737eb397b" x="127.531871" y="354.958125" style="stroke: #000000; stroke-width: 0.8"/>
      </g>
     </g>
     <g id="text_2">
      <!-- 2019-05 -->
      <g transform="translate(106.640465 369.556562) scale(0.1 -0.1)">
       <defs>
        <path id="DejaVuSans-35" d="M 691 4666 
L 3169 4666 
L 3169 4134 
L 1269 4134 
L 1269 2991 
Q 1406 3038 1543 3061 
Q 1681 3084 1819 3084 
Q 2600 3084 3056 2656 
Q 3513 2228 3513 1497 
Q 3513 744 3044 326 
Q 2575 -91 1722 -91 
Q 1428 -91 1123 -41 
Q 819 9 494 109 
L 494 744 
Q 775 591 1075 516 
Q 1375 441 1709 441 
Q 2250 441 2565 725 
Q 2881 1009 2881 1497 
Q 2881 1984 2565 2268 
Q 2250 2553 1709 2553 
Q 1456 2553 1204 2497 
Q 953 2441 691 2322 
L 691 4666 
z
" transform="scale(0.015625)"/>
       </defs>
       <use xlink:href="#DejaVuSans-32"/>
       <use xlink:href="#DejaVuSans-30" x="63.623047"/>
       <use xlink:href="#DejaVuSans-31" x="127.246094"/>
       <use xlink:href="#DejaVuSans-39" x="190.869141"/>
       <use xlink:href="#DejaVuSans-2d" x="254.492188"/>
       <use xlink:href="#DejaVuSans-30" x="290.576172"/>
       <use xlink:href="#DejaVuSans-35" x="354.199219"/>
      </g>
     </g>
    </g>
    <g id="xtick_3">
     <g id="line2d_5">
      <path d="M 182.505039 354.958125 
L 182.505039 22.318125 
" clip-path="url(#pbcf9de57b1)" style="fill: none; stroke: #b0b0b0; stroke-width: 0.8; stroke-linecap: square"/>
     </g>
     <g id="line2d_6">
      <g>
       <use xlink:href="#mb737eb397b" x="182.505039" y="354.958125" style="stroke: #000000; stroke-width: 0.8"/>
      </g>
     </g>
     <g id="text_3">
      <!-- 2019-09 -->
      <g transform="translate(161.613633 369.556562) scale(0.1 -0.1)">
       <use xlink:href="#DejaVuSans-32"/>
       <use xlink:href="#DejaVuSans-30" x="63.623047"/>
       <use xlink:href="#DejaVuSans-31" x="127.246094"/>
       <use xlink:href="#DejaVuSans-39" x="190.869141"/>
       <use xlink:href="#DejaVuSans-2d" x="254.492188"/>
       <use xlink:href="#DejaVuSans-30" x="290.576172"/>
       <use xlink:href="#DejaVuSans-39" x="354.199219"/>
      </g>
     </g>
    </g>
    <g id="xtick_4">
     <g id="line2d_7">
      <path d="M 237.031271 354.958125 
L 237.031271 22.318125 
" clip-path="url(#pbcf9de57b1)" style="fill: none; stroke: #b0b0b0; stroke-width: 0.8; stroke-linecap: square"/>
     </g>
     <g id="line2d_8">
      <g>
       <use xlink:href="#mb737eb397b" x="237.031271" y="354.958125" style="stroke: #000000; stroke-width: 0.8"/>
      </g>
     </g>
     <g id="text_4">
      <!-- 2020-01 -->
      <g transform="translate(216.139864 369.556562) scale(0.1 -0.1)">
       <use xlink:href="#DejaVuSans-32"/>
       <use xlink:href="#DejaVuSans-30" x="63.623047"/>
       <use xlink:href="#DejaVuSans-32" x="127.246094"/>
       <use xlink:href="#DejaVuSans-30" x="190.869141"/>
       <use xlink:href="#DejaVuSans-2d" x="254.492188"/>
       <use xlink:href="#DejaVuSans-30" x="290.576172"/>
       <use xlink:href="#DejaVuSans-31" x="354.199219"/>
      </g>
     </g>
    </g>
    <g id="xtick_5">
     <g id="line2d_9">
      <path d="M 291.110566 354.958125 
L 291.110566 22.318125 
" clip-path="url(#pbcf9de57b1)" style="fill: none; stroke: #b0b0b0; stroke-width: 0.8; stroke-linecap: square"/>
     </g>
     <g id="line2d_10">
      <g>
       <use xlink:href="#mb737eb397b" x="291.110566" y="354.958125" style="stroke: #000000; stroke-width: 0.8"/>
      </g>
     </g>
     <g id="text_5">
      <!-- 2020-05 -->
      <g transform="translate(270.21916 369.556562) scale(0.1 -0.1)">
       <use xlink:href="#DejaVuSans-32"/>
       <use xlink:href="#DejaVuSans-30" x="63.623047"/>
       <use xlink:href="#DejaVuSans-32" x="127.246094"/>
       <use xlink:href="#DejaVuSans-30" x="190.869141"/>
       <use xlink:href="#DejaVuSans-2d" x="254.492188"/>
       <use xlink:href="#DejaVuSans-30" x="290.576172"/>
       <use xlink:href="#DejaVuSans-35" x="354.199219"/>
      </g>
     </g>
    </g>
    <g id="xtick_6">
     <g id="line2d_11">
      <path d="M 346.083734 354.958125 
L 346.083734 22.318125 
" clip-path="url(#pbcf9de57b1)" style="fill: none; stroke: #b0b0b0; stroke-width: 0.8; stroke-linecap: square"/>
     </g>
     <g id="line2d_12">
      <g>
       <use xlink:href="#mb737eb397b" x="346.083734" y="354.958125" style="stroke: #000000; stroke-width: 0.8"/>
      </g>
     </g>
     <g id="text_6">
      <!-- 2020-09 -->
      <g transform="translate(325.192327 369.556562) scale(0.1 -0.1)">
       <use xlink:href="#DejaVuSans-32"/>
       <use xlink:href="#DejaVuSans-30" x="63.623047"/>
       <use xlink:href="#DejaVuSans-32" x="127.246094"/>
       <use xlink:href="#DejaVuSans-30" x="190.869141"/>
       <use xlink:href="#DejaVuSans-2d" x="254.492188"/>
       <use xlink:href="#DejaVuSans-30" x="290.576172"/>
       <use xlink:href="#DejaVuSans-39" x="354.199219"/>
      </g>
     </g>
    </g>
    <g id="xtick_7">
     <g id="line2d_13">
      <path d="M 400.609965 354.958125 
L 400.609965 22.318125 
" clip-path="url(#pbcf9de57b1)" style="fill: none; stroke: #b0b0b0; stroke-width: 0.8; stroke-linecap: square"/>
     </g>
     <g id="line2d_14">
      <g>
       <use xlink:href="#mb737eb397b" x="400.609965" y="354.958125" style="stroke: #000000; stroke-width: 0.8"/>
      </g>
     </g>
     <g id="text_7">
      <!-- 2021-01 -->
      <g transform="translate(379.718559 369.556562) scale(0.1 -0.1)">
       <use xlink:href="#DejaVuSans-32"/>
       <use xlink:href="#DejaVuSans-30" x="63.623047"/>
       <use xlink:href="#DejaVuSans-32" x="127.246094"/>
       <use xlink:href="#DejaVuSans-31" x="190.869141"/>
       <use xlink:href="#DejaVuSans-2d" x="254.492188"/>
       <use xlink:href="#DejaVuSans-30" x="290.576172"/>
       <use xlink:href="#DejaVuSans-31" x="354.199219"/>
      </g>
     </g>
    </g>
    <g id="xtick_8">
     <g id="line2d_15">
      <path d="M 454.242324 354.958125 
L 454.242324 22.318125 
" clip-path="url(#pbcf9de57b1)" style="fill: none; stroke: #b0b0b0; stroke-width: 0.8; stroke-linecap: square"/>
     </g>
     <g id="line2d_16">
      <g>
       <use xlink:href="#mb737eb397b" x="454.242324" y="354.958125" style="stroke: #000000; stroke-width: 0.8"/>
      </g>
     </g>
     <g id="text_8">
      <!-- 2021-05 -->
      <g transform="translate(433.350918 369.556562) scale(0.1 -0.1)">
       <use xlink:href="#DejaVuSans-32"/>
       <use xlink:href="#DejaVuSans-30" x="63.623047"/>
       <use xlink:href="#DejaVuSans-32" x="127.246094"/>
       <use xlink:href="#DejaVuSans-31" x="190.869141"/>
       <use xlink:href="#DejaVuSans-2d" x="254.492188"/>
       <use xlink:href="#DejaVuSans-30" x="290.576172"/>
       <use xlink:href="#DejaVuSans-35" x="354.199219"/>
      </g>
     </g>
    </g>
    <g id="xtick_9">
     <g id="line2d_17">
      <path d="M 509.215492 354.958125 
L 509.215492 22.318125 
" clip-path="url(#pbcf9de57b1)" style="fill: none; stroke: #b0b0b0; stroke-width: 0.8; stroke-linecap: square"/>
     </g>
     <g id="line2d_18">
      <g>
       <use xlink:href="#mb737eb397b" x="509.215492" y="354.958125" style="stroke: #000000; stroke-width: 0.8"/>
      </g>
     </g>
     <g id="text_9">
      <!-- 2021-09 -->
      <g transform="translate(488.324085 369.556562) scale(0.1 -0.1)">
       <use xlink:href="#DejaVuSans-32"/>
       <use xlink:href="#DejaVuSans-30" x="63.623047"/>
       <use xlink:href="#DejaVuSans-32" x="127.246094"/>
       <use xlink:href="#DejaVuSans-31" x="190.869141"/>
       <use xlink:href="#DejaVuSans-2d" x="254.492188"/>
       <use xlink:href="#DejaVuSans-30" x="290.576172"/>
       <use xlink:href="#DejaVuSans-39" x="354.199219"/>
      </g>
     </g>
    </g>
    <g id="xtick_10">
     <g id="line2d_19">
      <path d="M 563.741723 354.958125 
L 563.741723 22.318125 
" clip-path="url(#pbcf9de57b1)" style="fill: none; stroke: #b0b0b0; stroke-width: 0.8; stroke-linecap: square"/>
     </g>
     <g id="line2d_20">
      <g>
       <use xlink:href="#mb737eb397b" x="563.741723" y="354.958125" style="stroke: #000000; stroke-width: 0.8"/>
      </g>
     </g>
     <g id="text_10">
      <!-- 2022-01 -->
      <g transform="translate(542.850317 369.556562) scale(0.1 -0.1)">
       <use xlink:href="#DejaVuSans-32"/>
       <use xlink:href="#DejaVuSans-30" x="63.623047"/>
       <use xlink:href="#DejaVuSans-32" x="127.246094"/>
       <use xlink:href="#DejaVuSans-32" x="190.869141"/>
       <use xlink:href="#DejaVuSans-2d" x="254.492188"/>
       <use xlink:href="#DejaVuSans-30" x="290.576172"/>
       <use xlink:href="#DejaVuSans-31" x="354.199219"/>
      </g>
     </g>
    </g>
    <g id="text_11">
     <!-- Time Step -->
     <g transform="translate(302.775 383.234687) scale(0.1 -0.1)">
      <defs>
       <path id="DejaVuSans-54" d="M -19 4666 
L 3928 4666 
L 3928 4134 
L 2272 4134 
L 2272 0 
L 1638 0 
L 1638 4134 
L -19 4134 
L -19 4666 
z
" transform="scale(0.015625)"/>
       <path id="DejaVuSans-69" d="M 603 3500 
L 1178 3500 
L 1178 0 
L 603 0 
L 603 3500 
z
M 603 4863 
L 1178 4863 
L 1178 4134 
L 603 4134 
L 603 4863 
z
" transform="scale(0.015625)"/>
       <path id="DejaVuSans-6d" d="M 3328 2828 
Q 3544 3216 3844 3400 
Q 4144 3584 4550 3584 
Q 5097 3584 5394 3201 
Q 5691 2819 5691 2113 
L 5691 0 
L 5113 0 
L 5113 2094 
Q 5113 2597 4934 2840 
Q 4756 3084 4391 3084 
Q 3944 3084 3684 2787 
Q 3425 2491 3425 1978 
L 3425 0 
L 2847 0 
L 2847 2094 
Q 2847 2600 2669 2842 
Q 2491 3084 2119 3084 
Q 1678 3084 1418 2786 
Q 1159 2488 1159 1978 
L 1159 0 
L 581 0 
L 581 3500 
L 1159 3500 
L 1159 2956 
Q 1356 3278 1631 3431 
Q 1906 3584 2284 3584 
Q 2666 3584 2933 3390 
Q 3200 3197 3328 2828 
z
" transform="scale(0.015625)"/>
       <path id="DejaVuSans-65" d="M 3597 1894 
L 3597 1613 
L 953 1613 
Q 991 1019 1311 708 
Q 1631 397 2203 397 
Q 2534 397 2845 478 
Q 3156 559 3463 722 
L 3463 178 
Q 3153 47 2828 -22 
Q 2503 -91 2169 -91 
Q 1331 -91 842 396 
Q 353 884 353 1716 
Q 353 2575 817 3079 
Q 1281 3584 2069 3584 
Q 2775 3584 3186 3129 
Q 3597 2675 3597 1894 
z
M 3022 2063 
Q 3016 2534 2758 2815 
Q 2500 3097 2075 3097 
Q 1594 3097 1305 2825 
Q 1016 2553 972 2059 
L 3022 2063 
z
" transform="scale(0.015625)"/>
       <path id="DejaVuSans-20" transform="scale(0.015625)"/>
       <path id="DejaVuSans-53" d="M 3425 4513 
L 3425 3897 
Q 3066 4069 2747 4153 
Q 2428 4238 2131 4238 
Q 1616 4238 1336 4038 
Q 1056 3838 1056 3469 
Q 1056 3159 1242 3001 
Q 1428 2844 1947 2747 
L 2328 2669 
Q 3034 2534 3370 2195 
Q 3706 1856 3706 1288 
Q 3706 609 3251 259 
Q 2797 -91 1919 -91 
Q 1588 -91 1214 -16 
Q 841 59 441 206 
L 441 856 
Q 825 641 1194 531 
Q 1563 422 1919 422 
Q 2459 422 2753 634 
Q 3047 847 3047 1241 
Q 3047 1584 2836 1778 
Q 2625 1972 2144 2069 
L 1759 2144 
Q 1053 2284 737 2584 
Q 422 2884 422 3419 
Q 422 4038 858 4394 
Q 1294 4750 2059 4750 
Q 2388 4750 2728 4690 
Q 3069 4631 3425 4513 
z
" transform="scale(0.015625)"/>
       <path id="DejaVuSans-74" d="M 1172 4494 
L 1172 3500 
L 2356 3500 
L 2356 3053 
L 1172 3053 
L 1172 1153 
Q 1172 725 1289 603 
Q 1406 481 1766 481 
L 2356 481 
L 2356 0 
L 1766 0 
Q 1100 0 847 248 
Q 594 497 594 1153 
L 594 3053 
L 172 3053 
L 172 3500 
L 594 3500 
L 594 4494 
L 1172 4494 
z
" transform="scale(0.015625)"/>
       <path id="DejaVuSans-70" d="M 1159 525 
L 1159 -1331 
L 581 -1331 
L 581 3500 
L 1159 3500 
L 1159 2969 
Q 1341 3281 1617 3432 
Q 1894 3584 2278 3584 
Q 2916 3584 3314 3078 
Q 3713 2572 3713 1747 
Q 3713 922 3314 415 
Q 2916 -91 2278 -91 
Q 1894 -91 1617 61 
Q 1341 213 1159 525 
z
M 3116 1747 
Q 3116 2381 2855 2742 
Q 2594 3103 2138 3103 
Q 1681 3103 1420 2742 
Q 1159 2381 1159 1747 
Q 1159 1113 1420 752 
Q 1681 391 2138 391 
Q 2594 391 2855 752 
Q 3116 1113 3116 1747 
z
" transform="scale(0.015625)"/>
      </defs>
      <use xlink:href="#DejaVuSans-54"/>
      <use xlink:href="#DejaVuSans-69" x="57.958984"/>
      <use xlink:href="#DejaVuSans-6d" x="85.742188"/>
      <use xlink:href="#DejaVuSans-65" x="183.154297"/>
      <use xlink:href="#DejaVuSans-20" x="244.677734"/>
      <use xlink:href="#DejaVuSans-53" x="276.464844"/>
      <use xlink:href="#DejaVuSans-74" x="339.941406"/>
      <use xlink:href="#DejaVuSans-65" x="379.150391"/>
      <use xlink:href="#DejaVuSans-70" x="440.673828"/>
     </g>
    </g>
   </g>
   <g id="matplotlib.axis_2">
    <g id="ytick_1">
     <g id="line2d_21">
      <path d="M 48.982813 326.732843 
L 606.982813 326.732843 
" clip-path="url(#pbcf9de57b1)" style="fill: none; stroke: #b0b0b0; stroke-width: 0.8; stroke-linecap: square"/>
     </g>
     <g id="line2d_22">
      <defs>
       <path id="ma07bbaebdc" d="M 0 0 
L -3.5 0 
" style="stroke: #000000; stroke-width: 0.8"/>
      </defs>
      <g>
       <use xlink:href="#ma07bbaebdc" x="48.982813" y="326.732843" style="stroke: #000000; stroke-width: 0.8"/>
      </g>
     </g>
     <g id="text_12">
      <!-- −20 -->
      <g transform="translate(20.878125 330.532062) scale(0.1 -0.1)">
       <defs>
        <path id="DejaVuSans-2212" d="M 678 2272 
L 4684 2272 
L 4684 1741 
L 678 1741 
L 678 2272 
z
" transform="scale(0.015625)"/>
       </defs>
       <use xlink:href="#DejaVuSans-2212"/>
       <use xlink:href="#DejaVuSans-32" x="83.789062"/>
       <use xlink:href="#DejaVuSans-30" x="147.412109"/>
      </g>
     </g>
    </g>
    <g id="ytick_2">
     <g id="line2d_23">
      <path d="M 48.982813 283.60077 
L 606.982813 283.60077 
" clip-path="url(#pbcf9de57b1)" style="fill: none; stroke: #b0b0b0; stroke-width: 0.8; stroke-linecap: square"/>
     </g>
     <g id="line2d_24">
      <g>
       <use xlink:href="#ma07bbaebdc" x="48.982813" y="283.60077" style="stroke: #000000; stroke-width: 0.8"/>
      </g>
     </g>
     <g id="text_13">
      <!-- 0 -->
      <g transform="translate(35.620312 287.399988) scale(0.1 -0.1)">
       <use xlink:href="#DejaVuSans-30"/>
      </g>
     </g>
    </g>
    <g id="ytick_3">
     <g id="line2d_25">
      <path d="M 48.982813 240.468696 
L 606.982813 240.468696 
" clip-path="url(#pbcf9de57b1)" style="fill: none; stroke: #b0b0b0; stroke-width: 0.8; stroke-linecap: square"/>
     </g>
     <g id="line2d_26">
      <g>
       <use xlink:href="#ma07bbaebdc" x="48.982813" y="240.468696" style="stroke: #000000; stroke-width: 0.8"/>
      </g>
     </g>
     <g id="text_14">
      <!-- 20 -->
      <g transform="translate(29.257812 244.267915) scale(0.1 -0.1)">
       <use xlink:href="#DejaVuSans-32"/>
       <use xlink:href="#DejaVuSans-30" x="63.623047"/>
      </g>
     </g>
    </g>
    <g id="ytick_4">
     <g id="line2d_27">
      <path d="M 48.982813 197.336623 
L 606.982813 197.336623 
" clip-path="url(#pbcf9de57b1)" style="fill: none; stroke: #b0b0b0; stroke-width: 0.8; stroke-linecap: square"/>
     </g>
     <g id="line2d_28">
      <g>
       <use xlink:href="#ma07bbaebdc" x="48.982813" y="197.336623" style="stroke: #000000; stroke-width: 0.8"/>
      </g>
     </g>
     <g id="text_15">
      <!-- 40 -->
      <g transform="translate(29.257812 201.135842) scale(0.1 -0.1)">
       <defs>
        <path id="DejaVuSans-34" d="M 2419 4116 
L 825 1625 
L 2419 1625 
L 2419 4116 
z
M 2253 4666 
L 3047 4666 
L 3047 1625 
L 3713 1625 
L 3713 1100 
L 3047 1100 
L 3047 0 
L 2419 0 
L 2419 1100 
L 313 1100 
L 313 1709 
L 2253 4666 
z
" transform="scale(0.015625)"/>
       </defs>
       <use xlink:href="#DejaVuSans-34"/>
       <use xlink:href="#DejaVuSans-30" x="63.623047"/>
      </g>
     </g>
    </g>
    <g id="ytick_5">
     <g id="line2d_29">
      <path d="M 48.982813 154.20455 
L 606.982813 154.20455 
" clip-path="url(#pbcf9de57b1)" style="fill: none; stroke: #b0b0b0; stroke-width: 0.8; stroke-linecap: square"/>
     </g>
     <g id="line2d_30">
      <g>
       <use xlink:href="#ma07bbaebdc" x="48.982813" y="154.20455" style="stroke: #000000; stroke-width: 0.8"/>
      </g>
     </g>
     <g id="text_16">
      <!-- 60 -->
      <g transform="translate(29.257812 158.003768) scale(0.1 -0.1)">
       <defs>
        <path id="DejaVuSans-36" d="M 2113 2584 
Q 1688 2584 1439 2293 
Q 1191 2003 1191 1497 
Q 1191 994 1439 701 
Q 1688 409 2113 409 
Q 2538 409 2786 701 
Q 3034 994 3034 1497 
Q 3034 2003 2786 2293 
Q 2538 2584 2113 2584 
z
M 3366 4563 
L 3366 3988 
Q 3128 4100 2886 4159 
Q 2644 4219 2406 4219 
Q 1781 4219 1451 3797 
Q 1122 3375 1075 2522 
Q 1259 2794 1537 2939 
Q 1816 3084 2150 3084 
Q 2853 3084 3261 2657 
Q 3669 2231 3669 1497 
Q 3669 778 3244 343 
Q 2819 -91 2113 -91 
Q 1303 -91 875 529 
Q 447 1150 447 2328 
Q 447 3434 972 4092 
Q 1497 4750 2381 4750 
Q 2619 4750 2861 4703 
Q 3103 4656 3366 4563 
z
" transform="scale(0.015625)"/>
       </defs>
       <use xlink:href="#DejaVuSans-36"/>
       <use xlink:href="#DejaVuSans-30" x="63.623047"/>
      </g>
     </g>
    </g>
    <g id="ytick_6">
     <g id="line2d_31">
      <path d="M 48.982813 111.072476 
L 606.982813 111.072476 
" clip-path="url(#pbcf9de57b1)" style="fill: none; stroke: #b0b0b0; stroke-width: 0.8; stroke-linecap: square"/>
     </g>
     <g id="line2d_32">
      <g>
       <use xlink:href="#ma07bbaebdc" x="48.982813" y="111.072476" style="stroke: #000000; stroke-width: 0.8"/>
      </g>
     </g>
     <g id="text_17">
      <!-- 80 -->
      <g transform="translate(29.257812 114.871695) scale(0.1 -0.1)">
       <defs>
        <path id="DejaVuSans-38" d="M 2034 2216 
Q 1584 2216 1326 1975 
Q 1069 1734 1069 1313 
Q 1069 891 1326 650 
Q 1584 409 2034 409 
Q 2484 409 2743 651 
Q 3003 894 3003 1313 
Q 3003 1734 2745 1975 
Q 2488 2216 2034 2216 
z
M 1403 2484 
Q 997 2584 770 2862 
Q 544 3141 544 3541 
Q 544 4100 942 4425 
Q 1341 4750 2034 4750 
Q 2731 4750 3128 4425 
Q 3525 4100 3525 3541 
Q 3525 3141 3298 2862 
Q 3072 2584 2669 2484 
Q 3125 2378 3379 2068 
Q 3634 1759 3634 1313 
Q 3634 634 3220 271 
Q 2806 -91 2034 -91 
Q 1263 -91 848 271 
Q 434 634 434 1313 
Q 434 1759 690 2068 
Q 947 2378 1403 2484 
z
M 1172 3481 
Q 1172 3119 1398 2916 
Q 1625 2713 2034 2713 
Q 2441 2713 2670 2916 
Q 2900 3119 2900 3481 
Q 2900 3844 2670 4047 
Q 2441 4250 2034 4250 
Q 1625 4250 1398 4047 
Q 1172 3844 1172 3481 
z
" transform="scale(0.015625)"/>
       </defs>
       <use xlink:href="#DejaVuSans-38"/>
       <use xlink:href="#DejaVuSans-30" x="63.623047"/>
      </g>
     </g>
    </g>
    <g id="ytick_7">
     <g id="line2d_33">
      <path d="M 48.982813 67.940403 
L 606.982813 67.940403 
" clip-path="url(#pbcf9de57b1)" style="fill: none; stroke: #b0b0b0; stroke-width: 0.8; stroke-linecap: square"/>
     </g>
     <g id="line2d_34">
      <g>
       <use xlink:href="#ma07bbaebdc" x="48.982813" y="67.940403" style="stroke: #000000; stroke-width: 0.8"/>
      </g>
     </g>
     <g id="text_18">
      <!-- 100 -->
      <g transform="translate(22.895312 71.739622) scale(0.1 -0.1)">
       <use xlink:href="#DejaVuSans-31"/>
       <use xlink:href="#DejaVuSans-30" x="63.623047"/>
       <use xlink:href="#DejaVuSans-30" x="127.246094"/>
      </g>
     </g>
    </g>
    <g id="ytick_8">
     <g id="line2d_35">
      <path d="M 48.982813 24.80833 
L 606.982813 24.80833 
" clip-path="url(#pbcf9de57b1)" style="fill: none; stroke: #b0b0b0; stroke-width: 0.8; stroke-linecap: square"/>
     </g>
     <g id="line2d_36">
      <g>
       <use xlink:href="#ma07bbaebdc" x="48.982813" y="24.80833" style="stroke: #000000; stroke-width: 0.8"/>
      </g>
     </g>
     <g id="text_19">
      <!-- 120 -->
      <g transform="translate(22.895312 28.607548) scale(0.1 -0.1)">
       <use xlink:href="#DejaVuSans-31"/>
       <use xlink:href="#DejaVuSans-32" x="63.623047"/>
       <use xlink:href="#DejaVuSans-30" x="127.246094"/>
      </g>
     </g>
    </g>
    <g id="text_20">
     <!-- Holding Period Return (%) -->
     <g transform="translate(14.798437 253.352187) rotate(-90) scale(0.1 -0.1)">
      <defs>
       <path id="DejaVuSans-48" d="M 628 4666 
L 1259 4666 
L 1259 2753 
L 3553 2753 
L 3553 4666 
L 4184 4666 
L 4184 0 
L 3553 0 
L 3553 2222 
L 1259 2222 
L 1259 0 
L 628 0 
L 628 4666 
z
" transform="scale(0.015625)"/>
       <path id="DejaVuSans-6f" d="M 1959 3097 
Q 1497 3097 1228 2736 
Q 959 2375 959 1747 
Q 959 1119 1226 758 
Q 1494 397 1959 397 
Q 2419 397 2687 759 
Q 2956 1122 2956 1747 
Q 2956 2369 2687 2733 
Q 2419 3097 1959 3097 
z
M 1959 3584 
Q 2709 3584 3137 3096 
Q 3566 2609 3566 1747 
Q 3566 888 3137 398 
Q 2709 -91 1959 -91 
Q 1206 -91 779 398 
Q 353 888 353 1747 
Q 353 2609 779 3096 
Q 1206 3584 1959 3584 
z
" transform="scale(0.015625)"/>
       <path id="DejaVuSans-6c" d="M 603 4863 
L 1178 4863 
L 1178 0 
L 603 0 
L 603 4863 
z
" transform="scale(0.015625)"/>
       <path id="DejaVuSans-64" d="M 2906 2969 
L 2906 4863 
L 3481 4863 
L 3481 0 
L 2906 0 
L 2906 525 
Q 2725 213 2448 61 
Q 2172 -91 1784 -91 
Q 1150 -91 751 415 
Q 353 922 353 1747 
Q 353 2572 751 3078 
Q 1150 3584 1784 3584 
Q 2172 3584 2448 3432 
Q 2725 3281 2906 2969 
z
M 947 1747 
Q 947 1113 1208 752 
Q 1469 391 1925 391 
Q 2381 391 2643 752 
Q 2906 1113 2906 1747 
Q 2906 2381 2643 2742 
Q 2381 3103 1925 3103 
Q 1469 3103 1208 2742 
Q 947 2381 947 1747 
z
" transform="scale(0.015625)"/>
       <path id="DejaVuSans-6e" d="M 3513 2113 
L 3513 0 
L 2938 0 
L 2938 2094 
Q 2938 2591 2744 2837 
Q 2550 3084 2163 3084 
Q 1697 3084 1428 2787 
Q 1159 2491 1159 1978 
L 1159 0 
L 581 0 
L 581 3500 
L 1159 3500 
L 1159 2956 
Q 1366 3272 1645 3428 
Q 1925 3584 2291 3584 
Q 2894 3584 3203 3211 
Q 3513 2838 3513 2113 
z
" transform="scale(0.015625)"/>
       <path id="DejaVuSans-67" d="M 2906 1791 
Q 2906 2416 2648 2759 
Q 2391 3103 1925 3103 
Q 1463 3103 1205 2759 
Q 947 2416 947 1791 
Q 947 1169 1205 825 
Q 1463 481 1925 481 
Q 2391 481 2648 825 
Q 2906 1169 2906 1791 
z
M 3481 434 
Q 3481 -459 3084 -895 
Q 2688 -1331 1869 -1331 
Q 1566 -1331 1297 -1286 
Q 1028 -1241 775 -1147 
L 775 -588 
Q 1028 -725 1275 -790 
Q 1522 -856 1778 -856 
Q 2344 -856 2625 -561 
Q 2906 -266 2906 331 
L 2906 616 
Q 2728 306 2450 153 
Q 2172 0 1784 0 
Q 1141 0 747 490 
Q 353 981 353 1791 
Q 353 2603 747 3093 
Q 1141 3584 1784 3584 
Q 2172 3584 2450 3431 
Q 2728 3278 2906 2969 
L 2906 3500 
L 3481 3500 
L 3481 434 
z
" transform="scale(0.015625)"/>
       <path id="DejaVuSans-50" d="M 1259 4147 
L 1259 2394 
L 2053 2394 
Q 2494 2394 2734 2622 
Q 2975 2850 2975 3272 
Q 2975 3691 2734 3919 
Q 2494 4147 2053 4147 
L 1259 4147 
z
M 628 4666 
L 2053 4666 
Q 2838 4666 3239 4311 
Q 3641 3956 3641 3272 
Q 3641 2581 3239 2228 
Q 2838 1875 2053 1875 
L 1259 1875 
L 1259 0 
L 628 0 
L 628 4666 
z
" transform="scale(0.015625)"/>
       <path id="DejaVuSans-72" d="M 2631 2963 
Q 2534 3019 2420 3045 
Q 2306 3072 2169 3072 
Q 1681 3072 1420 2755 
Q 1159 2438 1159 1844 
L 1159 0 
L 581 0 
L 581 3500 
L 1159 3500 
L 1159 2956 
Q 1341 3275 1631 3429 
Q 1922 3584 2338 3584 
Q 2397 3584 2469 3576 
Q 2541 3569 2628 3553 
L 2631 2963 
z
" transform="scale(0.015625)"/>
       <path id="DejaVuSans-52" d="M 2841 2188 
Q 3044 2119 3236 1894 
Q 3428 1669 3622 1275 
L 4263 0 
L 3584 0 
L 2988 1197 
Q 2756 1666 2539 1819 
Q 2322 1972 1947 1972 
L 1259 1972 
L 1259 0 
L 628 0 
L 628 4666 
L 2053 4666 
Q 2853 4666 3247 4331 
Q 3641 3997 3641 3322 
Q 3641 2881 3436 2590 
Q 3231 2300 2841 2188 
z
M 1259 4147 
L 1259 2491 
L 2053 2491 
Q 2509 2491 2742 2702 
Q 2975 2913 2975 3322 
Q 2975 3731 2742 3939 
Q 2509 4147 2053 4147 
L 1259 4147 
z
" transform="scale(0.015625)"/>
       <path id="DejaVuSans-75" d="M 544 1381 
L 544 3500 
L 1119 3500 
L 1119 1403 
Q 1119 906 1312 657 
Q 1506 409 1894 409 
Q 2359 409 2629 706 
Q 2900 1003 2900 1516 
L 2900 3500 
L 3475 3500 
L 3475 0 
L 2900 0 
L 2900 538 
Q 2691 219 2414 64 
Q 2138 -91 1772 -91 
Q 1169 -91 856 284 
Q 544 659 544 1381 
z
M 1991 3584 
L 1991 3584 
z
" transform="scale(0.015625)"/>
       <path id="DejaVuSans-28" d="M 1984 4856 
Q 1566 4138 1362 3434 
Q 1159 2731 1159 2009 
Q 1159 1288 1364 580 
Q 1569 -128 1984 -844 
L 1484 -844 
Q 1016 -109 783 600 
Q 550 1309 550 2009 
Q 550 2706 781 3412 
Q 1013 4119 1484 4856 
L 1984 4856 
z
" transform="scale(0.015625)"/>
       <path id="DejaVuSans-25" d="M 4653 2053 
Q 4381 2053 4226 1822 
Q 4072 1591 4072 1178 
Q 4072 772 4226 539 
Q 4381 306 4653 306 
Q 4919 306 5073 539 
Q 5228 772 5228 1178 
Q 5228 1588 5073 1820 
Q 4919 2053 4653 2053 
z
M 4653 2450 
Q 5147 2450 5437 2106 
Q 5728 1763 5728 1178 
Q 5728 594 5436 251 
Q 5144 -91 4653 -91 
Q 4153 -91 3862 251 
Q 3572 594 3572 1178 
Q 3572 1766 3864 2108 
Q 4156 2450 4653 2450 
z
M 1428 4353 
Q 1159 4353 1004 4120 
Q 850 3888 850 3481 
Q 850 3069 1003 2837 
Q 1156 2606 1428 2606 
Q 1700 2606 1854 2837 
Q 2009 3069 2009 3481 
Q 2009 3884 1853 4118 
Q 1697 4353 1428 4353 
z
M 4250 4750 
L 4750 4750 
L 1831 -91 
L 1331 -91 
L 4250 4750 
z
M 1428 4750 
Q 1922 4750 2215 4408 
Q 2509 4066 2509 3481 
Q 2509 2891 2217 2550 
Q 1925 2209 1428 2209 
Q 931 2209 642 2551 
Q 353 2894 353 3481 
Q 353 4063 643 4406 
Q 934 4750 1428 4750 
z
" transform="scale(0.015625)"/>
       <path id="DejaVuSans-29" d="M 513 4856 
L 1013 4856 
Q 1481 4119 1714 3412 
Q 1947 2706 1947 2009 
Q 1947 1309 1714 600 
Q 1481 -109 1013 -844 
L 513 -844 
Q 928 -128 1133 580 
Q 1338 1288 1338 2009 
Q 1338 2731 1133 3434 
Q 928 4138 513 4856 
z
" transform="scale(0.015625)"/>
      </defs>
      <use xlink:href="#DejaVuSans-48"/>
      <use xlink:href="#DejaVuSans-6f" x="75.195312"/>
      <use xlink:href="#DejaVuSans-6c" x="136.376953"/>
      <use xlink:href="#DejaVuSans-64" x="164.160156"/>
      <use xlink:href="#DejaVuSans-69" x="227.636719"/>
      <use xlink:href="#DejaVuSans-6e" x="255.419922"/>
      <use xlink:href="#DejaVuSans-67" x="318.798828"/>
      <use xlink:href="#DejaVuSans-20" x="382.275391"/>
      <use xlink:href="#DejaVuSans-50" x="414.0625"/>
      <use xlink:href="#DejaVuSans-65" x="470.740234"/>
      <use xlink:href="#DejaVuSans-72" x="532.263672"/>
      <use xlink:href="#DejaVuSans-69" x="573.376953"/>
      <use xlink:href="#DejaVuSans-6f" x="601.160156"/>
      <use xlink:href="#DejaVuSans-64" x="662.341797"/>
      <use xlink:href="#DejaVuSans-20" x="725.818359"/>
      <use xlink:href="#DejaVuSans-52" x="757.605469"/>
      <use xlink:href="#DejaVuSans-65" x="822.587891"/>
      <use xlink:href="#DejaVuSans-74" x="884.111328"/>
      <use xlink:href="#DejaVuSans-75" x="923.320312"/>
      <use xlink:href="#DejaVuSans-72" x="986.699219"/>
      <use xlink:href="#DejaVuSans-6e" x="1026.0625"/>
      <use xlink:href="#DejaVuSans-20" x="1089.441406"/>
      <use xlink:href="#DejaVuSans-28" x="1121.228516"/>
      <use xlink:href="#DejaVuSans-25" x="1160.242188"/>
      <use xlink:href="#DejaVuSans-29" x="1255.261719"/>
     </g>
    </g>
   </g>
   <g id="line2d_37">
    <path d="M 74.346449 283.60077 
L 87.307602 283.60077 
L 87.754539 282.361618 
L 92.223902 281.010807 
L 93.117774 278.488582 
L 93.564711 277.973887 
L 94.011647 278.161019 
L 95.352456 277.498752 
L 95.799392 278.629787 
L 96.246329 278.590097 
L 96.693265 279.395468 
L 97.140201 279.851219 
L 98.48101 278.780034 
L 99.374883 277.874717 
L 99.821819 278.822553 
L 100.268756 276.677741 
L 101.609565 275.242703 
L 102.056501 274.55535 
L 102.503437 272.815937 
L 102.950374 272.468862 
L 103.39731 272.738385 
L 104.738119 272.234793 
L 105.185055 270.604901 
L 105.631992 270.084529 
L 106.078928 268.980003 
L 106.525864 269.369563 
L 107.866673 268.469337 
L 108.313609 268.998214 
L 108.760546 268.573104 
L 109.207482 269.95572 
L 109.654418 269.983022 
L 110.995227 272.876537 
L 111.442164 273.262466 
L 111.8891 272.18739 
L 112.336036 271.765395 
L 112.782973 271.694339 
L 114.123782 272.464631 
L 114.570718 272.232382 
L 115.017654 271.549705 
L 115.911527 268.161534 
L 117.252336 267.809999 
L 117.699272 268.998754 
L 118.146209 269.320967 
L 118.593145 268.75391 
L 119.040081 268.860826 
L 120.827827 269.787355 
L 121.274763 270.38878 
L 121.721699 271.280389 
L 122.168635 270.558142 
L 123.509444 271.902172 
L 123.956381 271.572289 
L 124.403317 270.518555 
L 124.850253 270.9697 
L 125.29719 270.465054 
L 127.978808 271.769013 
L 129.766553 274.599211 
L 130.213489 274.085913 
L 131.107362 276.066029 
L 131.554298 275.076113 
L 132.895107 275.155968 
L 133.342044 275.032239 
L 133.78898 273.914541 
L 134.235916 274.445393 
L 134.682853 274.633 
L 136.023662 274.206631 
L 136.470598 274.468538 
L 136.917534 275.356334 
L 137.36447 275.204008 
L 137.811407 276.097817 
L 139.152216 276.045136 
L 139.599152 275.057834 
L 140.046088 274.568181 
L 140.493025 274.517958 
L 140.939961 276.014909 
L 142.28077 278.036251 
L 142.727706 278.301298 
L 143.174643 277.547384 
L 143.621579 277.623503 
L 144.068515 275.910634 
L 145.409324 276.220399 
L 145.856261 276.534039 
L 146.303197 276.628317 
L 146.750133 277.469159 
L 147.19707 278.002298 
L 148.537879 279.150611 
L 148.984815 279.331732 
L 149.431751 279.18202 
L 149.878688 278.115019 
L 150.325624 278.027469 
L 151.666433 278.677496 
L 152.113369 279.052046 
L 152.560305 278.846444 
L 153.007242 279.813327 
L 153.454178 279.05566 
L 154.794987 278.287078 
L 155.241923 278.591245 
L 155.68886 278.492947 
L 156.135796 278.229807 
L 156.582732 277.631194 
L 157.923541 277.606385 
L 158.370478 276.931281 
L 159.26435 276.350491 
L 159.711287 276.547371 
L 161.052096 275.783632 
L 161.499032 275.678735 
L 161.945968 276.479335 
L 162.392905 276.744752 
L 162.839841 276.246939 
L 164.18065 277.120148 
L 164.627586 276.966253 
L 165.074523 278.009247 
L 165.521459 277.93292 
L 165.968395 277.730415 
L 167.309204 277.679942 
L 167.75614 279.161805 
L 168.203077 279.03661 
L 169.096949 277.979553 
L 170.437758 277.956986 
L 170.884695 278.906892 
L 171.331631 278.498492 
L 171.778567 276.565071 
L 172.225504 277.292398 
L 173.566313 277.306546 
L 174.013249 278.58103 
L 174.460185 278.14468 
L 174.907122 277.537337 
L 175.354058 277.794965 
L 176.694867 277.661747 
L 177.141803 276.621488 
L 177.58874 277.127755 
L 178.035676 276.813986 
L 178.482612 277.325489 
L 179.823421 277.918642 
L 180.270358 277.753014 
L 180.717294 278.64961 
L 181.16423 278.476184 
L 181.611167 277.413237 
L 183.398912 277.814518 
L 183.845848 278.824999 
L 184.292784 279.104952 
L 184.739721 279.979265 
L 186.08053 280.977695 
L 186.527466 282.550213 
L 186.974402 282.397741 
L 187.421339 281.648753 
L 187.868275 281.287867 
L 189.209084 280.515225 
L 189.65602 280.782324 
L 190.102957 280.392954 
L 190.549893 280.385889 
L 190.996829 279.983881 
L 192.784575 281.669146 
L 193.678447 280.457695 
L 194.125384 280.320406 
L 195.913129 280.507041 
L 196.360065 281.657995 
L 197.253938 280.89096 
L 198.594747 280.56577 
L 199.041683 280.786813 
L 199.488619 280.838873 
L 199.935556 281.066412 
L 200.382492 281.020632 
L 201.723301 281.380491 
L 202.170237 281.25383 
L 202.617174 280.923593 
L 203.06411 280.872197 
L 203.511046 280.092395 
L 204.851855 280.566227 
L 205.745728 281.755585 
L 206.192664 281.891814 
L 206.639601 282.625033 
L 207.98041 282.133698 
L 208.427346 282.563483 
L 208.874282 282.502521 
L 209.321219 283.74808 
L 209.768155 284.124587 
L 211.108964 284.610651 
L 211.5559 284.360735 
L 212.002837 283.488683 
L 212.449773 284.071492 
L 212.896709 284.109198 
L 214.237518 284.768023 
L 214.684454 284.005603 
L 215.131391 284.766246 
L 215.578327 285.226094 
L 216.025263 285.169816 
L 217.366072 285.38721 
L 217.813009 285.912067 
L 218.259945 285.414892 
L 218.706881 285.375495 
L 219.153818 286.632269 
L 220.494627 287.603802 
L 221.388499 287.797232 
L 221.835436 288.393809 
L 223.623181 289.373094 
L 224.070117 289.863669 
L 224.517054 289.123497 
L 224.96399 289.298415 
L 225.410926 289.268154 
L 226.751735 288.828491 
L 227.198672 288.834081 
L 227.645608 289.087922 
L 228.539481 287.905016 
L 229.880289 287.51719 
L 230.774162 289.241187 
L 231.668035 289.290927 
L 233.008844 289.521649 
L 233.45578 290.222546 
L 233.902716 289.376821 
L 234.796589 288.938849 
L 236.137398 290.40615 
L 236.584334 290.14822 
L 237.478207 290.358221 
L 237.925143 290.227488 
L 239.712889 291.493742 
L 240.159825 293.695142 
L 240.606761 293.259474 
L 241.053698 293.25975 
L 242.394507 293.724748 
L 242.841443 293.620817 
L 243.288379 294.208147 
L 243.735316 293.923294 
L 244.182252 293.812168 
L 245.523061 293.681918 
L 245.969997 293.147934 
L 246.416933 291.525444 
L 249.992424 294.441112 
L 250.43936 297.694814 
L 251.780169 302.186122 
L 252.227106 302.858784 
L 252.674042 302.472002 
L 253.120978 299.72228 
L 253.567915 299.001336 
L 254.908724 298.971377 
L 255.35566 298.096313 
L 255.802596 296.081502 
L 256.249533 296.00194 
L 256.696469 295.712472 
L 258.037278 296.691294 
L 258.484214 296.583844 
L 258.931151 295.801963 
L 259.378087 294.234526 
L 259.825023 294.91986 
L 261.165832 299.607454 
L 261.612768 298.93411 
L 262.059705 300.044304 
L 262.506641 298.648404 
L 262.953577 300.589951 
L 264.294386 300.975151 
L 264.741323 299.784136 
L 265.188259 299.601688 
L 265.635195 299.19723 
L 266.082132 298.560669 
L 267.422941 307.610693 
L 267.869877 306.67477 
L 268.316813 310.089053 
L 268.76375 316.529629 
L 269.210686 319.360059 
L 270.551495 320.105269 
L 271.445368 317.397533 
L 271.892304 320.086274 
L 272.33924 320.540506 
L 273.680049 328.156069 
L 274.126986 328.44301 
L 274.573922 325.241074 
L 275.020858 326.910812 
L 275.467794 327.996317 
L 276.808603 332.602373 
L 277.25554 333.26295 
L 277.702476 330.835491 
L 278.596349 327.516185 
L 280.384094 320.317425 
L 280.83103 319.100143 
L 281.277967 316.920998 
L 281.724903 317.243246 
L 283.065712 316.129473 
L 283.512648 315.523338 
L 283.959585 312.868999 
L 284.406521 312.078017 
L 284.853457 308.886209 
L 286.194266 306.497977 
L 286.641203 311.596723 
L 287.088139 309.393407 
L 287.535075 308.844121 
L 287.982012 307.814144 
L 289.769757 306.025603 
L 290.216693 304.577677 
L 292.451375 306.060128 
L 292.898311 304.950771 
L 293.345247 302.928765 
L 294.23912 301.403244 
L 295.579929 299.73185 
L 296.026865 297.241956 
L 296.473802 296.544002 
L 296.920738 296.837999 
L 297.367674 298.447791 
L 298.708483 297.729202 
L 299.15542 296.60663 
L 299.602356 295.789993 
L 300.049292 295.344111 
L 300.496229 296.116597 
L 301.837038 293.955448 
L 302.283974 291.009656 
L 302.73091 292.373674 
L 303.177847 292.562264 
L 304.965592 289.777171 
L 305.412528 291.123659 
L 305.859464 290.607679 
L 306.306401 288.972283 
L 306.753337 286.895103 
L 308.094146 284.583543 
L 308.541082 284.057564 
L 308.988019 283.050465 
L 309.434955 288.614097 
L 309.881891 290.03623 
L 311.2227 293.79909 
L 311.669637 291.383512 
L 312.563509 290.013776 
L 313.010446 287.202324 
L 314.351255 286.06588 
L 314.798191 286.108494 
L 315.245127 287.464222 
L 316.139 289.47227 
L 317.479809 294.475254 
L 317.926745 294.631366 
L 318.373682 292.014893 
L 318.820618 292.004645 
L 319.267554 291.431074 
L 320.608363 290.351047 
L 321.055299 290.275514 
L 321.502236 289.866027 
L 321.949172 287.710286 
L 323.736917 287.557538 
L 324.63079 286.405429 
L 325.077726 286.20175 
L 325.524663 286.245383 
L 326.865472 287.309106 
L 328.206281 289.370672 
L 328.653217 295.12211 
L 329.994026 303.234209 
L 330.440962 297.867199 
L 330.887899 302.263643 
L 331.334835 301.0387 
L 331.781771 301.418073 
L 333.12258 298.163703 
L 333.569517 295.965097 
L 334.016453 294.405614 
L 334.463389 294.099954 
L 334.910326 292.948966 
L 336.698071 290.87019 
L 337.145007 290.19645 
L 337.591943 288.224236 
L 338.03888 288.387646 
L 339.379689 287.857993 
L 339.826625 286.465569 
L 340.273561 285.499816 
L 340.720498 285.485367 
L 341.167434 283.808176 
L 342.508243 281.369894 
L 343.849052 277.066754 
L 344.295988 276.447886 
L 345.636797 276.825732 
L 346.083734 276.086828 
L 346.977606 276.336192 
L 347.424543 276.604741 
L 348.765352 277.023398 
L 349.212288 275.491192 
L 349.659224 274.861929 
L 350.106161 273.978455 
L 350.553097 272.304629 
L 352.340842 270.093955 
L 352.787778 269.825026 
L 353.234715 269.889543 
L 353.681651 269.295614 
L 355.02246 269.295054 
L 355.469396 269.741152 
L 355.916333 269.375866 
L 356.363269 270.238947 
L 356.810205 269.988367 
L 358.151014 268.680922 
L 358.597951 269.73507 
L 359.044887 268.611108 
L 359.491823 266.676679 
L 359.93876 267.120542 
L 361.279569 264.448131 
L 361.726505 263.089721 
L 362.173441 262.896989 
L 362.620378 263.015853 
L 363.067314 262.703154 
L 364.408123 264.101616 
L 364.855059 263.782991 
L 365.748932 265.768455 
L 366.195868 266.072976 
L 367.983613 265.64935 
L 368.43055 266.530694 
L 369.324422 265.168247 
L 370.665231 267.224448 
L 371.112168 269.235972 
L 371.559104 273.433042 
L 373.793786 270.754015 
L 374.240722 269.531893 
L 374.687658 267.286507 
L 375.134595 267.932608 
L 375.581531 267.779135 
L 376.92234 264.591063 
L 377.816213 263.387824 
L 378.263149 262.167454 
L 378.710085 261.506248 
L 380.050894 262.508612 
L 380.944767 258.597447 
L 381.838639 255.142482 
L 383.179448 254.469423 
L 383.626385 254.39251 
L 384.520257 255.027673 
L 384.967194 253.854851 
L 386.308003 254.004062 
L 386.754939 252.537398 
L 387.201875 251.614794 
L 387.648812 249.506636 
L 388.095748 249.622644 
L 389.436557 247.614682 
L 389.883493 246.325577 
L 390.33043 244.480853 
L 390.777366 246.074557 
L 391.224302 245.268789 
L 393.012048 241.296705 
L 393.458984 239.579436 
L 393.90592 239.928357 
L 394.352857 237.813954 
L 395.693666 235.484356 
L 396.140602 232.491197 
L 396.587538 230.859226 
L 397.034474 235.073187 
L 397.481411 230.916808 
L 398.82222 228.678055 
L 399.269156 226.72085 
L 399.716092 227.041684 
L 400.163029 224.826783 
L 401.950774 220.919621 
L 402.844647 218.180286 
L 403.738519 213.009984 
L 405.079328 210.948599 
L 405.526265 207.851112 
L 405.973201 207.774622 
L 406.867074 202.640861 
L 408.207883 201.670234 
L 408.654819 213.931691 
L 409.101755 214.287617 
L 409.548692 207.282959 
L 409.995628 205.670208 
L 411.336437 203.103763 
L 411.783373 208.504546 
L 412.230309 215.637892 
L 412.677246 231.968463 
L 413.124182 225.502534 
L 414.464991 231.642182 
L 414.911927 228.787331 
L 415.358864 221.421235 
L 415.8058 220.856128 
L 416.252736 218.242781 
L 417.593545 223.794681 
L 418.040482 219.397599 
L 421.615972 211.735885 
L 422.062909 208.920612 
L 422.509845 207.4199 
L 423.850654 206.705115 
L 424.29759 205.705383 
L 424.744527 207.530646 
L 425.638399 202.9146 
L 426.979208 200.405585 
L 427.873081 192.258833 
L 428.320017 194.594745 
L 428.766953 192.028422 
L 430.107762 187.036005 
L 430.554699 186.664897 
L 431.001635 185.266779 
L 431.448571 183.046461 
L 431.895508 182.597809 
L 433.236317 179.350344 
L 433.683253 179.313242 
L 434.130189 177.001294 
L 434.577126 177.058357 
L 435.024062 176.086359 
L 436.364871 174.74207 
L 436.811807 175.521018 
L 437.258744 180.099332 
L 437.70568 180.470009 
L 438.152616 182.338551 
L 439.493425 177.85191 
L 439.940362 175.886467 
L 440.387298 174.744701 
L 440.834234 174.566309 
L 441.281171 171.989374 
L 442.62198 172.699915 
L 443.068916 173.299114 
L 443.515852 171.262331 
L 443.962788 171.01986 
L 444.409725 169.825749 
L 445.750534 168.81588 
L 446.19747 172.41068 
L 446.644406 171.05861 
L 447.091343 174.203335 
L 447.538279 179.152421 
L 448.879088 176.696809 
L 449.326024 178.308551 
L 450.219897 185.143872 
L 450.666833 182.379106 
L 452.007642 187.558776 
L 452.454579 186.825997 
L 452.901515 183.984145 
L 453.348451 182.833364 
L 455.583133 184.763382 
L 456.030069 181.476261 
L 456.477006 182.823776 
L 456.923942 184.872187 
L 458.264751 184.924446 
L 458.711687 183.548636 
L 459.158623 180.634944 
L 459.60556 182.417092 
L 460.052496 181.815753 
L 461.393305 183.217477 
L 461.840241 184.380766 
L 462.734114 188.210678 
L 463.18105 184.730438 
L 464.968796 180.676394 
L 465.415732 182.06893 
L 465.862668 184.641957 
L 466.309605 182.090703 
L 468.09735 182.995589 
L 468.544286 180.568962 
L 468.991223 176.477971 
L 469.438159 173.996212 
L 470.778968 173.3991 
L 471.225904 176.28863 
L 471.672841 175.918833 
L 472.119777 176.640777 
L 472.566713 174.068432 
L 473.907522 172.899199 
L 474.354458 170.539236 
L 474.801395 169.448202 
L 475.695267 164.145942 
L 477.036076 163.711283 
L 477.483013 163.884208 
L 477.929949 167.069641 
L 478.376885 169.157863 
L 478.823822 167.967254 
L 480.164631 166.446072 
L 481.058503 168.187943 
L 481.50544 166.659941 
L 481.952376 165.968905 
L 483.293185 168.023156 
L 483.740121 174.575393 
L 484.187058 175.235219 
L 484.633994 175.678375 
L 486.421739 190.264684 
L 486.868676 187.145985 
L 487.315612 188.531983 
L 488.209485 185.166413 
L 489.550293 191.07323 
L 489.99723 187.738939 
L 490.444166 186.435143 
L 490.891102 182.917041 
L 491.338039 183.558096 
L 492.678848 180.473203 
L 493.125784 180.186634 
L 493.57272 180.874358 
L 494.019657 179.407807 
L 494.466593 176.373629 
L 495.807402 174.565254 
L 496.254338 172.368046 
L 496.701275 171.313337 
L 497.595147 167.519966 
L 498.935956 161.971569 
L 499.382893 158.2435 
L 499.829829 156.074457 
L 500.276765 154.684655 
L 500.723702 152.610356 
L 502.064511 148.459273 
L 502.511447 149.956854 
L 502.958383 148.732576 
L 503.40532 145.939524 
L 503.852256 151.823144 
L 505.193065 155.771997 
L 505.640001 157.461386 
L 506.533874 151.944405 
L 506.98081 146.210842 
L 508.768555 134.688229 
L 509.215492 142.853 
L 511.450173 123.425641 
L 511.89711 129.879243 
L 512.344046 130.742186 
L 512.790982 127.169962 
L 513.237919 126.010244 
L 514.578728 125.456247 
L 515.025664 125.435363 
L 515.4726 121.117342 
L 515.919537 119.852226 
L 516.366473 114.213579 
L 517.707282 114.863709 
L 518.154218 113.790307 
L 518.601155 108.64729 
L 519.048091 110.50102 
L 519.495027 114.50874 
L 520.835836 123.4524 
L 521.729709 115.972117 
L 522.176645 113.895799 
L 522.623581 114.406845 
L 524.411327 108.501356 
L 524.858263 103.768327 
L 525.305199 100.844827 
L 525.752136 101.040517 
L 527.092945 101.052775 
L 527.539881 100.161261 
L 527.986817 98.426377 
L 528.433754 95.45443 
L 528.88069 93.935362 
L 530.668435 93.972895 
L 531.562308 87.831716 
L 532.009244 84.243921 
L 533.350053 83.28959 
L 533.79699 80.375458 
L 534.243926 74.185893 
L 535.137798 65.614411 
L 536.478607 68.212739 
L 536.925544 59.408749 
L 537.37248 67.630499 
L 537.819416 64.445264 
L 538.266353 60.109568 
L 540.054098 54.598747 
L 540.501034 49.296435 
L 540.947971 46.930735 
L 541.394907 45.346166 
L 542.735716 42.322142 
L 543.182652 41.669597 
L 544.076525 37.438125 
L 544.523461 47.900888 
L 545.86427 61.693317 
L 546.311207 55.269183 
L 546.758143 52.705283 
L 547.205079 49.475122 
L 547.652016 51.168789 
L 548.992825 48.490857 
L 549.439761 46.181557 
L 549.886697 45.483029 
L 550.333633 45.825446 
L 550.78057 54.220931 
L 552.121379 67.395778 
L 552.568315 59.346324 
L 553.015251 59.049576 
L 553.462188 54.357927 
L 553.909124 53.535709 
L 555.249933 47.231172 
L 555.696869 46.690589 
L 556.143806 47.879671 
L 556.590742 46.374258 
L 557.037678 46.969602 
L 558.378487 50.219569 
L 558.825424 48.180052 
L 559.27236 47.314995 
L 559.719296 51.763913 
L 560.166233 52.374792 
L 561.507042 49.891222 
L 561.953978 49.384221 
L 562.400914 49.87019 
L 562.847851 50.968143 
L 563.294787 51.156829 
L 565.082532 47.598365 
L 565.529468 46.021155 
L 565.976405 45.782807 
L 566.423341 44.17687 
L 568.211086 50.526515 
L 568.658023 52.612512 
L 569.104959 57.510202 
L 569.551895 58.098135 
L 570.892704 68.94957 
L 571.339641 74.281505 
L 571.786577 72.056062 
L 572.233513 65.007462 
L 572.68045 65.253056 
L 574.021259 76.333151 
L 574.468195 73.402309 
L 574.915131 74.316744 
L 575.362068 75.552348 
L 575.809004 73.143499 
L 580.278367 66.887244 
L 581.17224 58.269413 
L 581.619176 57.268533 
L 581.619176 57.268533 
" clip-path="url(#pbcf9de57b1)" style="fill: none; stroke: #000000; stroke-width: 1.5; stroke-linecap: square"/>
   </g>
   <g id="line2d_38">
    <path d="M 74.346449 283.60077 
L 74.793385 286.872858 
L 76.58113 284.111051 
L 77.028067 284.643098 
L 77.475003 282.333531 
L 77.921939 282.016721 
L 78.368876 280.950209 
L 79.709685 281.170283 
L 80.156621 279.264588 
L 80.603557 279.50159 
L 81.050494 281.148517 
L 81.49743 281.049363 
L 82.838239 278.933267 
L 83.285175 280.021545 
L 83.732112 279.627347 
L 84.179048 279.479825 
L 84.625984 279.458059 
L 85.966793 278.659989 
L 86.41373 277.753091 
L 86.860666 277.774856 
L 87.307602 279.030003 
L 87.754539 279.508845 
L 92.223902 275.293583 
L 92.670838 272.526939 
L 93.564711 268.947715 
L 94.011647 269.298382 
L 95.799392 266.043223 
L 96.246329 264.536562 
L 96.693265 260.42771 
L 97.140201 260.103645 
L 98.48101 258.768691 
L 98.927947 260.551048 
L 99.374883 259.774743 
L 99.821819 265.772362 
L 100.268756 262.347915 
L 101.609565 258.8751 
L 102.056501 259.247533 
L 102.503437 258.75418 
L 102.950374 258.865426 
L 103.39731 260.988777 
L 104.738119 261.145973 
L 105.185055 257.102417 
L 106.078928 255.380519 
L 106.525864 256.425266 
L 107.866673 254.553428 
L 108.760546 256.865414 
L 109.207482 261.82796 
L 109.654418 260.152012 
L 110.995227 264.659901 
L 111.442164 264.727616 
L 112.336036 261.537753 
L 112.782973 262.074636 
L 114.123782 260.195544 
L 114.570718 260.853347 
L 115.017654 261.17983 
L 115.911527 260.019001 
L 117.252336 258.011733 
L 117.699272 260.207636 
L 118.146209 261.796521 
L 118.593145 260.819489 
L 119.040081 261.5571 
L 120.827827 262.94284 
L 121.274763 264.168966 
L 121.721699 266.538993 
L 122.168635 265.593401 
L 123.509444 265.678045 
L 123.956381 265.160508 
L 124.403317 263.0033 
L 124.850253 263.678032 
L 125.29719 262.345497 
L 127.978808 262.621194 
L 128.425744 263.675614 
L 129.766553 267.586158 
L 130.213489 267.685313 
L 130.660426 269.218575 
L 131.107362 270.236719 
L 131.554298 268.896929 
L 132.895107 267.44831 
L 133.342044 265.803801 
L 133.78898 263.312855 
L 134.235916 263.300763 
L 134.682853 263.109709 
L 136.023662 260.534119 
L 136.470598 260.737264 
L 136.917534 261.344281 
L 137.36447 261.603049 
L 137.811407 264.669574 
L 139.152216 263.433774 
L 139.599152 264.19315 
L 140.046088 264.304397 
L 140.493025 264.836443 
L 140.939961 267.124245 
L 142.28077 270.367313 
L 142.727706 269.233085 
L 143.174643 269.172626 
L 143.621579 269.946512 
L 144.068515 267.511188 
L 145.409324 266.39389 
L 145.856261 266.594617 
L 146.303197 268.505149 
L 146.750133 269.494272 
L 147.19707 268.640579 
L 148.537879 270.25123 
L 148.984815 270.962238 
L 149.431751 269.588589 
L 149.878688 267.293533 
L 150.325624 267.288696 
L 151.666433 266.405982 
L 152.113369 267.063785 
L 152.560305 267.305625 
L 153.007242 271.179893 
L 153.454178 269.52813 
L 154.794987 265.738505 
L 155.241923 266.616382 
L 155.68886 267.000907 
L 156.135796 263.941637 
L 156.582732 263.385406 
L 157.923541 265.559544 
L 158.370478 264.906577 
L 159.26435 262.589755 
L 159.711287 263.370896 
L 161.052096 264.064975 
L 161.499032 261.748153 
L 161.945968 261.636907 
L 162.392905 263.2137 
L 162.839841 261.69253 
L 164.18065 261.765082 
L 164.627586 259.970633 
L 165.074523 260.224564 
L 165.521459 258.642934 
L 165.968395 259.029877 
L 167.309204 257.919834 
L 167.75614 260.802561 
L 168.650013 258.052846 
L 170.884695 265.980344 
L 171.331631 265.661116 
L 171.778567 263.40959 
L 172.225504 263.627246 
L 173.566313 263.392662 
L 174.013249 265.443461 
L 174.460185 264.940434 
L 174.907122 262.408375 
L 175.354058 262.258434 
L 176.694867 262.00934 
L 177.141803 261.129044 
L 177.58874 258.780783 
L 178.035676 258.084285 
L 178.482612 259.247533 
L 179.823421 261.561937 
L 180.270358 263.034739 
L 180.717294 262.921075 
L 181.16423 262.599428 
L 181.611167 261.276566 
L 183.398912 262.413212 
L 183.845848 262.831594 
L 184.292784 263.034739 
L 184.739721 263.690124 
L 186.08053 263.680451 
L 186.527466 264.613951 
L 186.974402 264.843699 
L 187.421339 263.208864 
L 187.868275 260.512353 
L 189.209084 259.873897 
L 189.65602 258.210041 
L 190.102957 258.594566 
L 190.549893 258.122979 
L 190.996829 259.752977 
L 192.337638 260.867857 
L 192.784575 260.292279 
L 193.231511 260.493006 
L 193.678447 259.65866 
L 194.125384 257.944018 
L 195.466193 258.253572 
L 195.913129 257.520799 
L 196.360065 259.552251 
L 196.807002 259.247533 
L 197.253938 260.422873 
L 198.594747 261.51115 
L 199.041683 260.270514 
L 199.935556 260.473659 
L 200.382492 259.395055 
L 201.723301 258.976673 
L 202.170237 259.102429 
L 202.617174 258.761435 
L 203.06411 259.883571 
L 203.511046 260.033511 
L 204.851855 261.397486 
L 205.298792 260.519609 
L 205.745728 260.374505 
L 206.192664 258.969417 
L 206.639601 258.251154 
L 207.98041 258.27292 
L 208.427346 258.420442 
L 208.874282 257.206407 
L 209.321219 257.707015 
L 209.768155 253.651367 
L 211.5559 251.535271 
L 212.002837 251.397423 
L 212.449773 251.610242 
L 212.896709 251.982674 
L 214.237518 253.370833 
L 214.684454 252.988727 
L 215.131391 254.333354 
L 215.578327 254.447019 
L 217.366072 256.717892 
L 217.813009 255.402285 
L 218.259945 257.286215 
L 219.153818 262.795318 
L 220.494627 263.141149 
L 220.941563 263.034739 
L 221.388499 262.701001 
L 221.835436 264.582512 
L 222.282372 264.49545 
L 223.623181 267.262094 
L 224.070117 268.68411 
L 224.517054 265.668371 
L 224.96399 266.304409 
L 225.410926 266.234276 
L 226.751735 265.629677 
L 227.198672 267.022672 
L 227.645608 266.66475 
L 228.092544 265.119396 
L 228.539481 265.600656 
L 229.880289 266.73972 
L 230.327226 268.539006 
L 230.774162 269.240341 
L 231.221098 268.967062 
L 231.668035 267.963428 
L 233.008844 267.233073 
L 233.45578 267.366085 
L 233.902716 266.872732 
L 234.349653 267.436218 
L 234.796589 266.246368 
L 236.137398 265.878772 
L 236.584334 266.855803 
L 237.478207 265.482155 
L 237.925143 265.852169 
L 239.265952 268.113369 
L 239.712889 267.366085 
L 240.159825 269.760295 
L 241.053698 265.029915 
L 242.394507 265.682882 
L 242.841443 265.402348 
L 243.288379 265.266918 
L 243.735316 263.634501 
L 244.182252 262.509948 
L 245.523061 262.589755 
L 245.969997 260.717917 
L 246.416933 259.486954 
L 249.992424 267.196797 
L 250.43936 272.749432 
L 251.780169 274.800231 
L 252.227106 274.570483 
L 252.674042 275.339533 
L 253.120978 272.2851 
L 253.567915 271.750635 
L 254.908724 274.173866 
L 255.802596 272.493082 
L 256.249533 272.357652 
L 258.037278 273.196835 
L 258.484214 274.851017 
L 258.931151 274.65029 
L 259.378087 272.384254 
L 259.825023 273.603125 
L 261.165832 280.79785 
L 261.612768 279.267006 
L 262.059705 282.580207 
L 262.506641 281.982863 
L 262.953577 285.912755 
L 264.294386 285.371035 
L 264.741323 283.876467 
L 265.188259 284.176348 
L 265.635195 283.2235 
L 266.082132 283.67574 
L 267.422941 297.206659 
L 267.869877 296.720562 
L 268.316813 303.044665 
L 268.76375 313.226107 
L 269.210686 315.032648 
L 270.551495 318.399054 
L 270.998431 318.90208 
L 271.445368 318.447422 
L 271.892304 323.700176 
L 272.33924 327.620394 
L 273.680049 338.05335 
L 274.126986 339.838125 
L 274.573922 332.331427 
L 275.020858 331.373743 
L 275.467794 330.92634 
L 276.808603 339.100515 
L 277.25554 339.035218 
L 277.702476 334.754659 
L 280.384094 318.682006 
L 280.83103 318.36036 
L 281.277967 315.383316 
L 281.724903 315.961312 
L 283.065712 314.062872 
L 283.512648 313.671092 
L 283.959585 311.298647 
L 284.406521 310.457045 
L 284.853457 308.304674 
L 286.194266 307.005996 
L 286.641203 313.808941 
L 287.088139 313.305914 
L 287.535075 312.099135 
L 287.982012 311.434077 
L 289.322821 312.858511 
L 289.769757 313.71946 
L 290.216693 313.259965 
L 292.451375 314.865779 
L 292.898311 314.45707 
L 293.792184 306.626308 
L 294.23912 302.469087 
L 295.579929 298.93823 
L 296.026865 297.247772 
L 296.473802 297.516214 
L 296.920738 297.953943 
L 297.367674 299.252622 
L 298.708483 296.839063 
L 300.049292 290.618952 
L 300.496229 293.034928 
L 301.837038 291.511339 
L 302.283974 289.071179 
L 302.73091 291.888609 
L 303.624783 290.198151 
L 304.965592 286.76403 
L 305.412528 287.699949 
L 305.859464 286.159431 
L 306.753337 284.938142 
L 308.094146 281.624941 
L 308.541082 281.743442 
L 308.988019 281.605594 
L 309.434955 289.496816 
L 309.881891 290.427898 
L 311.2227 297.937015 
L 311.669637 292.215092 
L 312.116573 292.623801 
L 312.563509 292.423074 
L 313.010446 289.209027 
L 314.351255 288.551224 
L 314.798191 289.29609 
L 315.245127 291.349307 
L 315.692064 292.587525 
L 316.139 293.218726 
L 317.479809 298.689135 
L 317.926745 299.716953 
L 318.373682 295.271943 
L 318.820618 295.540385 
L 319.267554 294.275565 
L 320.608363 290.99864 
L 321.055299 290.452082 
L 321.502236 290.190896 
L 321.949172 287.298495 
L 322.396108 288.568153 
L 324.183854 289.317855 
L 324.63079 288.882544 
L 325.077726 287.209015 
L 325.524663 288.372263 
L 326.865472 290.940598 
L 327.312408 290.870465 
L 327.759344 292.469024 
L 328.206281 292.065152 
L 328.653217 298.737503 
L 329.994026 309.376023 
L 330.440962 302.558567 
L 330.887899 308.004793 
L 331.334835 305.516264 
L 331.781771 306.178905 
L 333.12258 302.246594 
L 334.016453 296.64801 
L 334.463389 296.10629 
L 334.910326 295.762878 
L 336.251134 295.342077 
L 336.698071 295.371098 
L 337.145007 294.442434 
L 337.591943 292.476279 
L 338.03888 293.518607 
L 339.379689 293.661292 
L 339.826625 294.560935 
L 340.273561 293.404943 
L 340.720498 294.130461 
L 341.167434 292.541576 
L 342.955179 287.8644 
L 343.402116 288.021596 
L 343.849052 287.721715 
L 344.295988 286.68906 
L 345.636797 286.043348 
L 346.083734 283.605606 
L 346.977606 280.645491 
L 347.424543 281.233161 
L 348.765352 284.447208 
L 349.212288 283.990131 
L 350.106161 284.309359 
L 350.553097 284.273083 
L 352.340842 282.510073 
L 352.787778 282.217448 
L 353.234715 283.046957 
L 353.681651 281.375846 
L 355.02246 279.685388 
L 355.469396 280.108607 
L 355.916333 278.5826 
L 356.363269 279.530611 
L 356.810205 279.605581 
L 358.151014 278.5826 
L 358.597951 280.643073 
L 359.044887 280.34561 
L 359.491823 278.198075 
L 359.93876 279.208964 
L 361.726505 277.815969 
L 362.173441 276.836519 
L 362.620378 277.049338 
L 363.067314 275.801446 
L 364.408123 275.35888 
L 364.855059 274.384267 
L 365.301996 271.888483 
L 365.748932 271.264537 
L 366.195868 271.133944 
L 367.536677 271.039626 
L 367.983613 270.863084 
L 368.43055 272.166598 
L 369.324422 266.790507 
L 371.112168 270.367313 
L 371.559104 276.514873 
L 372.00604 276.991296 
L 372.452977 275.445942 
L 373.793786 273.46044 
L 374.240722 273.042057 
L 374.687658 271.990056 
L 375.134595 272.476153 
L 375.581531 272.34556 
L 376.92234 269.032359 
L 377.816213 268.976736 
L 378.710085 265.574054 
L 380.050894 269.322566 
L 380.497831 264.942853 
L 380.944767 263.823136 
L 381.391703 261.470038 
L 381.838639 259.84004 
L 383.626385 258.447044 
L 384.073321 257.436155 
L 384.520257 255.977863 
L 384.967194 254.950045 
L 386.308003 256.676779 
L 387.648812 252.633223 
L 388.095748 252.224514 
L 389.436557 250.171297 
L 389.883493 250.345421 
L 390.33043 247.958465 
L 390.777366 249.946386 
L 391.224302 246.306702 
L 392.565111 241.922152 
L 393.012048 244.055176 
L 393.458984 241.220817 
L 393.90592 244.901614 
L 394.352857 241.107153 
L 395.693666 237.813299 
L 396.140602 237.240139 
L 396.587538 238.340509 
L 397.034474 241.092642 
L 397.481411 237.005555 
L 398.82222 235.334444 
L 399.269156 233.361034 
L 399.716092 233.832621 
L 400.163029 232.301777 
L 401.950774 228.287241 
L 403.738519 216.86758 
L 405.079328 212.707941 
L 405.526265 210.920747 
L 405.973201 212.427407 
L 406.420137 212.100924 
L 406.867074 210.456415 
L 408.207883 211.002973 
L 408.654819 225.740671 
L 409.101755 224.850702 
L 409.548692 217.709182 
L 409.995628 217.087654 
L 411.336437 217.264197 
L 411.783373 224.502453 
L 412.230309 233.922101 
L 412.677246 251.632007 
L 413.124182 243.731111 
L 414.464991 248.833924 
L 415.358864 230.507328 
L 415.8058 230.289672 
L 416.252736 226.729795 
L 417.593545 237.305436 
L 418.040482 229.627032 
L 421.615972 219.747889 
L 422.062909 215.249674 
L 422.509845 215.462493 
L 423.850654 215.09006 
L 424.29759 214.461277 
L 424.744527 218.241229 
L 425.638399 216.678945 
L 426.979208 212.398386 
L 427.873081 212.209752 
L 428.320017 216.666853 
L 428.766953 216.625741 
L 430.107762 216.727313 
L 430.554699 218.250902 
L 431.001635 216.289584 
L 431.448571 213.472154 
L 431.895508 213.513267 
L 433.236317 212.787748 
L 433.683253 213.91472 
L 434.130189 212.417734 
L 434.577126 208.826417 
L 435.024062 210.492691 
L 436.364871 210.400792 
L 436.811807 213.05619 
L 437.258744 218.289596 
L 437.70568 217.977624 
L 438.152616 218.192861 
L 439.493425 214.935283 
L 439.940362 212.352437 
L 440.387298 211.123892 
L 440.834234 205.16013 
L 441.281171 203.140771 
L 443.068916 199.38984 
L 443.515852 198.804589 
L 443.962788 200.615966 
L 444.409725 201.397108 
L 445.750534 196.369265 
L 446.19747 197.365644 
L 446.644406 195.542174 
L 447.538279 199.69214 
L 449.326024 192.540946 
L 450.219897 202.325772 
L 450.666833 197.317276 
L 452.007642 205.239938 
L 452.454579 204.277416 
L 453.348451 199.527689 
L 455.583133 198.84812 
L 456.030069 195.406744 
L 456.477006 196.823923 
L 456.923942 198.942437 
L 458.264751 194.644949 
L 458.711687 195.501061 
L 459.158623 192.345056 
L 459.60556 194.062116 
L 460.052496 193.005278 
L 461.393305 194.857768 
L 461.840241 196.313642 
L 462.287178 193.941196 
L 462.734114 190.137061 
L 463.18105 188.756158 
L 464.521859 185.358313 
L 465.415732 180.831078 
L 465.862668 184.00643 
L 466.309605 179.921761 
L 467.650414 178.086199 
L 468.09735 175.733101 
L 468.544286 175.007583 
L 468.991223 169.324355 
L 469.438159 166.961583 
L 470.778968 170.654472 
L 471.225904 180.062028 
L 471.672841 176.913278 
L 472.119777 179.167222 
L 472.566713 172.357022 
L 473.907522 169.943464 
L 474.354458 168.579489 
L 474.801395 171.201029 
L 475.248331 170.378775 
L 475.695267 166.06194 
L 477.036076 167.304995 
L 477.483013 165.529893 
L 477.929949 166.279595 
L 478.376885 165.590353 
L 478.823822 163.075222 
L 480.611567 158.257779 
L 481.058503 158.61812 
L 481.50544 156.555229 
L 481.952376 155.783761 
L 483.293185 157.994174 
L 483.740121 171.619411 
L 484.187058 163.45491 
L 484.633994 166.809224 
L 485.08093 173.469483 
L 486.421739 185.764603 
L 486.868676 185.464722 
L 487.315612 189.728353 
L 487.762548 186.340181 
L 488.209485 185.036666 
L 489.550293 198.53131 
L 489.99723 191.32933 
L 490.444166 191.933929 
L 490.891102 186.400641 
L 491.338039 192.407934 
L 492.678848 191.469597 
L 493.125784 190.449034 
L 493.57272 190.415177 
L 494.466593 182.43931 
L 495.807402 181.43084 
L 496.254338 177.024524 
L 496.701275 176.468293 
L 497.148211 173.854008 
L 497.595147 174.84555 
L 498.935956 170.393285 
L 499.382893 169.771758 
L 500.276765 172.040212 
L 500.723702 171.072854 
L 502.064511 167.708867 
L 502.511447 169.612144 
L 502.958383 170.132099 
L 503.40532 166.768111 
L 503.852256 177.752461 
L 505.193065 185.145494 
L 505.640001 185.174515 
L 506.086937 182.56023 
L 506.533874 184.598937 
L 506.98081 181.677516 
L 508.321619 178.064434 
L 509.215492 176.490059 
L 511.450173 173.650863 
L 511.89711 174.736722 
L 512.344046 176.741572 
L 512.790982 174.233696 
L 513.237919 173.91205 
L 515.025664 175.268769 
L 515.4726 173.786293 
L 515.919537 173.77662 
L 516.366473 172.139366 
L 517.707282 172.66174 
L 518.154218 175.234912 
L 518.601155 172.613372 
L 519.048091 172.110346 
L 519.495027 172.49487 
L 520.835836 178.826228 
L 521.282772 175.363087 
L 521.729709 175.387271 
L 522.176645 174.698028 
L 522.623581 176.432017 
L 523.96439 175.307464 
L 524.411327 171.658106 
L 524.858263 169.67744 
L 525.305199 168.910809 
L 527.092945 162.115119 
L 527.539881 161.943413 
L 527.986817 162.642329 
L 528.433754 162.65684 
L 530.221499 161.76687 
L 530.668435 161.815238 
L 531.115372 162.185253 
L 531.562308 164.369063 
L 532.009244 163.288041 
L 533.350053 164.216705 
L 533.79699 162.710045 
L 534.243926 155.118703 
L 534.690862 151.493529 
L 535.137798 149.979614 
L 536.478607 151.261363 
L 536.925544 147.998948 
L 537.37248 149.972358 
L 537.819416 148.995327 
L 538.266353 147.019498 
L 539.607162 144.344754 
L 540.054098 145.812719 
L 540.501034 144.961444 
L 540.947971 145.607156 
L 541.394907 142.942084 
L 542.735716 142.168198 
L 543.182652 144.615614 
L 543.629589 142.342323 
L 544.076525 143.798196 
L 544.523461 148.025551 
L 545.86427 149.258932 
L 546.311207 145.297601 
L 546.758143 139.193572 
L 547.205079 136.306009 
L 547.652016 138.18752 
L 548.992825 140.168185 
L 549.439761 141.715958 
L 549.886697 140.083542 
L 550.333633 140.842918 
L 550.78057 150.209361 
L 552.121379 157.401668 
L 552.568315 149.375015 
L 553.015251 147.899794 
L 553.462188 144.245599 
L 553.909124 145.319367 
L 555.249933 142.25526 
L 556.143806 142.426966 
L 556.590742 142.158525 
L 557.037678 141.389475 
L 558.378487 141.9844 
L 558.825424 141.643406 
L 559.27236 141.902175 
L 559.719296 146.910671 
L 560.166233 142.056952 
L 561.507042 139.191154 
L 561.953978 137.858618 
L 562.400914 139.931183 
L 562.847851 139.894907 
L 563.294787 136.917863 
L 565.082532 130.315645 
L 565.529468 131.06051 
L 565.976405 129.592545 
L 566.423341 129.61431 
L 567.76415 135.604674 
L 568.211086 138.361644 
L 568.658023 133.960166 
L 569.104959 137.457165 
L 569.551895 137.46442 
L 571.339641 151.268618 
L 571.786577 150.337536 
L 572.233513 144.893729 
L 572.68045 143.058167 
L 574.021259 151.082402 
L 574.468195 141.440261 
L 574.915131 140.956582 
L 575.362068 143.573286 
L 575.809004 141.590202 
L 580.278367 137.067803 
L 580.725303 136.262478 
L 581.17224 135.200802 
L 581.619176 134.859809 
L 581.619176 134.859809 
" clip-path="url(#pbcf9de57b1)" style="fill: none; stroke: #ff0000; stroke-width: 1.5; stroke-linecap: square"/>
   </g>
   <g id="patch_3">
    <path d="M 48.982813 354.958125 
L 48.982813 22.318125 
" style="fill: none; stroke: #000000; stroke-width: 0.8; stroke-linejoin: miter; stroke-linecap: square"/>
   </g>
   <g id="patch_4">
    <path d="M 606.982813 354.958125 
L 606.982813 22.318125 
" style="fill: none; stroke: #000000; stroke-width: 0.8; stroke-linejoin: miter; stroke-linecap: square"/>
   </g>
   <g id="patch_5">
    <path d="M 48.982813 354.958125 
L 606.982812 354.958125 
" style="fill: none; stroke: #000000; stroke-width: 0.8; stroke-linejoin: miter; stroke-linecap: square"/>
   </g>
   <g id="patch_6">
    <path d="M 48.982813 22.318125 
L 606.982812 22.318125 
" style="fill: none; stroke: #000000; stroke-width: 0.8; stroke-linejoin: miter; stroke-linecap: square"/>
   </g>
   <g id="text_21">
    <!-- Holding Period Return Over Time -->
    <g transform="translate(229.68875 16.318125) scale(0.12 -0.12)">
     <defs>
      <path id="DejaVuSans-4f" d="M 2522 4238 
Q 1834 4238 1429 3725 
Q 1025 3213 1025 2328 
Q 1025 1447 1429 934 
Q 1834 422 2522 422 
Q 3209 422 3611 934 
Q 4013 1447 4013 2328 
Q 4013 3213 3611 3725 
Q 3209 4238 2522 4238 
z
M 2522 4750 
Q 3503 4750 4090 4092 
Q 4678 3434 4678 2328 
Q 4678 1225 4090 567 
Q 3503 -91 2522 -91 
Q 1538 -91 948 565 
Q 359 1222 359 2328 
Q 359 3434 948 4092 
Q 1538 4750 2522 4750 
z
" transform="scale(0.015625)"/>
      <path id="DejaVuSans-76" d="M 191 3500 
L 800 3500 
L 1894 563 
L 2988 3500 
L 3597 3500 
L 2284 0 
L 1503 0 
L 191 3500 
z
" transform="scale(0.015625)"/>
     </defs>
     <use xlink:href="#DejaVuSans-48"/>
     <use xlink:href="#DejaVuSans-6f" x="75.195312"/>
     <use xlink:href="#DejaVuSans-6c" x="136.376953"/>
     <use xlink:href="#DejaVuSans-64" x="164.160156"/>
     <use xlink:href="#DejaVuSans-69" x="227.636719"/>
     <use xlink:href="#DejaVuSans-6e" x="255.419922"/>
     <use xlink:href="#DejaVuSans-67" x="318.798828"/>
     <use xlink:href="#DejaVuSans-20" x="382.275391"/>
     <use xlink:href="#DejaVuSans-50" x="414.0625"/>
     <use xlink:href="#DejaVuSans-65" x="470.740234"/>
     <use xlink:href="#DejaVuSans-72" x="532.263672"/>
     <use xlink:href="#DejaVuSans-69" x="573.376953"/>
     <use xlink:href="#DejaVuSans-6f" x="601.160156"/>
     <use xlink:href="#DejaVuSans-64" x="662.341797"/>
     <use xlink:href="#DejaVuSans-20" x="725.818359"/>
     <use xlink:href="#DejaVuSans-52" x="757.605469"/>
     <use xlink:href="#DejaVuSans-65" x="822.587891"/>
     <use xlink:href="#DejaVuSans-74" x="884.111328"/>
     <use xlink:href="#DejaVuSans-75" x="923.320312"/>
     <use xlink:href="#DejaVuSans-72" x="986.699219"/>
     <use xlink:href="#DejaVuSans-6e" x="1026.0625"/>
     <use xlink:href="#DejaVuSans-20" x="1089.441406"/>
     <use xlink:href="#DejaVuSans-4f" x="1121.228516"/>
     <use xlink:href="#DejaVuSans-76" x="1199.939453"/>
     <use xlink:href="#DejaVuSans-65" x="1259.119141"/>
     <use xlink:href="#DejaVuSans-72" x="1320.642578"/>
     <use xlink:href="#DejaVuSans-20" x="1361.755859"/>
     <use xlink:href="#DejaVuSans-54" x="1393.542969"/>
     <use xlink:href="#DejaVuSans-69" x="1451.501953"/>
     <use xlink:href="#DejaVuSans-6d" x="1479.285156"/>
     <use xlink:href="#DejaVuSans-65" x="1576.697266"/>
    </g>
   </g>
   <g id="legend_1">
    <g id="patch_7">
     <path d="M 55.982813 59.674375 
L 133.604688 59.674375 
Q 135.604688 59.674375 135.604688 57.674375 
L 135.604688 29.318125 
Q 135.604688 27.318125 133.604688 27.318125 
L 55.982813 27.318125 
Q 53.982813 27.318125 53.982813 29.318125 
L 53.982813 57.674375 
Q 53.982813 59.674375 55.982813 59.674375 
z
" style="fill: #ffffff; opacity: 0.8; stroke: #cccccc; stroke-linejoin: miter"/>
    </g>
    <g id="line2d_39">
     <path d="M 57.982813 35.416562 
L 67.982812 35.416562 
L 77.982812 35.416562 
" style="fill: none; stroke: #000000; stroke-width: 1.5; stroke-linecap: square"/>
    </g>
    <g id="text_22">
     <!-- Portfolio -->
     <g transform="translate(85.982812 38.916562) scale(0.1 -0.1)">
      <defs>
       <path id="DejaVuSans-66" d="M 2375 4863 
L 2375 4384 
L 1825 4384 
Q 1516 4384 1395 4259 
Q 1275 4134 1275 3809 
L 1275 3500 
L 2222 3500 
L 2222 3053 
L 1275 3053 
L 1275 0 
L 697 0 
L 697 3053 
L 147 3053 
L 147 3500 
L 697 3500 
L 697 3744 
Q 697 4328 969 4595 
Q 1241 4863 1831 4863 
L 2375 4863 
z
" transform="scale(0.015625)"/>
      </defs>
      <use xlink:href="#DejaVuSans-50"/>
      <use xlink:href="#DejaVuSans-6f" x="56.677734"/>
      <use xlink:href="#DejaVuSans-72" x="117.859375"/>
      <use xlink:href="#DejaVuSans-74" x="158.972656"/>
      <use xlink:href="#DejaVuSans-66" x="198.181641"/>
      <use xlink:href="#DejaVuSans-6f" x="233.386719"/>
      <use xlink:href="#DejaVuSans-6c" x="294.568359"/>
      <use xlink:href="#DejaVuSans-69" x="322.351562"/>
      <use xlink:href="#DejaVuSans-6f" x="350.134766"/>
     </g>
    </g>
    <g id="line2d_40">
     <path d="M 57.982813 50.094687 
L 67.982812 50.094687 
L 77.982812 50.094687 
" style="fill: none; stroke: #ff0000; stroke-width: 1.5; stroke-linecap: square"/>
    </g>
    <g id="text_23">
     <!-- VNINDEX -->
     <g transform="translate(85.982812 53.594687) scale(0.1 -0.1)">
      <defs>
       <path id="DejaVuSans-56" d="M 1831 0 
L 50 4666 
L 709 4666 
L 2188 738 
L 3669 4666 
L 4325 4666 
L 2547 0 
L 1831 0 
z
" transform="scale(0.015625)"/>
       <path id="DejaVuSans-4e" d="M 628 4666 
L 1478 4666 
L 3547 763 
L 3547 4666 
L 4159 4666 
L 4159 0 
L 3309 0 
L 1241 3903 
L 1241 0 
L 628 0 
L 628 4666 
z
" transform="scale(0.015625)"/>
       <path id="DejaVuSans-49" d="M 628 4666 
L 1259 4666 
L 1259 0 
L 628 0 
L 628 4666 
z
" transform="scale(0.015625)"/>
       <path id="DejaVuSans-44" d="M 1259 4147 
L 1259 519 
L 2022 519 
Q 2988 519 3436 956 
Q 3884 1394 3884 2338 
Q 3884 3275 3436 3711 
Q 2988 4147 2022 4147 
L 1259 4147 
z
M 628 4666 
L 1925 4666 
Q 3281 4666 3915 4102 
Q 4550 3538 4550 2338 
Q 4550 1131 3912 565 
Q 3275 0 1925 0 
L 628 0 
L 628 4666 
z
" transform="scale(0.015625)"/>
       <path id="DejaVuSans-45" d="M 628 4666 
L 3578 4666 
L 3578 4134 
L 1259 4134 
L 1259 2753 
L 3481 2753 
L 3481 2222 
L 1259 2222 
L 1259 531 
L 3634 531 
L 3634 0 
L 628 0 
L 628 4666 
z
" transform="scale(0.015625)"/>
       <path id="DejaVuSans-58" d="M 403 4666 
L 1081 4666 
L 2241 2931 
L 3406 4666 
L 4084 4666 
L 2584 2425 
L 4184 0 
L 3506 0 
L 2194 1984 
L 872 0 
L 191 0 
L 1856 2491 
L 403 4666 
z
" transform="scale(0.015625)"/>
      </defs>
      <use xlink:href="#DejaVuSans-56"/>
      <use xlink:href="#DejaVuSans-4e" x="68.408203"/>
      <use xlink:href="#DejaVuSans-49" x="143.212891"/>
      <use xlink:href="#DejaVuSans-4e" x="172.705078"/>
      <use xlink:href="#DejaVuSans-44" x="247.509766"/>
      <use xlink:href="#DejaVuSans-45" x="324.511719"/>
      <use xlink:href="#DejaVuSans-58" x="387.695312"/>
     </g>
    </g>
   </g>
  </g>
 </g>
 <defs>
  <clipPath id="pbcf9de57b1">
   <rect x="48.982813" y="22.318125" width="558" height="332.64"/>
  </clipPath>
 </defs>
</svg>
