<?xml version="1.0" encoding="utf-8" standalone="no"?>
<!DOCTYPE svg PUBLIC "-//W3C//DTD SVG 1.1//EN"
  "http://www.w3.org/Graphics/SVG/1.1/DTD/svg11.dtd">
<svg xmlns:xlink="http://www.w3.org/1999/xlink" width="617.360937pt" height="392.514375pt" viewBox="0 0 617.360937 392.514375" xmlns="http://www.w3.org/2000/svg" version="1.1">
 <metadata>
  <rdf:RDF xmlns:dc="http://purl.org/dc/elements/1.1/" xmlns:cc="http://creativecommons.org/ns#" xmlns:rdf="http://www.w3.org/1999/02/22-rdf-syntax-ns#">
   <cc:Work>
    <dc:type rdf:resource="http://purl.org/dc/dcmitype/StillImage"/>
    <dc:date>2025-08-01T00:55:28.784624</dc:date>
    <dc:format>image/svg+xml</dc:format>
    <dc:creator>
     <cc:Agent>
      <dc:title>Matplotlib v3.9.1, https://matplotlib.org/</dc:title>
     </cc:Agent>
    </dc:creator>
   </cc:Work>
  </rdf:RDF>
 </metadata>
 <defs>
  <style type="text/css">*{stroke-linejoin: round; stroke-linecap: butt}</style>
 </defs>
 <g id="figure_1">
  <g id="patch_1">
   <path d="M 0 392.514375 
L 617.360937 392.514375 
L 617.360937 0 
L 0 0 
z
" style="fill: #ffffff"/>
  </g>
  <g id="axes_1">
   <g id="patch_2">
    <path d="M 52.160938 354.958125 
L 610.160938 354.958125 
L 610.160938 22.318125 
L 52.160938 22.318125 
z
" style="fill: #ffffff"/>
   </g>
   <g id="matplotlib.axis_1">
    <g id="xtick_1">
     <g id="line2d_1">
      <path d="M 75.532665 354.958125 
L 75.532665 22.318125 
" clip-path="url(#p072480876e)" style="fill: none; stroke: #b0b0b0; stroke-width: 0.8; stroke-linecap: square"/>
     </g>
     <g id="line2d_2">
      <defs>
       <path id="m3ea01192be" d="M 0 0 
L 0 3.5 
" style="stroke: #000000; stroke-width: 0.8"/>
      </defs>
      <g>
       <use xlink:href="#m3ea01192be" x="75.532665" y="354.958125" style="stroke: #000000; stroke-width: 0.8"/>
      </g>
     </g>
     <g id="text_1">
      <!-- 2022-01 -->
      <g transform="translate(54.641259 369.556562) scale(0.1 -0.1)">
       <defs>
        <path id="DejaVuSans-32" d="M 1228 531 
L 3431 531 
L 3431 0 
L 469 0 
L 469 531 
Q 828 903 1448 1529 
Q 2069 2156 2228 2338 
Q 2531 2678 2651 2914 
Q 2772 3150 2772 3378 
Q 2772 3750 2511 3984 
Q 2250 4219 1831 4219 
Q 1534 4219 1204 4116 
Q 875 4013 500 3803 
L 500 4441 
Q 881 4594 1212 4672 
Q 1544 4750 1819 4750 
Q 2544 4750 2975 4387 
Q 3406 4025 3406 3419 
Q 3406 3131 3298 2873 
Q 3191 2616 2906 2266 
Q 2828 2175 2409 1742 
Q 1991 1309 1228 531 
z
" transform="scale(0.015625)"/>
        <path id="DejaVuSans-30" d="M 2034 4250 
Q 1547 4250 1301 3770 
Q 1056 3291 1056 2328 
Q 1056 1369 1301 889 
Q 1547 409 2034 409 
Q 2525 409 2770 889 
Q 3016 1369 3016 2328 
Q 3016 3291 2770 3770 
Q 2525 4250 2034 4250 
z
M 2034 4750 
Q 2819 4750 3233 4129 
Q 3647 3509 3647 2328 
Q 3647 1150 3233 529 
Q 2819 -91 2034 -91 
Q 1250 -91 836 529 
Q 422 1150 422 2328 
Q 422 3509 836 4129 
Q 1250 4750 2034 4750 
z
" transform="scale(0.015625)"/>
        <path id="DejaVuSans-2d" d="M 313 2009 
L 1997 2009 
L 1997 1497 
L 313 1497 
L 313 2009 
z
" transform="scale(0.015625)"/>
        <path id="DejaVuSans-31" d="M 794 531 
L 1825 531 
L 1825 4091 
L 703 3866 
L 703 4441 
L 1819 4666 
L 2450 4666 
L 2450 531 
L 3481 531 
L 3481 0 
L 794 0 
L 794 531 
z
" transform="scale(0.015625)"/>
       </defs>
       <use xlink:href="#DejaVuSans-32"/>
       <use xlink:href="#DejaVuSans-30" x="63.623047"/>
       <use xlink:href="#DejaVuSans-32" x="127.246094"/>
       <use xlink:href="#DejaVuSans-32" x="190.869141"/>
       <use xlink:href="#DejaVuSans-2d" x="254.492188"/>
       <use xlink:href="#DejaVuSans-30" x="290.576172"/>
       <use xlink:href="#DejaVuSans-31" x="354.199219"/>
      </g>
     </g>
    </g>
    <g id="xtick_2">
     <g id="line2d_3">
      <path d="M 135.289924 354.958125 
L 135.289924 22.318125 
" clip-path="url(#p072480876e)" style="fill: none; stroke: #b0b0b0; stroke-width: 0.8; stroke-linecap: square"/>
     </g>
     <g id="line2d_4">
      <g>
       <use xlink:href="#m3ea01192be" x="135.289924" y="354.958125" style="stroke: #000000; stroke-width: 0.8"/>
      </g>
     </g>
     <g id="text_2">
      <!-- 2022-04 -->
      <g transform="translate(114.398517 369.556562) scale(0.1 -0.1)">
       <defs>
        <path id="DejaVuSans-34" d="M 2419 4116 
L 825 1625 
L 2419 1625 
L 2419 4116 
z
M 2253 4666 
L 3047 4666 
L 3047 1625 
L 3713 1625 
L 3713 1100 
L 3047 1100 
L 3047 0 
L 2419 0 
L 2419 1100 
L 313 1100 
L 313 1709 
L 2253 4666 
z
" transform="scale(0.015625)"/>
       </defs>
       <use xlink:href="#DejaVuSans-32"/>
       <use xlink:href="#DejaVuSans-30" x="63.623047"/>
       <use xlink:href="#DejaVuSans-32" x="127.246094"/>
       <use xlink:href="#DejaVuSans-32" x="190.869141"/>
       <use xlink:href="#DejaVuSans-2d" x="254.492188"/>
       <use xlink:href="#DejaVuSans-30" x="290.576172"/>
       <use xlink:href="#DejaVuSans-34" x="354.199219"/>
      </g>
     </g>
    </g>
    <g id="xtick_3">
     <g id="line2d_5">
      <path d="M 195.711152 354.958125 
L 195.711152 22.318125 
" clip-path="url(#p072480876e)" style="fill: none; stroke: #b0b0b0; stroke-width: 0.8; stroke-linecap: square"/>
     </g>
     <g id="line2d_6">
      <g>
       <use xlink:href="#m3ea01192be" x="195.711152" y="354.958125" style="stroke: #000000; stroke-width: 0.8"/>
      </g>
     </g>
     <g id="text_3">
      <!-- 2022-07 -->
      <g transform="translate(174.819745 369.556562) scale(0.1 -0.1)">
       <defs>
        <path id="DejaVuSans-37" d="M 525 4666 
L 3525 4666 
L 3525 4397 
L 1831 0 
L 1172 0 
L 2766 4134 
L 525 4134 
L 525 4666 
z
" transform="scale(0.015625)"/>
       </defs>
       <use xlink:href="#DejaVuSans-32"/>
       <use xlink:href="#DejaVuSans-30" x="63.623047"/>
       <use xlink:href="#DejaVuSans-32" x="127.246094"/>
       <use xlink:href="#DejaVuSans-32" x="190.869141"/>
       <use xlink:href="#DejaVuSans-2d" x="254.492188"/>
       <use xlink:href="#DejaVuSans-30" x="290.576172"/>
       <use xlink:href="#DejaVuSans-37" x="354.199219"/>
      </g>
     </g>
    </g>
    <g id="xtick_4">
     <g id="line2d_7">
      <path d="M 256.796349 354.958125 
L 256.796349 22.318125 
" clip-path="url(#p072480876e)" style="fill: none; stroke: #b0b0b0; stroke-width: 0.8; stroke-linecap: square"/>
     </g>
     <g id="line2d_8">
      <g>
       <use xlink:href="#m3ea01192be" x="256.796349" y="354.958125" style="stroke: #000000; stroke-width: 0.8"/>
      </g>
     </g>
     <g id="text_4">
      <!-- 2022-10 -->
      <g transform="translate(235.904943 369.556562) scale(0.1 -0.1)">
       <use xlink:href="#DejaVuSans-32"/>
       <use xlink:href="#DejaVuSans-30" x="63.623047"/>
       <use xlink:href="#DejaVuSans-32" x="127.246094"/>
       <use xlink:href="#DejaVuSans-32" x="190.869141"/>
       <use xlink:href="#DejaVuSans-2d" x="254.492188"/>
       <use xlink:href="#DejaVuSans-31" x="290.576172"/>
       <use xlink:href="#DejaVuSans-30" x="354.199219"/>
      </g>
     </g>
    </g>
    <g id="xtick_5">
     <g id="line2d_9">
      <path d="M 317.881547 354.958125 
L 317.881547 22.318125 
" clip-path="url(#p072480876e)" style="fill: none; stroke: #b0b0b0; stroke-width: 0.8; stroke-linecap: square"/>
     </g>
     <g id="line2d_10">
      <g>
       <use xlink:href="#m3ea01192be" x="317.881547" y="354.958125" style="stroke: #000000; stroke-width: 0.8"/>
      </g>
     </g>
     <g id="text_5">
      <!-- 2023-01 -->
      <g transform="translate(296.99014 369.556562) scale(0.1 -0.1)">
       <defs>
        <path id="DejaVuSans-33" d="M 2597 2516 
Q 3050 2419 3304 2112 
Q 3559 1806 3559 1356 
Q 3559 666 3084 287 
Q 2609 -91 1734 -91 
Q 1441 -91 1130 -33 
Q 819 25 488 141 
L 488 750 
Q 750 597 1062 519 
Q 1375 441 1716 441 
Q 2309 441 2620 675 
Q 2931 909 2931 1356 
Q 2931 1769 2642 2001 
Q 2353 2234 1838 2234 
L 1294 2234 
L 1294 2753 
L 1863 2753 
Q 2328 2753 2575 2939 
Q 2822 3125 2822 3475 
Q 2822 3834 2567 4026 
Q 2313 4219 1838 4219 
Q 1578 4219 1281 4162 
Q 984 4106 628 3988 
L 628 4550 
Q 988 4650 1302 4700 
Q 1616 4750 1894 4750 
Q 2613 4750 3031 4423 
Q 3450 4097 3450 3541 
Q 3450 3153 3228 2886 
Q 3006 2619 2597 2516 
z
" transform="scale(0.015625)"/>
       </defs>
       <use xlink:href="#DejaVuSans-32"/>
       <use xlink:href="#DejaVuSans-30" x="63.623047"/>
       <use xlink:href="#DejaVuSans-32" x="127.246094"/>
       <use xlink:href="#DejaVuSans-33" x="190.869141"/>
       <use xlink:href="#DejaVuSans-2d" x="254.492188"/>
       <use xlink:href="#DejaVuSans-30" x="290.576172"/>
       <use xlink:href="#DejaVuSans-31" x="354.199219"/>
      </g>
     </g>
    </g>
    <g id="xtick_6">
     <g id="line2d_11">
      <path d="M 377.638805 354.958125 
L 377.638805 22.318125 
" clip-path="url(#p072480876e)" style="fill: none; stroke: #b0b0b0; stroke-width: 0.8; stroke-linecap: square"/>
     </g>
     <g id="line2d_12">
      <g>
       <use xlink:href="#m3ea01192be" x="377.638805" y="354.958125" style="stroke: #000000; stroke-width: 0.8"/>
      </g>
     </g>
     <g id="text_6">
      <!-- 2023-04 -->
      <g transform="translate(356.747399 369.556562) scale(0.1 -0.1)">
       <use xlink:href="#DejaVuSans-32"/>
       <use xlink:href="#DejaVuSans-30" x="63.623047"/>
       <use xlink:href="#DejaVuSans-32" x="127.246094"/>
       <use xlink:href="#DejaVuSans-33" x="190.869141"/>
       <use xlink:href="#DejaVuSans-2d" x="254.492188"/>
       <use xlink:href="#DejaVuSans-30" x="290.576172"/>
       <use xlink:href="#DejaVuSans-34" x="354.199219"/>
      </g>
     </g>
    </g>
    <g id="xtick_7">
     <g id="line2d_13">
      <path d="M 438.060033 354.958125 
L 438.060033 22.318125 
" clip-path="url(#p072480876e)" style="fill: none; stroke: #b0b0b0; stroke-width: 0.8; stroke-linecap: square"/>
     </g>
     <g id="line2d_14">
      <g>
       <use xlink:href="#m3ea01192be" x="438.060033" y="354.958125" style="stroke: #000000; stroke-width: 0.8"/>
      </g>
     </g>
     <g id="text_7">
      <!-- 2023-07 -->
      <g transform="translate(417.168627 369.556562) scale(0.1 -0.1)">
       <use xlink:href="#DejaVuSans-32"/>
       <use xlink:href="#DejaVuSans-30" x="63.623047"/>
       <use xlink:href="#DejaVuSans-32" x="127.246094"/>
       <use xlink:href="#DejaVuSans-33" x="190.869141"/>
       <use xlink:href="#DejaVuSans-2d" x="254.492188"/>
       <use xlink:href="#DejaVuSans-30" x="290.576172"/>
       <use xlink:href="#DejaVuSans-37" x="354.199219"/>
      </g>
     </g>
    </g>
    <g id="xtick_8">
     <g id="line2d_15">
      <path d="M 499.145231 354.958125 
L 499.145231 22.318125 
" clip-path="url(#p072480876e)" style="fill: none; stroke: #b0b0b0; stroke-width: 0.8; stroke-linecap: square"/>
     </g>
     <g id="line2d_16">
      <g>
       <use xlink:href="#m3ea01192be" x="499.145231" y="354.958125" style="stroke: #000000; stroke-width: 0.8"/>
      </g>
     </g>
     <g id="text_8">
      <!-- 2023-10 -->
      <g transform="translate(478.253824 369.556562) scale(0.1 -0.1)">
       <use xlink:href="#DejaVuSans-32"/>
       <use xlink:href="#DejaVuSans-30" x="63.623047"/>
       <use xlink:href="#DejaVuSans-32" x="127.246094"/>
       <use xlink:href="#DejaVuSans-33" x="190.869141"/>
       <use xlink:href="#DejaVuSans-2d" x="254.492188"/>
       <use xlink:href="#DejaVuSans-31" x="290.576172"/>
       <use xlink:href="#DejaVuSans-30" x="354.199219"/>
      </g>
     </g>
    </g>
    <g id="xtick_9">
     <g id="line2d_17">
      <path d="M 560.230428 354.958125 
L 560.230428 22.318125 
" clip-path="url(#p072480876e)" style="fill: none; stroke: #b0b0b0; stroke-width: 0.8; stroke-linecap: square"/>
     </g>
     <g id="line2d_18">
      <g>
       <use xlink:href="#m3ea01192be" x="560.230428" y="354.958125" style="stroke: #000000; stroke-width: 0.8"/>
      </g>
     </g>
     <g id="text_9">
      <!-- 2024-01 -->
      <g transform="translate(539.339022 369.556562) scale(0.1 -0.1)">
       <use xlink:href="#DejaVuSans-32"/>
       <use xlink:href="#DejaVuSans-30" x="63.623047"/>
       <use xlink:href="#DejaVuSans-32" x="127.246094"/>
       <use xlink:href="#DejaVuSans-34" x="190.869141"/>
       <use xlink:href="#DejaVuSans-2d" x="254.492188"/>
       <use xlink:href="#DejaVuSans-30" x="290.576172"/>
       <use xlink:href="#DejaVuSans-31" x="354.199219"/>
      </g>
     </g>
    </g>
    <g id="text_10">
     <!-- Time Step -->
     <g transform="translate(305.953125 383.234687) scale(0.1 -0.1)">
      <defs>
       <path id="DejaVuSans-54" d="M -19 4666 
L 3928 4666 
L 3928 4134 
L 2272 4134 
L 2272 0 
L 1638 0 
L 1638 4134 
L -19 4134 
L -19 4666 
z
" transform="scale(0.015625)"/>
       <path id="DejaVuSans-69" d="M 603 3500 
L 1178 3500 
L 1178 0 
L 603 0 
L 603 3500 
z
M 603 4863 
L 1178 4863 
L 1178 4134 
L 603 4134 
L 603 4863 
z
" transform="scale(0.015625)"/>
       <path id="DejaVuSans-6d" d="M 3328 2828 
Q 3544 3216 3844 3400 
Q 4144 3584 4550 3584 
Q 5097 3584 5394 3201 
Q 5691 2819 5691 2113 
L 5691 0 
L 5113 0 
L 5113 2094 
Q 5113 2597 4934 2840 
Q 4756 3084 4391 3084 
Q 3944 3084 3684 2787 
Q 3425 2491 3425 1978 
L 3425 0 
L 2847 0 
L 2847 2094 
Q 2847 2600 2669 2842 
Q 2491 3084 2119 3084 
Q 1678 3084 1418 2786 
Q 1159 2488 1159 1978 
L 1159 0 
L 581 0 
L 581 3500 
L 1159 3500 
L 1159 2956 
Q 1356 3278 1631 3431 
Q 1906 3584 2284 3584 
Q 2666 3584 2933 3390 
Q 3200 3197 3328 2828 
z
" transform="scale(0.015625)"/>
       <path id="DejaVuSans-65" d="M 3597 1894 
L 3597 1613 
L 953 1613 
Q 991 1019 1311 708 
Q 1631 397 2203 397 
Q 2534 397 2845 478 
Q 3156 559 3463 722 
L 3463 178 
Q 3153 47 2828 -22 
Q 2503 -91 2169 -91 
Q 1331 -91 842 396 
Q 353 884 353 1716 
Q 353 2575 817 3079 
Q 1281 3584 2069 3584 
Q 2775 3584 3186 3129 
Q 3597 2675 3597 1894 
z
M 3022 2063 
Q 3016 2534 2758 2815 
Q 2500 3097 2075 3097 
Q 1594 3097 1305 2825 
Q 1016 2553 972 2059 
L 3022 2063 
z
" transform="scale(0.015625)"/>
       <path id="DejaVuSans-20" transform="scale(0.015625)"/>
       <path id="DejaVuSans-53" d="M 3425 4513 
L 3425 3897 
Q 3066 4069 2747 4153 
Q 2428 4238 2131 4238 
Q 1616 4238 1336 4038 
Q 1056 3838 1056 3469 
Q 1056 3159 1242 3001 
Q 1428 2844 1947 2747 
L 2328 2669 
Q 3034 2534 3370 2195 
Q 3706 1856 3706 1288 
Q 3706 609 3251 259 
Q 2797 -91 1919 -91 
Q 1588 -91 1214 -16 
Q 841 59 441 206 
L 441 856 
Q 825 641 1194 531 
Q 1563 422 1919 422 
Q 2459 422 2753 634 
Q 3047 847 3047 1241 
Q 3047 1584 2836 1778 
Q 2625 1972 2144 2069 
L 1759 2144 
Q 1053 2284 737 2584 
Q 422 2884 422 3419 
Q 422 4038 858 4394 
Q 1294 4750 2059 4750 
Q 2388 4750 2728 4690 
Q 3069 4631 3425 4513 
z
" transform="scale(0.015625)"/>
       <path id="DejaVuSans-74" d="M 1172 4494 
L 1172 3500 
L 2356 3500 
L 2356 3053 
L 1172 3053 
L 1172 1153 
Q 1172 725 1289 603 
Q 1406 481 1766 481 
L 2356 481 
L 2356 0 
L 1766 0 
Q 1100 0 847 248 
Q 594 497 594 1153 
L 594 3053 
L 172 3053 
L 172 3500 
L 594 3500 
L 594 4494 
L 1172 4494 
z
" transform="scale(0.015625)"/>
       <path id="DejaVuSans-70" d="M 1159 525 
L 1159 -1331 
L 581 -1331 
L 581 3500 
L 1159 3500 
L 1159 2969 
Q 1341 3281 1617 3432 
Q 1894 3584 2278 3584 
Q 2916 3584 3314 3078 
Q 3713 2572 3713 1747 
Q 3713 922 3314 415 
Q 2916 -91 2278 -91 
Q 1894 -91 1617 61 
Q 1341 213 1159 525 
z
M 3116 1747 
Q 3116 2381 2855 2742 
Q 2594 3103 2138 3103 
Q 1681 3103 1420 2742 
Q 1159 2381 1159 1747 
Q 1159 1113 1420 752 
Q 1681 391 2138 391 
Q 2594 391 2855 752 
Q 3116 1113 3116 1747 
z
" transform="scale(0.015625)"/>
      </defs>
      <use xlink:href="#DejaVuSans-54"/>
      <use xlink:href="#DejaVuSans-69" x="57.958984"/>
      <use xlink:href="#DejaVuSans-6d" x="85.742188"/>
      <use xlink:href="#DejaVuSans-65" x="183.154297"/>
      <use xlink:href="#DejaVuSans-20" x="244.677734"/>
      <use xlink:href="#DejaVuSans-53" x="276.464844"/>
      <use xlink:href="#DejaVuSans-74" x="339.941406"/>
      <use xlink:href="#DejaVuSans-65" x="379.150391"/>
      <use xlink:href="#DejaVuSans-70" x="440.673828"/>
     </g>
    </g>
   </g>
   <g id="matplotlib.axis_2">
    <g id="ytick_1">
     <g id="line2d_19">
      <path d="M 52.160938 300.152387 
L 610.160938 300.152387 
" clip-path="url(#p072480876e)" style="fill: none; stroke: #b0b0b0; stroke-width: 0.8; stroke-linecap: square"/>
     </g>
     <g id="line2d_20">
      <defs>
       <path id="m8bc444dc99" d="M 0 0 
L -3.5 0 
" style="stroke: #000000; stroke-width: 0.8"/>
      </defs>
      <g>
       <use xlink:href="#m8bc444dc99" x="52.160938" y="300.152387" style="stroke: #000000; stroke-width: 0.8"/>
      </g>
     </g>
     <g id="text_11">
      <!-- −0.4 -->
      <g transform="translate(20.878125 303.951606) scale(0.1 -0.1)">
       <defs>
        <path id="DejaVuSans-2212" d="M 678 2272 
L 4684 2272 
L 4684 1741 
L 678 1741 
L 678 2272 
z
" transform="scale(0.015625)"/>
        <path id="DejaVuSans-2e" d="M 684 794 
L 1344 794 
L 1344 0 
L 684 0 
L 684 794 
z
" transform="scale(0.015625)"/>
       </defs>
       <use xlink:href="#DejaVuSans-2212"/>
       <use xlink:href="#DejaVuSans-30" x="83.789062"/>
       <use xlink:href="#DejaVuSans-2e" x="147.412109"/>
       <use xlink:href="#DejaVuSans-34" x="179.199219"/>
      </g>
     </g>
    </g>
    <g id="ytick_2">
     <g id="line2d_21">
      <path d="M 52.160938 234.473821 
L 610.160938 234.473821 
" clip-path="url(#p072480876e)" style="fill: none; stroke: #b0b0b0; stroke-width: 0.8; stroke-linecap: square"/>
     </g>
     <g id="line2d_22">
      <g>
       <use xlink:href="#m8bc444dc99" x="52.160938" y="234.473821" style="stroke: #000000; stroke-width: 0.8"/>
      </g>
     </g>
     <g id="text_12">
      <!-- −0.3 -->
      <g transform="translate(20.878125 238.27304) scale(0.1 -0.1)">
       <use xlink:href="#DejaVuSans-2212"/>
       <use xlink:href="#DejaVuSans-30" x="83.789062"/>
       <use xlink:href="#DejaVuSans-2e" x="147.412109"/>
       <use xlink:href="#DejaVuSans-33" x="179.199219"/>
      </g>
     </g>
    </g>
    <g id="ytick_3">
     <g id="line2d_23">
      <path d="M 52.160938 168.795256 
L 610.160938 168.795256 
" clip-path="url(#p072480876e)" style="fill: none; stroke: #b0b0b0; stroke-width: 0.8; stroke-linecap: square"/>
     </g>
     <g id="line2d_24">
      <g>
       <use xlink:href="#m8bc444dc99" x="52.160938" y="168.795256" style="stroke: #000000; stroke-width: 0.8"/>
      </g>
     </g>
     <g id="text_13">
      <!-- −0.2 -->
      <g transform="translate(20.878125 172.594475) scale(0.1 -0.1)">
       <use xlink:href="#DejaVuSans-2212"/>
       <use xlink:href="#DejaVuSans-30" x="83.789062"/>
       <use xlink:href="#DejaVuSans-2e" x="147.412109"/>
       <use xlink:href="#DejaVuSans-32" x="179.199219"/>
      </g>
     </g>
    </g>
    <g id="ytick_4">
     <g id="line2d_25">
      <path d="M 52.160938 103.11669 
L 610.160938 103.11669 
" clip-path="url(#p072480876e)" style="fill: none; stroke: #b0b0b0; stroke-width: 0.8; stroke-linecap: square"/>
     </g>
     <g id="line2d_26">
      <g>
       <use xlink:href="#m8bc444dc99" x="52.160938" y="103.11669" style="stroke: #000000; stroke-width: 0.8"/>
      </g>
     </g>
     <g id="text_14">
      <!-- −0.1 -->
      <g transform="translate(20.878125 106.915909) scale(0.1 -0.1)">
       <use xlink:href="#DejaVuSans-2212"/>
       <use xlink:href="#DejaVuSans-30" x="83.789062"/>
       <use xlink:href="#DejaVuSans-2e" x="147.412109"/>
       <use xlink:href="#DejaVuSans-31" x="179.199219"/>
      </g>
     </g>
    </g>
    <g id="ytick_5">
     <g id="line2d_27">
      <path d="M 52.160938 37.438125 
L 610.160938 37.438125 
" clip-path="url(#p072480876e)" style="fill: none; stroke: #b0b0b0; stroke-width: 0.8; stroke-linecap: square"/>
     </g>
     <g id="line2d_28">
      <g>
       <use xlink:href="#m8bc444dc99" x="52.160938" y="37.438125" style="stroke: #000000; stroke-width: 0.8"/>
      </g>
     </g>
     <g id="text_15">
      <!-- 0.0 -->
      <g transform="translate(29.257813 41.237344) scale(0.1 -0.1)">
       <use xlink:href="#DejaVuSans-30"/>
       <use xlink:href="#DejaVuSans-2e" x="63.623047"/>
       <use xlink:href="#DejaVuSans-30" x="95.410156"/>
      </g>
     </g>
    </g>
    <g id="text_16">
     <!-- Percentage -->
     <g transform="translate(14.798438 216.760781) rotate(-90) scale(0.1 -0.1)">
      <defs>
       <path id="DejaVuSans-50" d="M 1259 4147 
L 1259 2394 
L 2053 2394 
Q 2494 2394 2734 2622 
Q 2975 2850 2975 3272 
Q 2975 3691 2734 3919 
Q 2494 4147 2053 4147 
L 1259 4147 
z
M 628 4666 
L 2053 4666 
Q 2838 4666 3239 4311 
Q 3641 3956 3641 3272 
Q 3641 2581 3239 2228 
Q 2838 1875 2053 1875 
L 1259 1875 
L 1259 0 
L 628 0 
L 628 4666 
z
" transform="scale(0.015625)"/>
       <path id="DejaVuSans-72" d="M 2631 2963 
Q 2534 3019 2420 3045 
Q 2306 3072 2169 3072 
Q 1681 3072 1420 2755 
Q 1159 2438 1159 1844 
L 1159 0 
L 581 0 
L 581 3500 
L 1159 3500 
L 1159 2956 
Q 1341 3275 1631 3429 
Q 1922 3584 2338 3584 
Q 2397 3584 2469 3576 
Q 2541 3569 2628 3553 
L 2631 2963 
z
" transform="scale(0.015625)"/>
       <path id="DejaVuSans-63" d="M 3122 3366 
L 3122 2828 
Q 2878 2963 2633 3030 
Q 2388 3097 2138 3097 
Q 1578 3097 1268 2742 
Q 959 2388 959 1747 
Q 959 1106 1268 751 
Q 1578 397 2138 397 
Q 2388 397 2633 464 
Q 2878 531 3122 666 
L 3122 134 
Q 2881 22 2623 -34 
Q 2366 -91 2075 -91 
Q 1284 -91 818 406 
Q 353 903 353 1747 
Q 353 2603 823 3093 
Q 1294 3584 2113 3584 
Q 2378 3584 2631 3529 
Q 2884 3475 3122 3366 
z
" transform="scale(0.015625)"/>
       <path id="DejaVuSans-6e" d="M 3513 2113 
L 3513 0 
L 2938 0 
L 2938 2094 
Q 2938 2591 2744 2837 
Q 2550 3084 2163 3084 
Q 1697 3084 1428 2787 
Q 1159 2491 1159 1978 
L 1159 0 
L 581 0 
L 581 3500 
L 1159 3500 
L 1159 2956 
Q 1366 3272 1645 3428 
Q 1925 3584 2291 3584 
Q 2894 3584 3203 3211 
Q 3513 2838 3513 2113 
z
" transform="scale(0.015625)"/>
       <path id="DejaVuSans-61" d="M 2194 1759 
Q 1497 1759 1228 1600 
Q 959 1441 959 1056 
Q 959 750 1161 570 
Q 1363 391 1709 391 
Q 2188 391 2477 730 
Q 2766 1069 2766 1631 
L 2766 1759 
L 2194 1759 
z
M 3341 1997 
L 3341 0 
L 2766 0 
L 2766 531 
Q 2569 213 2275 61 
Q 1981 -91 1556 -91 
Q 1019 -91 701 211 
Q 384 513 384 1019 
Q 384 1609 779 1909 
Q 1175 2209 1959 2209 
L 2766 2209 
L 2766 2266 
Q 2766 2663 2505 2880 
Q 2244 3097 1772 3097 
Q 1472 3097 1187 3025 
Q 903 2953 641 2809 
L 641 3341 
Q 956 3463 1253 3523 
Q 1550 3584 1831 3584 
Q 2591 3584 2966 3190 
Q 3341 2797 3341 1997 
z
" transform="scale(0.015625)"/>
       <path id="DejaVuSans-67" d="M 2906 1791 
Q 2906 2416 2648 2759 
Q 2391 3103 1925 3103 
Q 1463 3103 1205 2759 
Q 947 2416 947 1791 
Q 947 1169 1205 825 
Q 1463 481 1925 481 
Q 2391 481 2648 825 
Q 2906 1169 2906 1791 
z
M 3481 434 
Q 3481 -459 3084 -895 
Q 2688 -1331 1869 -1331 
Q 1566 -1331 1297 -1286 
Q 1028 -1241 775 -1147 
L 775 -588 
Q 1028 -725 1275 -790 
Q 1522 -856 1778 -856 
Q 2344 -856 2625 -561 
Q 2906 -266 2906 331 
L 2906 616 
Q 2728 306 2450 153 
Q 2172 0 1784 0 
Q 1141 0 747 490 
Q 353 981 353 1791 
Q 353 2603 747 3093 
Q 1141 3584 1784 3584 
Q 2172 3584 2450 3431 
Q 2728 3278 2906 2969 
L 2906 3500 
L 3481 3500 
L 3481 434 
z
" transform="scale(0.015625)"/>
      </defs>
      <use xlink:href="#DejaVuSans-50"/>
      <use xlink:href="#DejaVuSans-65" x="56.677734"/>
      <use xlink:href="#DejaVuSans-72" x="118.201172"/>
      <use xlink:href="#DejaVuSans-63" x="157.064453"/>
      <use xlink:href="#DejaVuSans-65" x="212.044922"/>
      <use xlink:href="#DejaVuSans-6e" x="273.568359"/>
      <use xlink:href="#DejaVuSans-74" x="336.947266"/>
      <use xlink:href="#DejaVuSans-61" x="376.15625"/>
      <use xlink:href="#DejaVuSans-67" x="437.435547"/>
      <use xlink:href="#DejaVuSans-65" x="500.912109"/>
     </g>
    </g>
   </g>
   <g id="line2d_29">
    <path d="M 77.524574 37.438125 
L 104.747325 37.438125 
L 105.411294 38.041089 
L 106.075264 37.438125 
L 109.395112 37.438125 
L 110.059081 38.001966 
L 110.723051 37.438125 
L 111.38702 43.588112 
L 112.05099 39.581551 
L 114.042898 37.438125 
L 114.706868 37.438125 
L 115.370838 39.100927 
L 116.034807 37.438125 
L 118.690685 37.438125 
L 119.354655 44.50423 
L 120.018624 37.958745 
L 120.682594 37.438125 
L 121.346563 39.737547 
L 123.338472 43.321486 
L 124.002442 45.893969 
L 124.666411 44.72415 
L 125.99435 37.438125 
L 133.298015 37.438125 
L 134.625954 41.577017 
L 135.289924 41.40101 
L 137.281832 37.438125 
L 137.945802 37.438125 
L 138.609771 41.019377 
L 139.273741 42.643805 
L 139.93771 45.099498 
L 142.593589 52.977299 
L 143.257558 50.631371 
L 143.921528 45.324455 
L 146.577406 56.984207 
L 147.905345 72.61919 
L 148.569314 75.399636 
L 149.233284 75.980691 
L 151.225193 96.64192 
L 152.553132 82.148335 
L 153.217101 81.636506 
L 153.881071 77.554612 
L 157.200918 81.199451 
L 157.864888 85.377707 
L 158.528858 97.888441 
L 160.520766 128.456511 
L 161.848705 112.139348 
L 162.512675 133.848049 
L 163.176644 162.471811 
L 165.168553 155.951171 
L 165.832522 133.739945 
L 166.496492 132.480919 
L 167.160462 131.48174 
L 167.824431 128.333344 
L 169.81634 133.254699 
L 170.480309 135.223485 
L 171.144279 122.848545 
L 171.808248 115.937138 
L 172.472218 115.256841 
L 174.464126 110.730129 
L 175.128096 111.081243 
L 175.792066 111.832287 
L 177.120005 118.238179 
L 179.111913 120.795728 
L 179.775883 128.053265 
L 180.439852 116.87373 
L 181.103822 118.381903 
L 181.767791 123.02538 
L 183.7597 145.471774 
L 184.42367 147.808864 
L 185.087639 158.282228 
L 185.751609 152.591058 
L 186.415578 162.708612 
L 188.407487 176.083883 
L 189.071456 192.159365 
L 189.735426 195.019537 
L 190.399395 188.370502 
L 191.063365 187.364566 
L 193.055274 183.768383 
L 193.719243 177.895875 
L 194.383213 177.105946 
L 195.047182 183.307682 
L 195.711152 185.94819 
L 197.70306 186.282889 
L 199.030999 201.145333 
L 199.694969 199.564434 
L 200.358938 191.543751 
L 202.350847 191.262239 
L 203.014817 181.513056 
L 204.342756 177.550696 
L 205.006725 176.308063 
L 206.998634 171.28206 
L 207.662603 171.098529 
L 208.326573 164.324798 
L 208.990542 168.005004 
L 209.654512 166.846084 
L 211.646421 168.877871 
L 212.31039 171.860014 
L 212.97436 170.507749 
L 213.638329 163.521622 
L 214.302299 164.994817 
L 216.294207 158.182043 
L 216.958177 153.879712 
L 217.622146 147.864299 
L 218.286116 144.703653 
L 218.950086 144.994358 
L 220.941994 142.910557 
L 221.605964 137.444233 
L 222.269933 135.159024 
L 222.933903 138.221004 
L 223.597872 134.665493 
L 225.589781 131.845638 
L 226.25375 133.172672 
L 226.91772 134.830993 
L 227.58169 138.427751 
L 228.245659 141.168611 
L 230.237568 144.566951 
L 231.565507 135.670676 
L 232.229476 131.385712 
L 232.893446 135.037652 
L 234.885354 142.472008 
L 235.549324 143.087554 
L 236.213294 142.3338 
L 239.533141 140.486615 
L 240.197111 142.492639 
L 240.86108 152.649137 
L 241.52505 152.816364 
L 242.189019 150.53326 
L 244.180928 149.381229 
L 244.844898 149.222442 
L 245.508867 152.419484 
L 246.172837 149.918157 
L 246.836806 153.855241 
L 248.828715 167.643386 
L 249.492684 165.761393 
L 250.156654 165.207497 
L 250.820623 164.076379 
L 253.476502 179.834595 
L 254.140471 179.543957 
L 254.804441 189.262415 
L 255.46841 191.606881 
L 256.13238 195.393352 
L 258.124288 212.688774 
L 258.788258 217.45143 
L 259.452227 208.798919 
L 260.116197 220.071338 
L 260.780166 238.362958 
L 262.772075 232.30519 
L 263.436045 247.729682 
L 264.100014 241.323347 
L 264.763984 237.380592 
L 265.427953 234.499442 
L 267.419862 235.336422 
L 268.083831 230.723715 
L 269.41177 236.524361 
L 270.07574 250.457029 
L 272.731618 269.729641 
L 273.395588 275.228949 
L 274.059557 262.607477 
L 274.723527 263.269764 
L 276.715435 267.174838 
L 277.379405 262.748584 
L 278.043374 262.779354 
L 278.707344 263.842266 
L 279.371314 272.955212 
L 281.363222 285.853766 
L 282.027192 287.090595 
L 282.691161 287.021104 
L 283.355131 302.798105 
L 284.0191 309.506287 
L 286.011009 323.958957 
L 286.674978 339.838125 
L 287.338948 325.146764 
L 288.002918 316.703769 
L 288.666887 310.698058 
L 291.322765 302.628485 
L 291.986735 306.188027 
L 292.650704 307.025872 
L 293.314674 299.145545 
L 295.306582 285.473921 
L 295.970552 279.496986 
L 296.634522 275.163974 
L 297.298491 269.960402 
L 297.962461 263.547555 
L 299.954369 260.234722 
L 300.618339 269.825893 
L 301.282308 277.179416 
L 301.946278 273.647076 
L 302.610247 271.59821 
L 304.602156 271.762026 
L 305.266126 271.510797 
L 305.930095 269.235689 
L 306.594065 270.936831 
L 307.258034 268.918247 
L 309.249943 268.726829 
L 309.913912 277.554986 
L 310.577882 282.094945 
L 311.241851 280.589519 
L 311.905821 280.631342 
L 313.89773 289.266198 
L 314.561699 285.26711 
L 315.225669 282.2147 
L 315.889638 281.51883 
L 316.553608 278.22753 
L 319.209486 271.340579 
L 319.873455 267.534835 
L 320.537425 265.999903 
L 321.201394 267.650803 
L 323.193303 267.987983 
L 323.857273 269.882425 
L 324.521242 270.117018 
L 325.849181 268.619811 
L 327.84109 268.138951 
L 329.169029 258.35233 
L 329.832998 252.750722 
L 335.144755 247.643155 
L 337.136663 244.123686 
L 337.800633 240.701532 
L 338.464602 246.523884 
L 339.128572 249.382727 
L 339.792541 249.868704 
L 341.78445 248.439083 
L 342.44842 250.447101 
L 343.112389 249.573791 
L 343.776359 246.953307 
L 344.440328 250.555869 
L 346.432237 254.527267 
L 347.096206 253.778475 
L 347.760176 251.044992 
L 348.424145 249.498384 
L 349.088115 248.400915 
L 351.080024 240.919773 
L 351.743993 239.244926 
L 353.735902 246.080107 
L 355.72781 249.827568 
L 356.39178 249.562294 
L 357.055749 245.223488 
L 357.719719 246.333628 
L 358.383689 247.843219 
L 360.375597 247.123114 
L 361.039567 247.640393 
L 361.703536 245.659556 
L 362.367506 242.820406 
L 363.031475 244.406267 
L 365.023384 247.403518 
L 365.687353 252.294901 
L 366.351323 246.447425 
L 367.015293 249.910893 
L 367.679262 248.725944 
L 369.671171 252.947043 
L 370.33514 249.114783 
L 370.99911 249.591013 
L 371.663079 250.85972 
L 372.327049 250.944297 
L 374.318957 249.553598 
L 374.982927 248.926378 
L 375.646897 249.086805 
L 376.310866 249.776472 
L 376.974836 249.345389 
L 378.966744 246.403897 
L 380.294683 240.533205 
L 380.958653 239.186766 
L 381.622622 237.453681 
L 383.614531 237.561075 
L 384.278501 236.819084 
L 384.94247 234.713818 
L 385.60644 235.735548 
L 386.270409 239.696911 
L 388.262318 240.894642 
L 390.254226 237.287605 
L 390.918196 238.756413 
L 392.910105 239.518209 
L 393.574074 241.429354 
L 394.902013 237.554496 
L 395.565983 237.414161 
L 399.5498 237.499899 
L 400.213769 237.628272 
L 402.205678 234.677984 
L 402.869648 234.644069 
L 403.533617 231.303967 
L 404.197587 229.867856 
L 404.861556 226.564948 
L 406.853465 227.610647 
L 407.517434 226.675997 
L 408.181404 227.187848 
L 408.845373 224.020069 
L 409.509343 224.138207 
L 411.501252 222.012982 
L 412.165221 222.405587 
L 412.829191 221.326438 
L 413.49316 221.330758 
L 414.15713 218.774781 
L 417.476977 210.84696 
L 418.140947 206.717867 
L 418.804917 206.227504 
L 420.796825 202.053235 
L 421.460795 201.109614 
L 422.124764 202.300721 
L 422.788734 201.285459 
L 423.452703 200.567547 
L 425.444612 195.51361 
L 426.108581 195.47522 
L 426.772551 198.071625 
L 427.436521 201.511412 
L 428.10049 203.497144 
L 430.092399 206.085729 
L 430.756368 202.170532 
L 431.420338 199.209943 
L 432.084307 196.80263 
L 432.748277 195.838607 
L 434.740185 196.334154 
L 435.404155 194.723017 
L 436.068125 191.039754 
L 436.732094 193.14708 
L 437.396064 193.432512 
L 439.387972 188.401896 
L 440.051942 189.884284 
L 440.715911 189.413548 
L 441.379881 193.172527 
L 446.691637 179.918473 
L 448.683546 180.394438 
L 449.347515 183.929546 
L 450.011485 182.243446 
L 450.675454 179.615984 
L 451.339424 179.384315 
L 453.331333 182.600519 
L 453.995302 182.432161 
L 454.659272 182.523185 
L 455.323241 185.495603 
L 455.987211 184.540285 
L 457.979119 184.435483 
L 458.643089 187.414314 
L 459.307058 186.430065 
L 459.971028 188.763212 
L 460.634997 186.838642 
L 462.626906 184.437289 
L 463.290876 183.237055 
L 463.954845 185.057044 
L 464.618815 185.100861 
L 465.282784 186.103585 
L 467.274693 183.951422 
L 467.938662 181.091826 
L 468.602632 182.874998 
L 469.266601 185.482523 
L 469.930571 199.854116 
L 471.92248 200.440399 
L 472.586449 202.632634 
L 473.250419 200.878372 
L 473.914388 198.123024 
L 474.578358 196.644314 
L 476.570266 195.630226 
L 477.234236 195.074247 
L 477.898205 192.387107 
L 478.562175 189.144209 
L 481.882023 184.619821 
L 482.545992 181.232114 
L 483.209962 182.861991 
L 483.873931 180.576051 
L 485.86584 182.909176 
L 486.529809 180.359247 
L 487.193779 178.801519 
L 487.857749 181.368439 
L 488.521718 181.689957 
L 490.513627 181.734018 
L 491.177596 183.900292 
L 491.841566 179.596188 
L 492.505535 178.195831 
L 495.161413 193.153574 
L 495.825383 198.198893 
L 496.489353 196.101513 
L 497.153322 195.89224 
L 497.817292 193.760945 
L 499.8092 191.931803 
L 500.47317 199.835699 
L 501.137139 195.270885 
L 501.801109 196.081394 
L 502.465078 195.443563 
L 504.456987 192.772084 
L 505.120957 191.200755 
L 505.784926 187.669412 
L 506.448896 191.749312 
L 507.112865 190.133878 
L 509.104774 190.551449 
L 510.432713 204.104093 
L 511.096682 205.900645 
L 511.760652 202.263879 
L 513.752561 204.3203 
L 514.41653 204.363386 
L 515.0805 206.135171 
L 515.744469 218.106496 
L 516.408439 217.053974 
L 518.400347 223.444292 
L 519.064317 230.485511 
L 519.728286 229.51034 
L 520.392256 216.109571 
L 521.056225 215.396112 
L 523.048134 212.849705 
L 523.712104 215.025371 
L 524.376073 208.584435 
L 525.040043 207.150583 
L 525.704012 206.243601 
L 527.695921 209.704898 
L 528.35989 205.954314 
L 529.02386 203.002653 
L 529.687829 201.262656 
L 530.351799 203.965924 
L 532.343708 202.455203 
L 533.007677 201.746197 
L 533.671647 200.864425 
L 534.335616 205.473166 
L 534.999586 205.696993 
L 536.991494 207.960958 
L 537.655464 209.230529 
L 538.319433 207.270117 
L 538.983403 206.871242 
L 539.647373 207.120235 
L 541.639281 202.841363 
L 542.303251 203.752066 
L 542.96722 201.337709 
L 543.63119 202.311369 
L 544.295159 201.516567 
L 546.287068 200.560097 
L 546.951037 201.942201 
L 547.615007 204.312808 
L 548.278977 205.673468 
L 548.942946 205.686826 
L 550.934855 208.837282 
L 551.598824 208.33551 
L 552.262794 206.584216 
L 552.926763 206.543478 
L 553.590733 204.467497 
L 555.582641 200.491181 
L 556.246611 198.044039 
L 556.910581 198.010788 
L 558.23852 192.790045 
L 560.894398 188.253019 
L 561.558367 182.860396 
L 562.222337 184.344511 
L 562.886306 182.636613 
L 564.878215 180.149464 
L 565.542185 180.1062 
L 566.206154 184.283304 
L 566.870124 184.415687 
L 567.534093 188.831083 
L 569.526002 185.813475 
L 570.189971 185.737249 
L 570.853941 185.512868 
L 571.51791 183.46471 
L 572.18188 178.97424 
L 574.173789 175.950827 
L 574.837758 174.494003 
L 575.501728 175.909358 
L 576.165697 175.348174 
L 576.829667 172.921899 
L 578.821575 168.830236 
L 579.485545 166.27282 
L 580.149514 168.905067 
L 580.813484 163.151516 
L 581.477453 162.199632 
L 583.469362 161.735142 
L 584.133332 160.83773 
L 584.797301 157.976783 
L 584.797301 157.976783 
" clip-path="url(#p072480876e)" style="fill: none; stroke: #000000; stroke-width: 1.5; stroke-linecap: square"/>
   </g>
   <g id="patch_3">
    <path d="M 52.160938 354.958125 
L 52.160938 22.318125 
" style="fill: none; stroke: #000000; stroke-width: 0.8; stroke-linejoin: miter; stroke-linecap: square"/>
   </g>
   <g id="patch_4">
    <path d="M 610.160938 354.958125 
L 610.160938 22.318125 
" style="fill: none; stroke: #000000; stroke-width: 0.8; stroke-linejoin: miter; stroke-linecap: square"/>
   </g>
   <g id="patch_5">
    <path d="M 52.160938 354.958125 
L 610.160938 354.958125 
" style="fill: none; stroke: #000000; stroke-width: 0.8; stroke-linejoin: miter; stroke-linecap: square"/>
   </g>
   <g id="patch_6">
    <path d="M 52.160938 22.318125 
L 610.160938 22.318125 
" style="fill: none; stroke: #000000; stroke-width: 0.8; stroke-linejoin: miter; stroke-linecap: square"/>
   </g>
   <g id="text_17">
    <!-- Draw down Value Over Time -->
    <g transform="translate(246.082812 16.318125) scale(0.12 -0.12)">
     <defs>
      <path id="DejaVuSans-44" d="M 1259 4147 
L 1259 519 
L 2022 519 
Q 2988 519 3436 956 
Q 3884 1394 3884 2338 
Q 3884 3275 3436 3711 
Q 2988 4147 2022 4147 
L 1259 4147 
z
M 628 4666 
L 1925 4666 
Q 3281 4666 3915 4102 
Q 4550 3538 4550 2338 
Q 4550 1131 3912 565 
Q 3275 0 1925 0 
L 628 0 
L 628 4666 
z
" transform="scale(0.015625)"/>
      <path id="DejaVuSans-77" d="M 269 3500 
L 844 3500 
L 1563 769 
L 2278 3500 
L 2956 3500 
L 3675 769 
L 4391 3500 
L 4966 3500 
L 4050 0 
L 3372 0 
L 2619 2869 
L 1863 0 
L 1184 0 
L 269 3500 
z
" transform="scale(0.015625)"/>
      <path id="DejaVuSans-64" d="M 2906 2969 
L 2906 4863 
L 3481 4863 
L 3481 0 
L 2906 0 
L 2906 525 
Q 2725 213 2448 61 
Q 2172 -91 1784 -91 
Q 1150 -91 751 415 
Q 353 922 353 1747 
Q 353 2572 751 3078 
Q 1150 3584 1784 3584 
Q 2172 3584 2448 3432 
Q 2725 3281 2906 2969 
z
M 947 1747 
Q 947 1113 1208 752 
Q 1469 391 1925 391 
Q 2381 391 2643 752 
Q 2906 1113 2906 1747 
Q 2906 2381 2643 2742 
Q 2381 3103 1925 3103 
Q 1469 3103 1208 2742 
Q 947 2381 947 1747 
z
" transform="scale(0.015625)"/>
      <path id="DejaVuSans-6f" d="M 1959 3097 
Q 1497 3097 1228 2736 
Q 959 2375 959 1747 
Q 959 1119 1226 758 
Q 1494 397 1959 397 
Q 2419 397 2687 759 
Q 2956 1122 2956 1747 
Q 2956 2369 2687 2733 
Q 2419 3097 1959 3097 
z
M 1959 3584 
Q 2709 3584 3137 3096 
Q 3566 2609 3566 1747 
Q 3566 888 3137 398 
Q 2709 -91 1959 -91 
Q 1206 -91 779 398 
Q 353 888 353 1747 
Q 353 2609 779 3096 
Q 1206 3584 1959 3584 
z
" transform="scale(0.015625)"/>
      <path id="DejaVuSans-56" d="M 1831 0 
L 50 4666 
L 709 4666 
L 2188 738 
L 3669 4666 
L 4325 4666 
L 2547 0 
L 1831 0 
z
" transform="scale(0.015625)"/>
      <path id="DejaVuSans-6c" d="M 603 4863 
L 1178 4863 
L 1178 0 
L 603 0 
L 603 4863 
z
" transform="scale(0.015625)"/>
      <path id="DejaVuSans-75" d="M 544 1381 
L 544 3500 
L 1119 3500 
L 1119 1403 
Q 1119 906 1312 657 
Q 1506 409 1894 409 
Q 2359 409 2629 706 
Q 2900 1003 2900 1516 
L 2900 3500 
L 3475 3500 
L 3475 0 
L 2900 0 
L 2900 538 
Q 2691 219 2414 64 
Q 2138 -91 1772 -91 
Q 1169 -91 856 284 
Q 544 659 544 1381 
z
M 1991 3584 
L 1991 3584 
z
" transform="scale(0.015625)"/>
      <path id="DejaVuSans-4f" d="M 2522 4238 
Q 1834 4238 1429 3725 
Q 1025 3213 1025 2328 
Q 1025 1447 1429 934 
Q 1834 422 2522 422 
Q 3209 422 3611 934 
Q 4013 1447 4013 2328 
Q 4013 3213 3611 3725 
Q 3209 4238 2522 4238 
z
M 2522 4750 
Q 3503 4750 4090 4092 
Q 4678 3434 4678 2328 
Q 4678 1225 4090 567 
Q 3503 -91 2522 -91 
Q 1538 -91 948 565 
Q 359 1222 359 2328 
Q 359 3434 948 4092 
Q 1538 4750 2522 4750 
z
" transform="scale(0.015625)"/>
      <path id="DejaVuSans-76" d="M 191 3500 
L 800 3500 
L 1894 563 
L 2988 3500 
L 3597 3500 
L 2284 0 
L 1503 0 
L 191 3500 
z
" transform="scale(0.015625)"/>
     </defs>
     <use xlink:href="#DejaVuSans-44"/>
     <use xlink:href="#DejaVuSans-72" x="77.001953"/>
     <use xlink:href="#DejaVuSans-61" x="118.115234"/>
     <use xlink:href="#DejaVuSans-77" x="179.394531"/>
     <use xlink:href="#DejaVuSans-20" x="261.181641"/>
     <use xlink:href="#DejaVuSans-64" x="292.96875"/>
     <use xlink:href="#DejaVuSans-6f" x="356.445312"/>
     <use xlink:href="#DejaVuSans-77" x="417.626953"/>
     <use xlink:href="#DejaVuSans-6e" x="499.414062"/>
     <use xlink:href="#DejaVuSans-20" x="562.792969"/>
     <use xlink:href="#DejaVuSans-56" x="594.580078"/>
     <use xlink:href="#DejaVuSans-61" x="655.238281"/>
     <use xlink:href="#DejaVuSans-6c" x="716.517578"/>
     <use xlink:href="#DejaVuSans-75" x="744.300781"/>
     <use xlink:href="#DejaVuSans-65" x="807.679688"/>
     <use xlink:href="#DejaVuSans-20" x="869.203125"/>
     <use xlink:href="#DejaVuSans-4f" x="900.990234"/>
     <use xlink:href="#DejaVuSans-76" x="979.701172"/>
     <use xlink:href="#DejaVuSans-65" x="1038.880859"/>
     <use xlink:href="#DejaVuSans-72" x="1100.404297"/>
     <use xlink:href="#DejaVuSans-20" x="1141.517578"/>
     <use xlink:href="#DejaVuSans-54" x="1173.304688"/>
     <use xlink:href="#DejaVuSans-69" x="1231.263672"/>
     <use xlink:href="#DejaVuSans-6d" x="1259.046875"/>
     <use xlink:href="#DejaVuSans-65" x="1356.458984"/>
    </g>
   </g>
  </g>
 </g>
 <defs>
  <clipPath id="p072480876e">
   <rect x="52.160938" y="22.318125" width="558" height="332.64"/>
  </clipPath>
 </defs>
</svg>
