<?xml version="1.0" encoding="utf-8" standalone="no"?>
<!DOCTYPE svg PUBLIC "-//W3C//DTD SVG 1.1//EN"
  "http://www.w3.org/Graphics/SVG/1.1/DTD/svg11.dtd">
<svg xmlns:xlink="http://www.w3.org/1999/xlink" width="614.182812pt" height="392.514375pt" viewBox="0 0 614.182812 392.514375" xmlns="http://www.w3.org/2000/svg" version="1.1">
 <metadata>
  <rdf:RDF xmlns:dc="http://purl.org/dc/elements/1.1/" xmlns:cc="http://creativecommons.org/ns#" xmlns:rdf="http://www.w3.org/1999/02/22-rdf-syntax-ns#">
   <cc:Work>
    <dc:type rdf:resource="http://purl.org/dc/dcmitype/StillImage"/>
    <dc:date>2025-08-01T00:55:28.724184</dc:date>
    <dc:format>image/svg+xml</dc:format>
    <dc:creator>
     <cc:Agent>
      <dc:title>Matplotlib v3.9.1, https://matplotlib.org/</dc:title>
     </cc:Agent>
    </dc:creator>
   </cc:Work>
  </rdf:RDF>
 </metadata>
 <defs>
  <style type="text/css">*{stroke-linejoin: round; stroke-linecap: butt}</style>
 </defs>
 <g id="figure_1">
  <g id="patch_1">
   <path d="M 0 392.514375 
L 614.182812 392.514375 
L 614.182812 0 
L 0 0 
z
" style="fill: #ffffff"/>
  </g>
  <g id="axes_1">
   <g id="patch_2">
    <path d="M 48.982813 354.958125 
L 606.982813 354.958125 
L 606.982813 22.318125 
L 48.982813 22.318125 
z
" style="fill: #ffffff"/>
   </g>
   <g id="matplotlib.axis_1">
    <g id="xtick_1">
     <g id="line2d_1">
      <path d="M 72.35454 354.958125 
L 72.35454 22.318125 
" clip-path="url(#pcbb519b6cc)" style="fill: none; stroke: #b0b0b0; stroke-width: 0.8; stroke-linecap: square"/>
     </g>
     <g id="line2d_2">
      <defs>
       <path id="m36a4789bcc" d="M 0 0 
L 0 3.5 
" style="stroke: #000000; stroke-width: 0.8"/>
      </defs>
      <g>
       <use xlink:href="#m36a4789bcc" x="72.35454" y="354.958125" style="stroke: #000000; stroke-width: 0.8"/>
      </g>
     </g>
     <g id="text_1">
      <!-- 2022-01 -->
      <g transform="translate(51.463134 369.556562) scale(0.1 -0.1)">
       <defs>
        <path id="DejaVuSans-32" d="M 1228 531 
L 3431 531 
L 3431 0 
L 469 0 
L 469 531 
Q 828 903 1448 1529 
Q 2069 2156 2228 2338 
Q 2531 2678 2651 2914 
Q 2772 3150 2772 3378 
Q 2772 3750 2511 3984 
Q 2250 4219 1831 4219 
Q 1534 4219 1204 4116 
Q 875 4013 500 3803 
L 500 4441 
Q 881 4594 1212 4672 
Q 1544 4750 1819 4750 
Q 2544 4750 2975 4387 
Q 3406 4025 3406 3419 
Q 3406 3131 3298 2873 
Q 3191 2616 2906 2266 
Q 2828 2175 2409 1742 
Q 1991 1309 1228 531 
z
" transform="scale(0.015625)"/>
        <path id="DejaVuSans-30" d="M 2034 4250 
Q 1547 4250 1301 3770 
Q 1056 3291 1056 2328 
Q 1056 1369 1301 889 
Q 1547 409 2034 409 
Q 2525 409 2770 889 
Q 3016 1369 3016 2328 
Q 3016 3291 2770 3770 
Q 2525 4250 2034 4250 
z
M 2034 4750 
Q 2819 4750 3233 4129 
Q 3647 3509 3647 2328 
Q 3647 1150 3233 529 
Q 2819 -91 2034 -91 
Q 1250 -91 836 529 
Q 422 1150 422 2328 
Q 422 3509 836 4129 
Q 1250 4750 2034 4750 
z
" transform="scale(0.015625)"/>
        <path id="DejaVuSans-2d" d="M 313 2009 
L 1997 2009 
L 1997 1497 
L 313 1497 
L 313 2009 
z
" transform="scale(0.015625)"/>
        <path id="DejaVuSans-31" d="M 794 531 
L 1825 531 
L 1825 4091 
L 703 3866 
L 703 4441 
L 1819 4666 
L 2450 4666 
L 2450 531 
L 3481 531 
L 3481 0 
L 794 0 
L 794 531 
z
" transform="scale(0.015625)"/>
       </defs>
       <use xlink:href="#DejaVuSans-32"/>
       <use xlink:href="#DejaVuSans-30" x="63.623047"/>
       <use xlink:href="#DejaVuSans-32" x="127.246094"/>
       <use xlink:href="#DejaVuSans-32" x="190.869141"/>
       <use xlink:href="#DejaVuSans-2d" x="254.492188"/>
       <use xlink:href="#DejaVuSans-30" x="290.576172"/>
       <use xlink:href="#DejaVuSans-31" x="354.199219"/>
      </g>
     </g>
    </g>
    <g id="xtick_2">
     <g id="line2d_3">
      <path d="M 132.111799 354.958125 
L 132.111799 22.318125 
" clip-path="url(#pcbb519b6cc)" style="fill: none; stroke: #b0b0b0; stroke-width: 0.8; stroke-linecap: square"/>
     </g>
     <g id="line2d_4">
      <g>
       <use xlink:href="#m36a4789bcc" x="132.111799" y="354.958125" style="stroke: #000000; stroke-width: 0.8"/>
      </g>
     </g>
     <g id="text_2">
      <!-- 2022-04 -->
      <g transform="translate(111.220392 369.556562) scale(0.1 -0.1)">
       <defs>
        <path id="DejaVuSans-34" d="M 2419 4116 
L 825 1625 
L 2419 1625 
L 2419 4116 
z
M 2253 4666 
L 3047 4666 
L 3047 1625 
L 3713 1625 
L 3713 1100 
L 3047 1100 
L 3047 0 
L 2419 0 
L 2419 1100 
L 313 1100 
L 313 1709 
L 2253 4666 
z
" transform="scale(0.015625)"/>
       </defs>
       <use xlink:href="#DejaVuSans-32"/>
       <use xlink:href="#DejaVuSans-30" x="63.623047"/>
       <use xlink:href="#DejaVuSans-32" x="127.246094"/>
       <use xlink:href="#DejaVuSans-32" x="190.869141"/>
       <use xlink:href="#DejaVuSans-2d" x="254.492188"/>
       <use xlink:href="#DejaVuSans-30" x="290.576172"/>
       <use xlink:href="#DejaVuSans-34" x="354.199219"/>
      </g>
     </g>
    </g>
    <g id="xtick_3">
     <g id="line2d_5">
      <path d="M 192.533027 354.958125 
L 192.533027 22.318125 
" clip-path="url(#pcbb519b6cc)" style="fill: none; stroke: #b0b0b0; stroke-width: 0.8; stroke-linecap: square"/>
     </g>
     <g id="line2d_6">
      <g>
       <use xlink:href="#m36a4789bcc" x="192.533027" y="354.958125" style="stroke: #000000; stroke-width: 0.8"/>
      </g>
     </g>
     <g id="text_3">
      <!-- 2022-07 -->
      <g transform="translate(171.64162 369.556562) scale(0.1 -0.1)">
       <defs>
        <path id="DejaVuSans-37" d="M 525 4666 
L 3525 4666 
L 3525 4397 
L 1831 0 
L 1172 0 
L 2766 4134 
L 525 4134 
L 525 4666 
z
" transform="scale(0.015625)"/>
       </defs>
       <use xlink:href="#DejaVuSans-32"/>
       <use xlink:href="#DejaVuSans-30" x="63.623047"/>
       <use xlink:href="#DejaVuSans-32" x="127.246094"/>
       <use xlink:href="#DejaVuSans-32" x="190.869141"/>
       <use xlink:href="#DejaVuSans-2d" x="254.492188"/>
       <use xlink:href="#DejaVuSans-30" x="290.576172"/>
       <use xlink:href="#DejaVuSans-37" x="354.199219"/>
      </g>
     </g>
    </g>
    <g id="xtick_4">
     <g id="line2d_7">
      <path d="M 253.618224 354.958125 
L 253.618224 22.318125 
" clip-path="url(#pcbb519b6cc)" style="fill: none; stroke: #b0b0b0; stroke-width: 0.8; stroke-linecap: square"/>
     </g>
     <g id="line2d_8">
      <g>
       <use xlink:href="#m36a4789bcc" x="253.618224" y="354.958125" style="stroke: #000000; stroke-width: 0.8"/>
      </g>
     </g>
     <g id="text_4">
      <!-- 2022-10 -->
      <g transform="translate(232.726818 369.556562) scale(0.1 -0.1)">
       <use xlink:href="#DejaVuSans-32"/>
       <use xlink:href="#DejaVuSans-30" x="63.623047"/>
       <use xlink:href="#DejaVuSans-32" x="127.246094"/>
       <use xlink:href="#DejaVuSans-32" x="190.869141"/>
       <use xlink:href="#DejaVuSans-2d" x="254.492188"/>
       <use xlink:href="#DejaVuSans-31" x="290.576172"/>
       <use xlink:href="#DejaVuSans-30" x="354.199219"/>
      </g>
     </g>
    </g>
    <g id="xtick_5">
     <g id="line2d_9">
      <path d="M 314.703422 354.958125 
L 314.703422 22.318125 
" clip-path="url(#pcbb519b6cc)" style="fill: none; stroke: #b0b0b0; stroke-width: 0.8; stroke-linecap: square"/>
     </g>
     <g id="line2d_10">
      <g>
       <use xlink:href="#m36a4789bcc" x="314.703422" y="354.958125" style="stroke: #000000; stroke-width: 0.8"/>
      </g>
     </g>
     <g id="text_5">
      <!-- 2023-01 -->
      <g transform="translate(293.812015 369.556562) scale(0.1 -0.1)">
       <defs>
        <path id="DejaVuSans-33" d="M 2597 2516 
Q 3050 2419 3304 2112 
Q 3559 1806 3559 1356 
Q 3559 666 3084 287 
Q 2609 -91 1734 -91 
Q 1441 -91 1130 -33 
Q 819 25 488 141 
L 488 750 
Q 750 597 1062 519 
Q 1375 441 1716 441 
Q 2309 441 2620 675 
Q 2931 909 2931 1356 
Q 2931 1769 2642 2001 
Q 2353 2234 1838 2234 
L 1294 2234 
L 1294 2753 
L 1863 2753 
Q 2328 2753 2575 2939 
Q 2822 3125 2822 3475 
Q 2822 3834 2567 4026 
Q 2313 4219 1838 4219 
Q 1578 4219 1281 4162 
Q 984 4106 628 3988 
L 628 4550 
Q 988 4650 1302 4700 
Q 1616 4750 1894 4750 
Q 2613 4750 3031 4423 
Q 3450 4097 3450 3541 
Q 3450 3153 3228 2886 
Q 3006 2619 2597 2516 
z
" transform="scale(0.015625)"/>
       </defs>
       <use xlink:href="#DejaVuSans-32"/>
       <use xlink:href="#DejaVuSans-30" x="63.623047"/>
       <use xlink:href="#DejaVuSans-32" x="127.246094"/>
       <use xlink:href="#DejaVuSans-33" x="190.869141"/>
       <use xlink:href="#DejaVuSans-2d" x="254.492188"/>
       <use xlink:href="#DejaVuSans-30" x="290.576172"/>
       <use xlink:href="#DejaVuSans-31" x="354.199219"/>
      </g>
     </g>
    </g>
    <g id="xtick_6">
     <g id="line2d_11">
      <path d="M 374.46068 354.958125 
L 374.46068 22.318125 
" clip-path="url(#pcbb519b6cc)" style="fill: none; stroke: #b0b0b0; stroke-width: 0.8; stroke-linecap: square"/>
     </g>
     <g id="line2d_12">
      <g>
       <use xlink:href="#m36a4789bcc" x="374.46068" y="354.958125" style="stroke: #000000; stroke-width: 0.8"/>
      </g>
     </g>
     <g id="text_6">
      <!-- 2023-04 -->
      <g transform="translate(353.569274 369.556562) scale(0.1 -0.1)">
       <use xlink:href="#DejaVuSans-32"/>
       <use xlink:href="#DejaVuSans-30" x="63.623047"/>
       <use xlink:href="#DejaVuSans-32" x="127.246094"/>
       <use xlink:href="#DejaVuSans-33" x="190.869141"/>
       <use xlink:href="#DejaVuSans-2d" x="254.492188"/>
       <use xlink:href="#DejaVuSans-30" x="290.576172"/>
       <use xlink:href="#DejaVuSans-34" x="354.199219"/>
      </g>
     </g>
    </g>
    <g id="xtick_7">
     <g id="line2d_13">
      <path d="M 434.881908 354.958125 
L 434.881908 22.318125 
" clip-path="url(#pcbb519b6cc)" style="fill: none; stroke: #b0b0b0; stroke-width: 0.8; stroke-linecap: square"/>
     </g>
     <g id="line2d_14">
      <g>
       <use xlink:href="#m36a4789bcc" x="434.881908" y="354.958125" style="stroke: #000000; stroke-width: 0.8"/>
      </g>
     </g>
     <g id="text_7">
      <!-- 2023-07 -->
      <g transform="translate(413.990502 369.556562) scale(0.1 -0.1)">
       <use xlink:href="#DejaVuSans-32"/>
       <use xlink:href="#DejaVuSans-30" x="63.623047"/>
       <use xlink:href="#DejaVuSans-32" x="127.246094"/>
       <use xlink:href="#DejaVuSans-33" x="190.869141"/>
       <use xlink:href="#DejaVuSans-2d" x="254.492188"/>
       <use xlink:href="#DejaVuSans-30" x="290.576172"/>
       <use xlink:href="#DejaVuSans-37" x="354.199219"/>
      </g>
     </g>
    </g>
    <g id="xtick_8">
     <g id="line2d_15">
      <path d="M 495.967106 354.958125 
L 495.967106 22.318125 
" clip-path="url(#pcbb519b6cc)" style="fill: none; stroke: #b0b0b0; stroke-width: 0.8; stroke-linecap: square"/>
     </g>
     <g id="line2d_16">
      <g>
       <use xlink:href="#m36a4789bcc" x="495.967106" y="354.958125" style="stroke: #000000; stroke-width: 0.8"/>
      </g>
     </g>
     <g id="text_8">
      <!-- 2023-10 -->
      <g transform="translate(475.075699 369.556562) scale(0.1 -0.1)">
       <use xlink:href="#DejaVuSans-32"/>
       <use xlink:href="#DejaVuSans-30" x="63.623047"/>
       <use xlink:href="#DejaVuSans-32" x="127.246094"/>
       <use xlink:href="#DejaVuSans-33" x="190.869141"/>
       <use xlink:href="#DejaVuSans-2d" x="254.492188"/>
       <use xlink:href="#DejaVuSans-31" x="290.576172"/>
       <use xlink:href="#DejaVuSans-30" x="354.199219"/>
      </g>
     </g>
    </g>
    <g id="xtick_9">
     <g id="line2d_17">
      <path d="M 557.052303 354.958125 
L 557.052303 22.318125 
" clip-path="url(#pcbb519b6cc)" style="fill: none; stroke: #b0b0b0; stroke-width: 0.8; stroke-linecap: square"/>
     </g>
     <g id="line2d_18">
      <g>
       <use xlink:href="#m36a4789bcc" x="557.052303" y="354.958125" style="stroke: #000000; stroke-width: 0.8"/>
      </g>
     </g>
     <g id="text_9">
      <!-- 2024-01 -->
      <g transform="translate(536.160897 369.556562) scale(0.1 -0.1)">
       <use xlink:href="#DejaVuSans-32"/>
       <use xlink:href="#DejaVuSans-30" x="63.623047"/>
       <use xlink:href="#DejaVuSans-32" x="127.246094"/>
       <use xlink:href="#DejaVuSans-34" x="190.869141"/>
       <use xlink:href="#DejaVuSans-2d" x="254.492188"/>
       <use xlink:href="#DejaVuSans-30" x="290.576172"/>
       <use xlink:href="#DejaVuSans-31" x="354.199219"/>
      </g>
     </g>
    </g>
    <g id="text_10">
     <!-- Time Step -->
     <g transform="translate(302.775 383.234687) scale(0.1 -0.1)">
      <defs>
       <path id="DejaVuSans-54" d="M -19 4666 
L 3928 4666 
L 3928 4134 
L 2272 4134 
L 2272 0 
L 1638 0 
L 1638 4134 
L -19 4134 
L -19 4666 
z
" transform="scale(0.015625)"/>
       <path id="DejaVuSans-69" d="M 603 3500 
L 1178 3500 
L 1178 0 
L 603 0 
L 603 3500 
z
M 603 4863 
L 1178 4863 
L 1178 4134 
L 603 4134 
L 603 4863 
z
" transform="scale(0.015625)"/>
       <path id="DejaVuSans-6d" d="M 3328 2828 
Q 3544 3216 3844 3400 
Q 4144 3584 4550 3584 
Q 5097 3584 5394 3201 
Q 5691 2819 5691 2113 
L 5691 0 
L 5113 0 
L 5113 2094 
Q 5113 2597 4934 2840 
Q 4756 3084 4391 3084 
Q 3944 3084 3684 2787 
Q 3425 2491 3425 1978 
L 3425 0 
L 2847 0 
L 2847 2094 
Q 2847 2600 2669 2842 
Q 2491 3084 2119 3084 
Q 1678 3084 1418 2786 
Q 1159 2488 1159 1978 
L 1159 0 
L 581 0 
L 581 3500 
L 1159 3500 
L 1159 2956 
Q 1356 3278 1631 3431 
Q 1906 3584 2284 3584 
Q 2666 3584 2933 3390 
Q 3200 3197 3328 2828 
z
" transform="scale(0.015625)"/>
       <path id="DejaVuSans-65" d="M 3597 1894 
L 3597 1613 
L 953 1613 
Q 991 1019 1311 708 
Q 1631 397 2203 397 
Q 2534 397 2845 478 
Q 3156 559 3463 722 
L 3463 178 
Q 3153 47 2828 -22 
Q 2503 -91 2169 -91 
Q 1331 -91 842 396 
Q 353 884 353 1716 
Q 353 2575 817 3079 
Q 1281 3584 2069 3584 
Q 2775 3584 3186 3129 
Q 3597 2675 3597 1894 
z
M 3022 2063 
Q 3016 2534 2758 2815 
Q 2500 3097 2075 3097 
Q 1594 3097 1305 2825 
Q 1016 2553 972 2059 
L 3022 2063 
z
" transform="scale(0.015625)"/>
       <path id="DejaVuSans-20" transform="scale(0.015625)"/>
       <path id="DejaVuSans-53" d="M 3425 4513 
L 3425 3897 
Q 3066 4069 2747 4153 
Q 2428 4238 2131 4238 
Q 1616 4238 1336 4038 
Q 1056 3838 1056 3469 
Q 1056 3159 1242 3001 
Q 1428 2844 1947 2747 
L 2328 2669 
Q 3034 2534 3370 2195 
Q 3706 1856 3706 1288 
Q 3706 609 3251 259 
Q 2797 -91 1919 -91 
Q 1588 -91 1214 -16 
Q 841 59 441 206 
L 441 856 
Q 825 641 1194 531 
Q 1563 422 1919 422 
Q 2459 422 2753 634 
Q 3047 847 3047 1241 
Q 3047 1584 2836 1778 
Q 2625 1972 2144 2069 
L 1759 2144 
Q 1053 2284 737 2584 
Q 422 2884 422 3419 
Q 422 4038 858 4394 
Q 1294 4750 2059 4750 
Q 2388 4750 2728 4690 
Q 3069 4631 3425 4513 
z
" transform="scale(0.015625)"/>
       <path id="DejaVuSans-74" d="M 1172 4494 
L 1172 3500 
L 2356 3500 
L 2356 3053 
L 1172 3053 
L 1172 1153 
Q 1172 725 1289 603 
Q 1406 481 1766 481 
L 2356 481 
L 2356 0 
L 1766 0 
Q 1100 0 847 248 
Q 594 497 594 1153 
L 594 3053 
L 172 3053 
L 172 3500 
L 594 3500 
L 594 4494 
L 1172 4494 
z
" transform="scale(0.015625)"/>
       <path id="DejaVuSans-70" d="M 1159 525 
L 1159 -1331 
L 581 -1331 
L 581 3500 
L 1159 3500 
L 1159 2969 
Q 1341 3281 1617 3432 
Q 1894 3584 2278 3584 
Q 2916 3584 3314 3078 
Q 3713 2572 3713 1747 
Q 3713 922 3314 415 
Q 2916 -91 2278 -91 
Q 1894 -91 1617 61 
Q 1341 213 1159 525 
z
M 3116 1747 
Q 3116 2381 2855 2742 
Q 2594 3103 2138 3103 
Q 1681 3103 1420 2742 
Q 1159 2381 1159 1747 
Q 1159 1113 1420 752 
Q 1681 391 2138 391 
Q 2594 391 2855 752 
Q 3116 1113 3116 1747 
z
" transform="scale(0.015625)"/>
      </defs>
      <use xlink:href="#DejaVuSans-54"/>
      <use xlink:href="#DejaVuSans-69" x="57.958984"/>
      <use xlink:href="#DejaVuSans-6d" x="85.742188"/>
      <use xlink:href="#DejaVuSans-65" x="183.154297"/>
      <use xlink:href="#DejaVuSans-20" x="244.677734"/>
      <use xlink:href="#DejaVuSans-53" x="276.464844"/>
      <use xlink:href="#DejaVuSans-74" x="339.941406"/>
      <use xlink:href="#DejaVuSans-65" x="379.150391"/>
      <use xlink:href="#DejaVuSans-70" x="440.673828"/>
     </g>
    </g>
   </g>
   <g id="matplotlib.axis_2">
    <g id="ytick_1">
     <g id="line2d_19">
      <path d="M 48.982813 338.676182 
L 606.982813 338.676182 
" clip-path="url(#pcbb519b6cc)" style="fill: none; stroke: #b0b0b0; stroke-width: 0.8; stroke-linecap: square"/>
     </g>
     <g id="line2d_20">
      <defs>
       <path id="mca12ed3846" d="M 0 0 
L -3.5 0 
" style="stroke: #000000; stroke-width: 0.8"/>
      </defs>
      <g>
       <use xlink:href="#mca12ed3846" x="48.982813" y="338.676182" style="stroke: #000000; stroke-width: 0.8"/>
      </g>
     </g>
     <g id="text_11">
      <!-- −40 -->
      <g transform="translate(20.878125 342.475401) scale(0.1 -0.1)">
       <defs>
        <path id="DejaVuSans-2212" d="M 678 2272 
L 4684 2272 
L 4684 1741 
L 678 1741 
L 678 2272 
z
" transform="scale(0.015625)"/>
       </defs>
       <use xlink:href="#DejaVuSans-2212"/>
       <use xlink:href="#DejaVuSans-34" x="83.789062"/>
       <use xlink:href="#DejaVuSans-30" x="147.412109"/>
      </g>
     </g>
    </g>
    <g id="ytick_2">
     <g id="line2d_21">
      <path d="M 48.982813 287.265609 
L 606.982813 287.265609 
" clip-path="url(#pcbb519b6cc)" style="fill: none; stroke: #b0b0b0; stroke-width: 0.8; stroke-linecap: square"/>
     </g>
     <g id="line2d_22">
      <g>
       <use xlink:href="#mca12ed3846" x="48.982813" y="287.265609" style="stroke: #000000; stroke-width: 0.8"/>
      </g>
     </g>
     <g id="text_12">
      <!-- −30 -->
      <g transform="translate(20.878125 291.064828) scale(0.1 -0.1)">
       <use xlink:href="#DejaVuSans-2212"/>
       <use xlink:href="#DejaVuSans-33" x="83.789062"/>
       <use xlink:href="#DejaVuSans-30" x="147.412109"/>
      </g>
     </g>
    </g>
    <g id="ytick_3">
     <g id="line2d_23">
      <path d="M 48.982813 235.855036 
L 606.982813 235.855036 
" clip-path="url(#pcbb519b6cc)" style="fill: none; stroke: #b0b0b0; stroke-width: 0.8; stroke-linecap: square"/>
     </g>
     <g id="line2d_24">
      <g>
       <use xlink:href="#mca12ed3846" x="48.982813" y="235.855036" style="stroke: #000000; stroke-width: 0.8"/>
      </g>
     </g>
     <g id="text_13">
      <!-- −20 -->
      <g transform="translate(20.878125 239.654255) scale(0.1 -0.1)">
       <use xlink:href="#DejaVuSans-2212"/>
       <use xlink:href="#DejaVuSans-32" x="83.789062"/>
       <use xlink:href="#DejaVuSans-30" x="147.412109"/>
      </g>
     </g>
    </g>
    <g id="ytick_4">
     <g id="line2d_25">
      <path d="M 48.982813 184.444463 
L 606.982813 184.444463 
" clip-path="url(#pcbb519b6cc)" style="fill: none; stroke: #b0b0b0; stroke-width: 0.8; stroke-linecap: square"/>
     </g>
     <g id="line2d_26">
      <g>
       <use xlink:href="#mca12ed3846" x="48.982813" y="184.444463" style="stroke: #000000; stroke-width: 0.8"/>
      </g>
     </g>
     <g id="text_14">
      <!-- −10 -->
      <g transform="translate(20.878125 188.243681) scale(0.1 -0.1)">
       <use xlink:href="#DejaVuSans-2212"/>
       <use xlink:href="#DejaVuSans-31" x="83.789062"/>
       <use xlink:href="#DejaVuSans-30" x="147.412109"/>
      </g>
     </g>
    </g>
    <g id="ytick_5">
     <g id="line2d_27">
      <path d="M 48.982813 133.033889 
L 606.982813 133.033889 
" clip-path="url(#pcbb519b6cc)" style="fill: none; stroke: #b0b0b0; stroke-width: 0.8; stroke-linecap: square"/>
     </g>
     <g id="line2d_28">
      <g>
       <use xlink:href="#mca12ed3846" x="48.982813" y="133.033889" style="stroke: #000000; stroke-width: 0.8"/>
      </g>
     </g>
     <g id="text_15">
      <!-- 0 -->
      <g transform="translate(35.620312 136.833108) scale(0.1 -0.1)">
       <use xlink:href="#DejaVuSans-30"/>
      </g>
     </g>
    </g>
    <g id="ytick_6">
     <g id="line2d_29">
      <path d="M 48.982813 81.623316 
L 606.982813 81.623316 
" clip-path="url(#pcbb519b6cc)" style="fill: none; stroke: #b0b0b0; stroke-width: 0.8; stroke-linecap: square"/>
     </g>
     <g id="line2d_30">
      <g>
       <use xlink:href="#mca12ed3846" x="48.982813" y="81.623316" style="stroke: #000000; stroke-width: 0.8"/>
      </g>
     </g>
     <g id="text_16">
      <!-- 10 -->
      <g transform="translate(29.257812 85.422535) scale(0.1 -0.1)">
       <use xlink:href="#DejaVuSans-31"/>
       <use xlink:href="#DejaVuSans-30" x="63.623047"/>
      </g>
     </g>
    </g>
    <g id="ytick_7">
     <g id="line2d_31">
      <path d="M 48.982813 30.212743 
L 606.982813 30.212743 
" clip-path="url(#pcbb519b6cc)" style="fill: none; stroke: #b0b0b0; stroke-width: 0.8; stroke-linecap: square"/>
     </g>
     <g id="line2d_32">
      <g>
       <use xlink:href="#mca12ed3846" x="48.982813" y="30.212743" style="stroke: #000000; stroke-width: 0.8"/>
      </g>
     </g>
     <g id="text_17">
      <!-- 20 -->
      <g transform="translate(29.257812 34.011962) scale(0.1 -0.1)">
       <use xlink:href="#DejaVuSans-32"/>
       <use xlink:href="#DejaVuSans-30" x="63.623047"/>
      </g>
     </g>
    </g>
    <g id="text_18">
     <!-- Holding Period Return (%) -->
     <g transform="translate(14.798437 253.352187) rotate(-90) scale(0.1 -0.1)">
      <defs>
       <path id="DejaVuSans-48" d="M 628 4666 
L 1259 4666 
L 1259 2753 
L 3553 2753 
L 3553 4666 
L 4184 4666 
L 4184 0 
L 3553 0 
L 3553 2222 
L 1259 2222 
L 1259 0 
L 628 0 
L 628 4666 
z
" transform="scale(0.015625)"/>
       <path id="DejaVuSans-6f" d="M 1959 3097 
Q 1497 3097 1228 2736 
Q 959 2375 959 1747 
Q 959 1119 1226 758 
Q 1494 397 1959 397 
Q 2419 397 2687 759 
Q 2956 1122 2956 1747 
Q 2956 2369 2687 2733 
Q 2419 3097 1959 3097 
z
M 1959 3584 
Q 2709 3584 3137 3096 
Q 3566 2609 3566 1747 
Q 3566 888 3137 398 
Q 2709 -91 1959 -91 
Q 1206 -91 779 398 
Q 353 888 353 1747 
Q 353 2609 779 3096 
Q 1206 3584 1959 3584 
z
" transform="scale(0.015625)"/>
       <path id="DejaVuSans-6c" d="M 603 4863 
L 1178 4863 
L 1178 0 
L 603 0 
L 603 4863 
z
" transform="scale(0.015625)"/>
       <path id="DejaVuSans-64" d="M 2906 2969 
L 2906 4863 
L 3481 4863 
L 3481 0 
L 2906 0 
L 2906 525 
Q 2725 213 2448 61 
Q 2172 -91 1784 -91 
Q 1150 -91 751 415 
Q 353 922 353 1747 
Q 353 2572 751 3078 
Q 1150 3584 1784 3584 
Q 2172 3584 2448 3432 
Q 2725 3281 2906 2969 
z
M 947 1747 
Q 947 1113 1208 752 
Q 1469 391 1925 391 
Q 2381 391 2643 752 
Q 2906 1113 2906 1747 
Q 2906 2381 2643 2742 
Q 2381 3103 1925 3103 
Q 1469 3103 1208 2742 
Q 947 2381 947 1747 
z
" transform="scale(0.015625)"/>
       <path id="DejaVuSans-6e" d="M 3513 2113 
L 3513 0 
L 2938 0 
L 2938 2094 
Q 2938 2591 2744 2837 
Q 2550 3084 2163 3084 
Q 1697 3084 1428 2787 
Q 1159 2491 1159 1978 
L 1159 0 
L 581 0 
L 581 3500 
L 1159 3500 
L 1159 2956 
Q 1366 3272 1645 3428 
Q 1925 3584 2291 3584 
Q 2894 3584 3203 3211 
Q 3513 2838 3513 2113 
z
" transform="scale(0.015625)"/>
       <path id="DejaVuSans-67" d="M 2906 1791 
Q 2906 2416 2648 2759 
Q 2391 3103 1925 3103 
Q 1463 3103 1205 2759 
Q 947 2416 947 1791 
Q 947 1169 1205 825 
Q 1463 481 1925 481 
Q 2391 481 2648 825 
Q 2906 1169 2906 1791 
z
M 3481 434 
Q 3481 -459 3084 -895 
Q 2688 -1331 1869 -1331 
Q 1566 -1331 1297 -1286 
Q 1028 -1241 775 -1147 
L 775 -588 
Q 1028 -725 1275 -790 
Q 1522 -856 1778 -856 
Q 2344 -856 2625 -561 
Q 2906 -266 2906 331 
L 2906 616 
Q 2728 306 2450 153 
Q 2172 0 1784 0 
Q 1141 0 747 490 
Q 353 981 353 1791 
Q 353 2603 747 3093 
Q 1141 3584 1784 3584 
Q 2172 3584 2450 3431 
Q 2728 3278 2906 2969 
L 2906 3500 
L 3481 3500 
L 3481 434 
z
" transform="scale(0.015625)"/>
       <path id="DejaVuSans-50" d="M 1259 4147 
L 1259 2394 
L 2053 2394 
Q 2494 2394 2734 2622 
Q 2975 2850 2975 3272 
Q 2975 3691 2734 3919 
Q 2494 4147 2053 4147 
L 1259 4147 
z
M 628 4666 
L 2053 4666 
Q 2838 4666 3239 4311 
Q 3641 3956 3641 3272 
Q 3641 2581 3239 2228 
Q 2838 1875 2053 1875 
L 1259 1875 
L 1259 0 
L 628 0 
L 628 4666 
z
" transform="scale(0.015625)"/>
       <path id="DejaVuSans-72" d="M 2631 2963 
Q 2534 3019 2420 3045 
Q 2306 3072 2169 3072 
Q 1681 3072 1420 2755 
Q 1159 2438 1159 1844 
L 1159 0 
L 581 0 
L 581 3500 
L 1159 3500 
L 1159 2956 
Q 1341 3275 1631 3429 
Q 1922 3584 2338 3584 
Q 2397 3584 2469 3576 
Q 2541 3569 2628 3553 
L 2631 2963 
z
" transform="scale(0.015625)"/>
       <path id="DejaVuSans-52" d="M 2841 2188 
Q 3044 2119 3236 1894 
Q 3428 1669 3622 1275 
L 4263 0 
L 3584 0 
L 2988 1197 
Q 2756 1666 2539 1819 
Q 2322 1972 1947 1972 
L 1259 1972 
L 1259 0 
L 628 0 
L 628 4666 
L 2053 4666 
Q 2853 4666 3247 4331 
Q 3641 3997 3641 3322 
Q 3641 2881 3436 2590 
Q 3231 2300 2841 2188 
z
M 1259 4147 
L 1259 2491 
L 2053 2491 
Q 2509 2491 2742 2702 
Q 2975 2913 2975 3322 
Q 2975 3731 2742 3939 
Q 2509 4147 2053 4147 
L 1259 4147 
z
" transform="scale(0.015625)"/>
       <path id="DejaVuSans-75" d="M 544 1381 
L 544 3500 
L 1119 3500 
L 1119 1403 
Q 1119 906 1312 657 
Q 1506 409 1894 409 
Q 2359 409 2629 706 
Q 2900 1003 2900 1516 
L 2900 3500 
L 3475 3500 
L 3475 0 
L 2900 0 
L 2900 538 
Q 2691 219 2414 64 
Q 2138 -91 1772 -91 
Q 1169 -91 856 284 
Q 544 659 544 1381 
z
M 1991 3584 
L 1991 3584 
z
" transform="scale(0.015625)"/>
       <path id="DejaVuSans-28" d="M 1984 4856 
Q 1566 4138 1362 3434 
Q 1159 2731 1159 2009 
Q 1159 1288 1364 580 
Q 1569 -128 1984 -844 
L 1484 -844 
Q 1016 -109 783 600 
Q 550 1309 550 2009 
Q 550 2706 781 3412 
Q 1013 4119 1484 4856 
L 1984 4856 
z
" transform="scale(0.015625)"/>
       <path id="DejaVuSans-25" d="M 4653 2053 
Q 4381 2053 4226 1822 
Q 4072 1591 4072 1178 
Q 4072 772 4226 539 
Q 4381 306 4653 306 
Q 4919 306 5073 539 
Q 5228 772 5228 1178 
Q 5228 1588 5073 1820 
Q 4919 2053 4653 2053 
z
M 4653 2450 
Q 5147 2450 5437 2106 
Q 5728 1763 5728 1178 
Q 5728 594 5436 251 
Q 5144 -91 4653 -91 
Q 4153 -91 3862 251 
Q 3572 594 3572 1178 
Q 3572 1766 3864 2108 
Q 4156 2450 4653 2450 
z
M 1428 4353 
Q 1159 4353 1004 4120 
Q 850 3888 850 3481 
Q 850 3069 1003 2837 
Q 1156 2606 1428 2606 
Q 1700 2606 1854 2837 
Q 2009 3069 2009 3481 
Q 2009 3884 1853 4118 
Q 1697 4353 1428 4353 
z
M 4250 4750 
L 4750 4750 
L 1831 -91 
L 1331 -91 
L 4250 4750 
z
M 1428 4750 
Q 1922 4750 2215 4408 
Q 2509 4066 2509 3481 
Q 2509 2891 2217 2550 
Q 1925 2209 1428 2209 
Q 931 2209 642 2551 
Q 353 2894 353 3481 
Q 353 4063 643 4406 
Q 934 4750 1428 4750 
z
" transform="scale(0.015625)"/>
       <path id="DejaVuSans-29" d="M 513 4856 
L 1013 4856 
Q 1481 4119 1714 3412 
Q 1947 2706 1947 2009 
Q 1947 1309 1714 600 
Q 1481 -109 1013 -844 
L 513 -844 
Q 928 -128 1133 580 
Q 1338 1288 1338 2009 
Q 1338 2731 1133 3434 
Q 928 4138 513 4856 
z
" transform="scale(0.015625)"/>
      </defs>
      <use xlink:href="#DejaVuSans-48"/>
      <use xlink:href="#DejaVuSans-6f" x="75.195312"/>
      <use xlink:href="#DejaVuSans-6c" x="136.376953"/>
      <use xlink:href="#DejaVuSans-64" x="164.160156"/>
      <use xlink:href="#DejaVuSans-69" x="227.636719"/>
      <use xlink:href="#DejaVuSans-6e" x="255.419922"/>
      <use xlink:href="#DejaVuSans-67" x="318.798828"/>
      <use xlink:href="#DejaVuSans-20" x="382.275391"/>
      <use xlink:href="#DejaVuSans-50" x="414.0625"/>
      <use xlink:href="#DejaVuSans-65" x="470.740234"/>
      <use xlink:href="#DejaVuSans-72" x="532.263672"/>
      <use xlink:href="#DejaVuSans-69" x="573.376953"/>
      <use xlink:href="#DejaVuSans-6f" x="601.160156"/>
      <use xlink:href="#DejaVuSans-64" x="662.341797"/>
      <use xlink:href="#DejaVuSans-20" x="725.818359"/>
      <use xlink:href="#DejaVuSans-52" x="757.605469"/>
      <use xlink:href="#DejaVuSans-65" x="822.587891"/>
      <use xlink:href="#DejaVuSans-74" x="884.111328"/>
      <use xlink:href="#DejaVuSans-75" x="923.320312"/>
      <use xlink:href="#DejaVuSans-72" x="986.699219"/>
      <use xlink:href="#DejaVuSans-6e" x="1026.0625"/>
      <use xlink:href="#DejaVuSans-20" x="1089.441406"/>
      <use xlink:href="#DejaVuSans-28" x="1121.228516"/>
      <use xlink:href="#DejaVuSans-25" x="1160.242188"/>
      <use xlink:href="#DejaVuSans-29" x="1255.261719"/>
     </g>
    </g>
   </g>
   <g id="line2d_33">
    <path d="M 74.346449 133.033889 
L 90.281718 133.033889 
L 96.921413 124.799605 
L 97.585383 121.818512 
L 98.249352 114.869858 
L 98.913322 112.367192 
L 99.577291 110.629617 
L 101.5692 109.767359 
L 102.233169 110.260695 
L 102.897139 108.934302 
L 103.561109 105.223076 
L 104.225078 102.788991 
L 106.216987 99.908765 
L 106.880956 100.378555 
L 107.544926 95.400983 
L 108.208895 100.567334 
L 108.872865 97.201587 
L 111.528743 93.055822 
L 112.192713 94.458611 
L 112.856682 87.516744 
L 113.520652 84.992279 
L 115.51256 79.772975 
L 116.17653 85.877055 
L 116.840499 80.222715 
L 117.504469 79.556639 
L 118.168438 81.543761 
L 120.160347 84.640939 
L 120.824317 86.864035 
L 121.488286 85.853098 
L 122.152256 82.870051 
L 122.816225 77.87685 
L 124.808134 71.676427 
L 125.472103 67.71699 
L 126.136073 60.893676 
L 126.800042 57.010738 
L 127.464012 50.538558 
L 129.455921 46.484423 
L 130.11989 39.03061 
L 131.447829 42.862754 
L 132.111799 42.699792 
L 134.767677 37.438125 
L 135.431646 40.762641 
L 136.095616 42.270616 
L 136.759585 44.550264 
L 139.415464 51.863315 
L 140.079433 49.685563 
L 140.743403 44.759093 
L 143.399281 55.582973 
L 144.72722 70.097103 
L 145.391189 72.678222 
L 146.055159 73.217622 
L 148.047068 92.397673 
L 149.375007 78.943115 
L 150.038976 78.467978 
L 150.702946 74.67871 
L 154.022793 78.062255 
L 154.686763 81.940977 
L 155.350733 93.554832 
L 157.342641 121.931514 
L 158.67058 106.784109 
L 159.33455 126.936539 
L 159.998519 153.5083 
L 161.990428 147.455116 
L 162.654397 126.836186 
L 163.318367 125.667418 
L 163.982337 124.739868 
L 164.646306 121.817177 
L 166.638215 126.385726 
L 167.302184 128.213372 
L 167.966154 116.725577 
L 168.630123 110.30964 
L 169.294093 109.678113 
L 171.286001 105.475915 
L 171.949971 105.801858 
L 172.613941 106.499061 
L 173.94188 112.445722 
L 175.933788 114.819924 
L 176.597758 121.557177 
L 177.261727 111.179089 
L 177.925697 112.579143 
L 178.589666 116.889734 
L 180.581575 137.726974 
L 181.245545 139.896521 
L 181.909514 149.619062 
L 182.573484 144.335886 
L 183.237453 153.728124 
L 185.229362 166.144539 
L 185.893331 181.067589 
L 186.557301 183.722718 
L 187.22127 177.550345 
L 187.88524 176.616523 
L 189.877149 173.278146 
L 190.541118 167.826631 
L 191.205088 167.093331 
L 191.869057 172.850472 
L 192.533027 175.301686 
L 194.524935 175.612391 
L 195.852874 189.409364 
L 196.516844 187.941798 
L 197.180813 180.496107 
L 199.172722 180.234777 
L 199.836692 171.184501 
L 201.164631 167.506198 
L 201.8286 166.352647 
L 203.820509 161.686953 
L 204.484478 161.516578 
L 205.148448 155.228448 
L 205.812417 158.644825 
L 206.476387 157.568986 
L 208.468296 159.455117 
L 209.132265 162.223474 
L 209.796235 160.968151 
L 210.460204 154.482851 
L 211.124174 155.850434 
L 213.116082 149.52606 
L 213.780052 145.532157 
L 214.444021 139.947982 
L 215.107991 137.013919 
L 215.771961 137.283783 
L 217.763869 135.349368 
L 218.427839 130.274918 
L 219.091808 128.153533 
L 219.755778 130.996003 
L 220.419747 127.695382 
L 222.411656 125.077679 
L 223.075625 126.309579 
L 223.739595 127.849018 
L 224.403565 131.187929 
L 225.067534 133.7323 
L 227.059443 136.887017 
L 228.387382 128.628505 
L 229.051351 124.650725 
L 229.715321 128.040861 
L 231.707229 134.942258 
L 232.371199 135.513676 
L 233.035169 134.813958 
L 236.355016 133.099195 
L 237.018986 134.96141 
L 237.682955 144.389801 
L 238.346925 144.54504 
L 239.010894 142.425608 
L 241.002803 141.356165 
L 241.666773 141.208761 
L 242.330742 144.176611 
L 242.994712 141.854601 
L 243.658681 145.509441 
L 245.65059 158.309131 
L 246.314559 156.562056 
L 246.978529 156.047868 
L 247.642498 154.997838 
L 250.298377 169.626367 
L 250.962346 169.356564 
L 251.626316 178.378318 
L 252.290285 180.554712 
L 252.954255 184.069735 
L 254.946163 200.12527 
L 255.610133 204.546497 
L 256.274102 196.514273 
L 256.938072 206.978587 
L 257.602041 223.958903 
L 259.59395 218.335409 
L 260.25792 232.654138 
L 260.921889 226.707066 
L 261.585859 223.046962 
L 262.249828 220.372358 
L 264.241737 221.149336 
L 264.905706 216.867308 
L 266.233645 222.252113 
L 266.897615 235.185965 
L 269.553493 253.076947 
L 270.217463 258.182017 
L 270.881432 246.465362 
L 271.545402 247.080171 
L 273.53731 250.705295 
L 274.20128 246.596354 
L 274.865249 246.624917 
L 275.529219 247.61163 
L 276.193189 256.071281 
L 278.185097 268.045153 
L 278.849067 269.193316 
L 279.513036 269.128806 
L 280.177006 283.774773 
L 280.840975 290.002054 
L 282.832884 303.41863 
L 283.496853 318.15944 
L 284.160823 304.521284 
L 284.824793 296.683557 
L 285.488762 291.108389 
L 288.14464 283.617313 
L 288.80861 286.921676 
L 289.472579 287.699457 
L 290.136549 280.384061 
L 292.128457 267.692538 
L 292.792427 262.144083 
L 293.456397 258.121699 
L 294.120366 253.291165 
L 294.784336 247.338047 
L 296.776244 244.262707 
L 297.440214 253.166299 
L 298.104183 259.992657 
L 298.768153 256.713546 
L 299.432122 254.811561 
L 301.424031 254.963633 
L 302.088001 254.730414 
L 302.75197 252.618406 
L 303.41594 254.197595 
L 304.079909 252.323721 
L 306.071818 252.146025 
L 306.735787 260.341303 
L 307.399757 264.555797 
L 308.063726 263.158293 
L 308.727696 263.197119 
L 310.719605 271.212952 
L 311.383574 267.500554 
L 312.047544 264.666968 
L 312.711513 264.020983 
L 313.375483 260.965633 
L 316.031361 254.572398 
L 316.69533 251.039484 
L 317.3593 249.614589 
L 318.023269 251.147138 
L 320.015178 251.460146 
L 320.679148 253.218779 
L 321.343117 253.436554 
L 322.671056 252.046679 
L 324.662965 251.600292 
L 325.990904 242.515262 
L 326.654873 237.315226 
L 331.96663 232.573814 
L 333.958538 229.306652 
L 334.622508 226.129828 
L 335.286477 231.534782 
L 335.950447 234.188679 
L 336.614416 234.639817 
L 338.606325 233.312683 
L 339.270295 235.176749 
L 339.934264 234.366045 
L 340.598234 231.93342 
L 341.262203 235.277719 
L 343.254112 238.964412 
L 343.918081 238.2693 
L 344.582051 235.731777 
L 345.24602 234.296044 
L 345.90999 233.277251 
L 347.901899 226.332423 
L 348.565868 224.777644 
L 350.557777 231.122819 
L 352.549685 234.601629 
L 353.213655 234.355372 
L 353.877624 230.32761 
L 354.541594 231.358166 
L 355.205564 232.759536 
L 357.197472 232.091054 
L 357.861442 232.57125 
L 358.525411 230.732417 
L 359.189381 228.096802 
L 359.85335 229.568975 
L 361.845259 232.351356 
L 362.509228 236.892082 
L 363.173198 231.463804 
L 363.837168 234.67898 
L 364.501137 233.578979 
L 366.493046 237.497473 
L 367.157015 233.939943 
L 367.820985 234.382033 
L 368.484954 235.559787 
L 369.148924 235.638302 
L 371.140832 234.3473 
L 371.804802 233.765044 
L 372.468772 233.913971 
L 373.132741 234.554197 
L 373.796711 234.154017 
L 375.788619 231.423397 
L 377.116558 225.973568 
L 377.780528 224.723653 
L 378.444497 223.114811 
L 380.436406 223.214506 
L 381.100376 222.525707 
L 381.764345 220.571365 
L 382.428315 221.519849 
L 383.092284 225.197227 
L 385.084193 226.309094 
L 387.076101 222.960641 
L 387.740071 224.324152 
L 389.73198 225.031335 
L 390.395949 226.805473 
L 391.723888 223.208399 
L 392.387858 223.078124 
L 397.035644 223.276885 
L 399.027553 220.5381 
L 399.691523 220.506616 
L 400.355492 217.405963 
L 401.019462 216.072804 
L 401.683431 213.006678 
L 403.67534 213.977412 
L 404.339309 213.109766 
L 405.003279 213.584923 
L 405.667248 210.644238 
L 406.331218 210.753907 
L 408.323127 208.781037 
L 408.987096 209.145497 
L 409.651066 208.14371 
L 410.315035 208.14772 
L 410.979005 205.774978 
L 414.298852 198.415493 
L 414.962822 194.58241 
L 415.626792 194.1272 
L 417.6187 190.25218 
L 418.28267 189.376205 
L 418.946639 190.481923 
L 419.610609 189.539444 
L 420.274578 188.872999 
L 422.266487 184.181373 
L 422.930456 184.145735 
L 423.594426 186.556006 
L 424.258396 189.749199 
L 424.922365 191.592577 
L 426.914274 193.995589 
L 427.578243 190.361067 
L 428.242213 187.61272 
L 428.906182 185.377984 
L 429.570152 184.48307 
L 431.56206 184.943092 
L 432.22603 183.447456 
L 432.89 180.028241 
L 433.553969 181.984496 
L 434.217939 182.249466 
L 436.209847 177.579489 
L 436.873817 178.955606 
L 437.537786 178.518616 
L 438.201756 182.008119 
L 443.513512 169.704232 
L 445.505421 170.146075 
L 446.16939 173.427756 
L 446.83336 171.86253 
L 447.497329 169.423427 
L 448.161299 169.208367 
L 450.153208 172.194005 
L 450.817177 172.037717 
L 451.481147 172.122215 
L 452.145116 174.881544 
L 452.809086 173.994712 
L 454.800994 173.897422 
L 455.464964 176.662705 
L 456.128933 175.749016 
L 456.792903 177.914902 
L 457.456872 176.128302 
L 459.448781 173.899099 
L 460.112751 172.784908 
L 460.77672 174.474424 
L 461.44069 174.5151 
L 462.104659 175.44594 
L 464.096568 173.448064 
L 464.760537 170.793468 
L 465.424507 172.448807 
L 466.088476 174.869401 
L 466.752446 188.210713 
L 468.744355 188.754965 
L 469.408324 190.790043 
L 470.072294 189.161541 
L 470.736263 186.603721 
L 471.400233 185.231017 
L 473.392141 184.289628 
L 474.056111 183.773507 
L 474.72008 181.279004 
L 475.38405 178.268586 
L 478.703898 174.068545 
L 479.367867 170.923699 
L 480.031837 172.436733 
L 480.695806 170.314669 
L 482.687715 172.480535 
L 483.351684 170.113407 
L 484.015654 168.667351 
L 484.679624 171.050251 
L 485.343593 171.34872 
L 487.335502 171.389623 
L 487.999471 173.400599 
L 488.663441 169.405051 
L 489.32741 168.105083 
L 491.983288 181.990524 
L 492.647258 186.674151 
L 493.311228 184.727129 
L 493.975197 184.532859 
L 494.639167 182.554354 
L 496.631075 180.85634 
L 497.295045 188.193616 
L 497.959014 183.956048 
L 498.622984 184.708452 
L 499.286953 184.116347 
L 501.278862 181.636383 
L 501.942832 180.1777 
L 502.606801 176.899515 
L 503.270771 180.686932 
L 503.93474 179.187306 
L 505.926649 179.574942 
L 507.254588 192.156014 
L 507.918557 193.823773 
L 508.582527 190.447723 
L 510.574436 192.356721 
L 511.238405 192.396719 
L 511.902375 194.041487 
L 512.566344 205.154602 
L 513.230314 204.177534 
L 515.222222 210.109738 
L 515.886192 216.646181 
L 516.550161 215.740918 
L 517.214131 203.300834 
L 517.8781 202.638522 
L 519.870009 200.274664 
L 520.533979 202.294359 
L 521.197948 196.315166 
L 521.861918 194.984105 
L 522.525887 194.142144 
L 524.517796 197.355304 
L 525.181765 193.873595 
L 525.845735 191.133535 
L 526.509704 189.518277 
L 527.173674 192.02775 
L 529.165583 190.625331 
L 529.829552 189.967153 
L 530.493522 189.148594 
L 531.157491 193.42694 
L 531.821461 193.634721 
L 533.813369 195.736386 
L 534.477339 196.914942 
L 535.141308 195.095069 
L 535.805278 194.72479 
L 536.469248 194.955933 
L 538.461156 190.983808 
L 539.125126 191.829224 
L 539.789095 189.587949 
L 540.453065 190.491809 
L 541.117034 189.753985 
L 543.108943 188.866083 
L 543.772912 190.149106 
L 544.436882 192.349766 
L 545.100852 193.612883 
L 545.764821 193.625283 
L 547.75673 196.549887 
L 548.420699 196.084086 
L 549.084669 194.45834 
L 549.748638 194.420522 
L 550.412608 192.493366 
L 552.404516 188.802108 
L 553.068486 186.530398 
L 553.732456 186.499531 
L 555.060395 181.653056 
L 557.716273 177.441284 
L 558.380242 172.435251 
L 559.044212 173.812973 
L 559.708181 172.227512 
L 561.70009 169.918663 
L 562.36406 169.878501 
L 563.028029 173.756154 
L 563.691999 173.879045 
L 564.355968 177.977908 
L 566.347877 175.176628 
L 567.011846 175.105866 
L 567.675816 174.897571 
L 568.339785 172.996244 
L 569.003755 168.827689 
L 570.995664 166.021022 
L 571.659633 164.668636 
L 572.323603 165.982525 
L 572.987572 165.461572 
L 573.651542 163.209233 
L 575.64345 159.410897 
L 576.30742 157.036818 
L 576.971389 159.480363 
L 577.635359 154.139277 
L 578.299328 153.255632 
L 580.291237 152.824442 
L 580.955207 151.991364 
L 581.619176 149.335514 
L 581.619176 149.335514 
" clip-path="url(#pcbb519b6cc)" style="fill: none; stroke: #000000; stroke-width: 1.5; stroke-linecap: square"/>
   </g>
   <g id="line2d_34">
    <path d="M 74.346449 133.033889 
L 75.010418 134.07182 
L 75.674388 132.026288 
L 76.338357 132.056617 
L 78.330266 140.403868 
L 78.994236 144.245558 
L 79.658205 138.112334 
L 80.322175 142.985214 
L 80.986144 142.995324 
L 83.642022 162.230733 
L 84.305992 160.93332 
L 84.969961 153.347667 
L 85.633931 150.789911 
L 87.62584 161.97125 
L 88.289809 148.535445 
L 88.953779 147.861465 
L 89.617748 151.5077 
L 90.281718 148.744379 
L 96.921413 142.44266 
L 97.585383 141.320482 
L 98.249352 139.841094 
L 98.913322 139.365938 
L 99.577291 141.077849 
L 101.5692 151.103312 
L 102.233169 144.097282 
L 102.897139 144.316326 
L 103.561109 138.96155 
L 104.225078 140.023069 
L 106.216987 138.001127 
L 106.880956 140.484746 
L 107.544926 137.509121 
L 108.208895 143.389603 
L 108.872865 142.028162 
L 110.864773 144.980197 
L 111.528743 142.065231 
L 112.192713 146.533723 
L 112.856682 139.969151 
L 113.520652 139.857944 
L 115.51256 141.974243 
L 116.17653 150.513579 
L 116.840499 150.503469 
L 117.504469 148.703941 
L 118.168438 152.929799 
L 120.160347 159.767334 
L 121.488286 155.3595 
L 122.152256 154.682149 
L 122.816225 152.067104 
L 125.472103 140.380279 
L 126.136073 140.865545 
L 126.800042 142.240466 
L 127.464012 142.159588 
L 129.455921 147.32228 
L 130.11989 142.408961 
L 130.78386 144.852141 
L 131.447829 144.299477 
L 132.111799 136.113981 
L 134.103707 133.330441 
L 134.767677 134.904186 
L 135.431646 133.937024 
L 136.759585 147.719929 
L 139.415464 156.73442 
L 140.079433 149.337482 
L 140.743403 151.049393 
L 141.407372 155.618982 
L 143.399281 164.367252 
L 144.06325 173.179549 
L 144.72722 180.50235 
L 145.391189 185.39208 
L 146.055159 182.352427 
L 148.047068 205.372237 
L 148.711037 195.120991 
L 149.375007 190.932201 
L 150.038976 191.869034 
L 150.702946 186.541217 
L 154.022793 192.647482 
L 154.686763 188.603598 
L 155.350733 199.191834 
L 157.342641 219.289938 
L 158.006611 211.22239 
L 158.67058 208.536576 
L 159.998519 248.55755 
L 161.990428 252.203786 
L 162.654397 233.19079 
L 163.318367 229.01548 
L 163.982337 228.718928 
L 164.646306 229.032329 
L 166.638215 236.412418 
L 167.302184 231.502469 
L 167.966154 219.690957 
L 168.630123 219.643778 
L 169.294093 213.955381 
L 171.286001 211.101073 
L 171.949971 211.518941 
L 172.613941 209.213927 
L 173.27791 212.887122 
L 173.94188 213.102796 
L 175.933788 212.418705 
L 176.597758 211.967138 
L 177.261727 206.386578 
L 177.925697 206.423647 
L 178.589666 214.417058 
L 180.581575 233.638987 
L 181.245545 232.537029 
L 181.909514 238.056931 
L 182.573484 230.40725 
L 183.237453 236.921273 
L 185.229362 249.356217 
L 185.893331 252.028551 
L 186.557301 253.10692 
L 187.22127 246.498539 
L 187.88524 247.644306 
L 189.877149 241.800894 
L 190.541118 236.651681 
L 191.205088 236.655051 
L 191.869057 243.559983 
L 192.533027 243.121896 
L 194.524935 244.257553 
L 195.188905 249.056296 
L 195.852874 259.73215 
L 196.516844 254.047123 
L 197.180813 252.419459 
L 199.172722 257.818045 
L 199.836692 251.236623 
L 200.500661 251.539915 
L 201.164631 248.759744 
L 201.8286 249.743756 
L 203.820509 250.673849 
L 204.484478 250.053787 
L 205.148448 244.72597 
L 205.812417 243.266802 
L 206.476387 244.517036 
L 208.468296 246.626595 
L 209.132265 247.782472 
L 209.796235 245.77064 
L 210.460204 240.014845 
L 211.124174 240.618057 
L 213.116082 232.186559 
L 213.780052 228.725668 
L 214.444021 225.982567 
L 215.107991 224.503179 
L 215.771961 224.978335 
L 217.763869 223.627004 
L 218.427839 222.919324 
L 219.091808 223.711252 
L 219.755778 225.204119 
L 220.419747 221.746598 
L 222.411656 217.746523 
L 223.739595 217.382573 
L 224.403565 217.928497 
L 225.067534 219.438214 
L 227.059443 222.38688 
L 227.723412 218.88892 
L 228.387382 216.749031 
L 229.051351 212.799504 
L 229.715321 214.925913 
L 231.707229 218.89229 
L 232.371199 215.997543 
L 233.035169 215.620114 
L 236.355016 216.685003 
L 237.018986 216.668154 
L 237.682955 228.203333 
L 238.346925 231.09134 
L 239.010894 226.312817 
L 241.002803 226.029745 
L 241.666773 226.440874 
L 242.330742 229.01211 
L 242.994712 227.364227 
L 243.658681 231.283425 
L 245.65059 240.921349 
L 246.314559 236.371979 
L 246.978529 239.195958 
L 247.642498 237.797448 
L 248.306468 241.645878 
L 250.298377 251.395009 
L 250.962346 254.026903 
L 251.626316 261.750722 
L 252.290285 267.664903 
L 252.954255 265.629481 
L 254.946163 281.01983 
L 255.610133 283.81685 
L 256.274102 275.014662 
L 256.938072 285.036755 
L 257.602041 298.047952 
L 259.59395 295.833926 
L 260.25792 308.059935 
L 260.921889 298.418642 
L 261.585859 292.966138 
L 262.249828 289.306423 
L 264.241737 292.767313 
L 264.905706 288.69647 
L 265.569676 289.906265 
L 266.233645 290.45219 
L 266.897615 303.470127 
L 268.889524 314.816592 
L 269.553493 310.924353 
L 270.217463 312.386891 
L 270.881432 300.710176 
L 271.545402 300.92922 
L 273.53731 300.733765 
L 274.20128 298.775851 
L 274.865249 302.334469 
L 275.529219 303.473497 
L 276.193189 311.109698 
L 278.185097 318.510006 
L 278.849067 316.333048 
L 279.513036 315.005306 
L 280.177006 327.928886 
L 280.840975 325.472227 
L 282.832884 330.018226 
L 283.496853 339.838125 
L 284.824793 320.508359 
L 285.488762 320.484769 
L 287.480671 323.409846 
L 288.14464 326.284373 
L 288.80861 328.346754 
L 289.472579 327.770501 
L 290.136549 319.76698 
L 292.128457 308.2318 
L 292.792427 299.311666 
L 293.456397 293.832203 
L 294.120366 297.923266 
L 294.784336 283.186678 
L 296.776244 278.58339 
L 297.440214 293.741216 
L 298.104183 296.325932 
L 298.768153 293.121153 
L 299.432122 292.689806 
L 301.424031 299.341995 
L 302.088001 294.159084 
L 302.75197 293.154852 
L 303.41594 291.50697 
L 304.079909 292.464022 
L 306.071818 297.208846 
L 306.735787 302.354689 
L 307.399757 303.786898 
L 308.063726 302.529924 
L 308.727696 303.294892 
L 310.719605 315.133363 
L 311.383574 308.60923 
L 312.047544 304.872007 
L 312.711513 307.018635 
L 313.375483 307.760014 
L 316.031361 295.355399 
L 316.69533 294.529773 
L 317.3593 291.338474 
L 318.023269 292.814492 
L 320.015178 291.881029 
L 320.679148 292.170841 
L 321.343117 291.358694 
L 322.007087 291.14639 
L 322.671056 289.872566 
L 324.662965 287.678759 
L 325.326934 280.396398 
L 326.654873 273.727359 
L 331.96663 270.687706 
L 333.958538 275.584176 
L 334.622508 272.682689 
L 335.286477 284.548119 
L 335.950447 284.002195 
L 336.614416 284.15047 
L 338.606325 280.059408 
L 339.270295 287.961831 
L 339.934264 285.811833 
L 341.262203 291.513709 
L 343.254112 295.422797 
L 343.918081 297.127969 
L 345.24602 290.506108 
L 345.90999 290.162378 
L 347.901899 280.935582 
L 348.565868 282.438559 
L 349.229838 291.85744 
L 349.893807 292.066374 
L 350.557777 296.817937 
L 352.549685 302.988231 
L 353.213655 301.832354 
L 353.877624 296.484317 
L 354.541594 297.475069 
L 355.205564 301.802025 
L 357.197472 300.989878 
L 358.525411 293.57609 
L 359.189381 291.294666 
L 359.85335 292.288787 
L 361.845259 292.356185 
L 362.509228 296.625853 
L 363.173198 289.191846 
L 363.837168 294.175933 
L 364.501137 294.937531 
L 366.493046 302.364799 
L 367.820985 296.487687 
L 368.484954 294.951011 
L 371.140832 292.54153 
L 372.468772 291.166609 
L 373.132741 290.118569 
L 373.796711 288.36622 
L 375.788619 283.432681 
L 376.452589 283.712383 
L 377.116558 282.900236 
L 377.780528 286.25329 
L 378.444497 286.657678 
L 380.436406 288.126956 
L 381.100376 286.741926 
L 381.764345 286.745296 
L 382.428315 288.480796 
L 383.092284 292.325856 
L 385.084193 292.015825 
L 385.748162 291.608067 
L 386.412132 293.643488 
L 387.076101 293.552501 
L 387.740071 295.68902 
L 389.73198 296.211355 
L 390.395949 298.405162 
L 391.059919 296.400069 
L 391.723888 296.794348 
L 392.387858 293.59631 
L 396.371675 296.464098 
L 397.035644 296.565195 
L 399.027553 292.140511 
L 399.691523 292.029305 
L 400.355492 290.516218 
L 401.019462 290.900387 
L 401.683431 287.604621 
L 403.67534 288.00564 
L 404.339309 287.938242 
L 405.003279 289.781579 
L 405.667248 287.129465 
L 406.331218 287.547333 
L 408.323127 286.344277 
L 409.651066 289.326642 
L 410.315035 288.369589 
L 410.979005 288.662771 
L 413.634883 283.847179 
L 414.298852 284.817711 
L 414.962822 283.732602 
L 415.626792 279.537072 
L 417.6187 277.18488 
L 418.28267 273.649851 
L 418.946639 273.235353 
L 419.610609 276.005414 
L 420.274578 273.912704 
L 422.266487 271.051656 
L 422.930456 268.881438 
L 423.594426 270.579869 
L 424.258396 270.731515 
L 424.922365 271.321248 
L 426.914274 274.630493 
L 428.906182 267.924385 
L 429.570152 266.549465 
L 431.56206 265.65644 
L 432.22603 264.881362 
L 432.89 263.526661 
L 433.553969 267.894056 
L 434.217939 269.649776 
L 436.209847 267.856987 
L 436.873817 265.66655 
L 437.537786 264.783635 
L 438.201756 267.614354 
L 438.865725 263.621018 
L 440.857634 259.930974 
L 442.185573 258.185364 
L 442.849543 254.404332 
L 443.513512 253.400101 
L 445.505421 251.806137 
L 446.16939 251.482626 
L 446.83336 251.856685 
L 447.497329 251.913974 
L 448.161299 247.50277 
L 450.153208 245.878477 
L 451.481147 242.468134 
L 452.145116 243.650971 
L 452.809086 240.16649 
L 454.800994 235.034127 
L 455.464964 236.833656 
L 456.128933 235.866494 
L 456.792903 239.061162 
L 457.456872 233.996197 
L 459.448781 228.793066 
L 460.112751 228.520104 
L 460.77672 231.296904 
L 461.44069 235.805835 
L 462.104659 231.896747 
L 464.096568 230.336482 
L 464.760537 231.276685 
L 465.424507 228.173004 
L 466.088476 231.46877 
L 466.752446 250.168364 
L 469.408324 249.325888 
L 470.072294 251.998221 
L 470.736263 246.326674 
L 471.400233 248.355356 
L 473.392141 242.171583 
L 474.056111 241.258339 
L 474.72008 238.316413 
L 475.38405 234.646588 
L 478.703898 230.963284 
L 479.367867 227.418146 
L 480.031837 228.213443 
L 480.695806 228.772847 
L 482.687715 234.788124 
L 483.351684 227.438365 
L 484.015654 229.814147 
L 484.679624 234.727466 
L 485.343593 233.53115 
L 487.335502 238.77135 
L 487.999471 238.875817 
L 488.663441 233.952388 
L 489.32741 238.457949 
L 489.99138 245.093289 
L 492.647258 263.658087 
L 493.311228 258.303311 
L 493.975197 258.781837 
L 494.639167 258.202214 
L 496.631075 257.831524 
L 497.295045 270.350716 
L 497.959014 266.788728 
L 498.622984 271.769445 
L 499.286953 266.832536 
L 501.278862 263.860282 
L 502.606801 259.327761 
L 503.270771 259.058169 
L 503.93474 258.006759 
L 505.926649 262.492101 
L 507.254588 275.304474 
L 507.918557 280.544674 
L 508.582527 273.744208 
L 510.574436 278.630568 
L 511.238405 274.461998 
L 511.902375 275.890837 
L 512.566344 291.463161 
L 513.230314 289.720921 
L 515.222222 295.860885 
L 515.886192 300.649518 
L 516.550161 296.784238 
L 517.214131 284.716614 
L 517.8781 284.275157 
L 519.870009 279.934721 
L 520.533979 283.092321 
L 521.197948 271.924461 
L 521.861918 271.769445 
L 522.525887 275.884097 
L 524.517796 276.426652 
L 525.181765 273.171325 
L 525.845735 268.867958 
L 526.509704 267.846877 
L 527.173674 276.049222 
L 529.165583 275.216856 
L 529.829552 272.925322 
L 530.493522 271.793034 
L 531.157491 280.329 
L 531.821461 277.929629 
L 533.813369 280.473906 
L 535.141308 275.506668 
L 535.805278 278.428374 
L 536.469248 275.722342 
L 538.461156 269.545309 
L 539.125126 271.068505 
L 539.789095 267.543586 
L 540.453065 269.208318 
L 541.117034 268.214197 
L 543.108943 267.856987 
L 543.772912 267.139198 
L 544.436882 271.664978 
L 545.100852 273.036529 
L 545.764821 275.675163 
L 547.75673 279.186603 
L 549.084669 276.194128 
L 549.748638 275.631354 
L 550.412608 275.41905 
L 553.068486 268.952206 
L 553.732456 269.039823 
L 554.396425 266.70111 
L 555.060395 266.36412 
L 557.716273 265.760907 
L 558.380242 261.565377 
L 559.044212 259.358091 
L 559.708181 258.023609 
L 561.70009 256.166792 
L 562.36406 256.705977 
L 563.028029 255.711855 
L 563.691999 255.482702 
L 564.355968 258.016869 
L 566.347877 258.212323 
L 567.011846 255.17941 
L 567.675816 255.378235 
L 568.339785 253.177688 
L 569.003755 248.985528 
L 570.995664 248.527221 
L 572.323603 251.860055 
L 572.987572 252.73623 
L 573.651542 250.950181 
L 575.64345 250.943442 
L 576.30742 249.60896 
L 576.971389 254.778392 
L 577.635359 251.843206 
L 578.299328 252.001591 
L 580.291237 247.448852 
L 580.955207 246.633335 
L 581.619176 243.246582 
L 581.619176 243.246582 
" clip-path="url(#pcbb519b6cc)" style="fill: none; stroke: #ff0000; stroke-width: 1.5; stroke-linecap: square"/>
   </g>
   <g id="patch_3">
    <path d="M 48.982813 354.958125 
L 48.982813 22.318125 
" style="fill: none; stroke: #000000; stroke-width: 0.8; stroke-linejoin: miter; stroke-linecap: square"/>
   </g>
   <g id="patch_4">
    <path d="M 606.982813 354.958125 
L 606.982813 22.318125 
" style="fill: none; stroke: #000000; stroke-width: 0.8; stroke-linejoin: miter; stroke-linecap: square"/>
   </g>
   <g id="patch_5">
    <path d="M 48.982813 354.958125 
L 606.982813 354.958125 
" style="fill: none; stroke: #000000; stroke-width: 0.8; stroke-linejoin: miter; stroke-linecap: square"/>
   </g>
   <g id="patch_6">
    <path d="M 48.982813 22.318125 
L 606.982813 22.318125 
" style="fill: none; stroke: #000000; stroke-width: 0.8; stroke-linejoin: miter; stroke-linecap: square"/>
   </g>
   <g id="text_19">
    <!-- Holding Period Return Over Time -->
    <g transform="translate(229.68875 16.318125) scale(0.12 -0.12)">
     <defs>
      <path id="DejaVuSans-4f" d="M 2522 4238 
Q 1834 4238 1429 3725 
Q 1025 3213 1025 2328 
Q 1025 1447 1429 934 
Q 1834 422 2522 422 
Q 3209 422 3611 934 
Q 4013 1447 4013 2328 
Q 4013 3213 3611 3725 
Q 3209 4238 2522 4238 
z
M 2522 4750 
Q 3503 4750 4090 4092 
Q 4678 3434 4678 2328 
Q 4678 1225 4090 567 
Q 3503 -91 2522 -91 
Q 1538 -91 948 565 
Q 359 1222 359 2328 
Q 359 3434 948 4092 
Q 1538 4750 2522 4750 
z
" transform="scale(0.015625)"/>
      <path id="DejaVuSans-76" d="M 191 3500 
L 800 3500 
L 1894 563 
L 2988 3500 
L 3597 3500 
L 2284 0 
L 1503 0 
L 191 3500 
z
" transform="scale(0.015625)"/>
     </defs>
     <use xlink:href="#DejaVuSans-48"/>
     <use xlink:href="#DejaVuSans-6f" x="75.195312"/>
     <use xlink:href="#DejaVuSans-6c" x="136.376953"/>
     <use xlink:href="#DejaVuSans-64" x="164.160156"/>
     <use xlink:href="#DejaVuSans-69" x="227.636719"/>
     <use xlink:href="#DejaVuSans-6e" x="255.419922"/>
     <use xlink:href="#DejaVuSans-67" x="318.798828"/>
     <use xlink:href="#DejaVuSans-20" x="382.275391"/>
     <use xlink:href="#DejaVuSans-50" x="414.0625"/>
     <use xlink:href="#DejaVuSans-65" x="470.740234"/>
     <use xlink:href="#DejaVuSans-72" x="532.263672"/>
     <use xlink:href="#DejaVuSans-69" x="573.376953"/>
     <use xlink:href="#DejaVuSans-6f" x="601.160156"/>
     <use xlink:href="#DejaVuSans-64" x="662.341797"/>
     <use xlink:href="#DejaVuSans-20" x="725.818359"/>
     <use xlink:href="#DejaVuSans-52" x="757.605469"/>
     <use xlink:href="#DejaVuSans-65" x="822.587891"/>
     <use xlink:href="#DejaVuSans-74" x="884.111328"/>
     <use xlink:href="#DejaVuSans-75" x="923.320312"/>
     <use xlink:href="#DejaVuSans-72" x="986.699219"/>
     <use xlink:href="#DejaVuSans-6e" x="1026.0625"/>
     <use xlink:href="#DejaVuSans-20" x="1089.441406"/>
     <use xlink:href="#DejaVuSans-4f" x="1121.228516"/>
     <use xlink:href="#DejaVuSans-76" x="1199.939453"/>
     <use xlink:href="#DejaVuSans-65" x="1259.119141"/>
     <use xlink:href="#DejaVuSans-72" x="1320.642578"/>
     <use xlink:href="#DejaVuSans-20" x="1361.755859"/>
     <use xlink:href="#DejaVuSans-54" x="1393.542969"/>
     <use xlink:href="#DejaVuSans-69" x="1451.501953"/>
     <use xlink:href="#DejaVuSans-6d" x="1479.285156"/>
     <use xlink:href="#DejaVuSans-65" x="1576.697266"/>
    </g>
   </g>
   <g id="legend_1">
    <g id="patch_7">
     <path d="M 522.360937 59.674375 
L 599.982813 59.674375 
Q 601.982813 59.674375 601.982813 57.674375 
L 601.982813 29.318125 
Q 601.982813 27.318125 599.982813 27.318125 
L 522.360937 27.318125 
Q 520.360937 27.318125 520.360937 29.318125 
L 520.360937 57.674375 
Q 520.360937 59.674375 522.360937 59.674375 
z
" style="fill: #ffffff; opacity: 0.8; stroke: #cccccc; stroke-linejoin: miter"/>
    </g>
    <g id="line2d_35">
     <path d="M 524.360937 35.416562 
L 534.360937 35.416562 
L 544.360937 35.416562 
" style="fill: none; stroke: #000000; stroke-width: 1.5; stroke-linecap: square"/>
    </g>
    <g id="text_20">
     <!-- Portfolio -->
     <g transform="translate(552.360937 38.916562) scale(0.1 -0.1)">
      <defs>
       <path id="DejaVuSans-66" d="M 2375 4863 
L 2375 4384 
L 1825 4384 
Q 1516 4384 1395 4259 
Q 1275 4134 1275 3809 
L 1275 3500 
L 2222 3500 
L 2222 3053 
L 1275 3053 
L 1275 0 
L 697 0 
L 697 3053 
L 147 3053 
L 147 3500 
L 697 3500 
L 697 3744 
Q 697 4328 969 4595 
Q 1241 4863 1831 4863 
L 2375 4863 
z
" transform="scale(0.015625)"/>
      </defs>
      <use xlink:href="#DejaVuSans-50"/>
      <use xlink:href="#DejaVuSans-6f" x="56.677734"/>
      <use xlink:href="#DejaVuSans-72" x="117.859375"/>
      <use xlink:href="#DejaVuSans-74" x="158.972656"/>
      <use xlink:href="#DejaVuSans-66" x="198.181641"/>
      <use xlink:href="#DejaVuSans-6f" x="233.386719"/>
      <use xlink:href="#DejaVuSans-6c" x="294.568359"/>
      <use xlink:href="#DejaVuSans-69" x="322.351562"/>
      <use xlink:href="#DejaVuSans-6f" x="350.134766"/>
     </g>
    </g>
    <g id="line2d_36">
     <path d="M 524.360937 50.094687 
L 534.360937 50.094687 
L 544.360937 50.094687 
" style="fill: none; stroke: #ff0000; stroke-width: 1.5; stroke-linecap: square"/>
    </g>
    <g id="text_21">
     <!-- VNINDEX -->
     <g transform="translate(552.360937 53.594687) scale(0.1 -0.1)">
      <defs>
       <path id="DejaVuSans-56" d="M 1831 0 
L 50 4666 
L 709 4666 
L 2188 738 
L 3669 4666 
L 4325 4666 
L 2547 0 
L 1831 0 
z
" transform="scale(0.015625)"/>
       <path id="DejaVuSans-4e" d="M 628 4666 
L 1478 4666 
L 3547 763 
L 3547 4666 
L 4159 4666 
L 4159 0 
L 3309 0 
L 1241 3903 
L 1241 0 
L 628 0 
L 628 4666 
z
" transform="scale(0.015625)"/>
       <path id="DejaVuSans-49" d="M 628 4666 
L 1259 4666 
L 1259 0 
L 628 0 
L 628 4666 
z
" transform="scale(0.015625)"/>
       <path id="DejaVuSans-44" d="M 1259 4147 
L 1259 519 
L 2022 519 
Q 2988 519 3436 956 
Q 3884 1394 3884 2338 
Q 3884 3275 3436 3711 
Q 2988 4147 2022 4147 
L 1259 4147 
z
M 628 4666 
L 1925 4666 
Q 3281 4666 3915 4102 
Q 4550 3538 4550 2338 
Q 4550 1131 3912 565 
Q 3275 0 1925 0 
L 628 0 
L 628 4666 
z
" transform="scale(0.015625)"/>
       <path id="DejaVuSans-45" d="M 628 4666 
L 3578 4666 
L 3578 4134 
L 1259 4134 
L 1259 2753 
L 3481 2753 
L 3481 2222 
L 1259 2222 
L 1259 531 
L 3634 531 
L 3634 0 
L 628 0 
L 628 4666 
z
" transform="scale(0.015625)"/>
       <path id="DejaVuSans-58" d="M 403 4666 
L 1081 4666 
L 2241 2931 
L 3406 4666 
L 4084 4666 
L 2584 2425 
L 4184 0 
L 3506 0 
L 2194 1984 
L 872 0 
L 191 0 
L 1856 2491 
L 403 4666 
z
" transform="scale(0.015625)"/>
      </defs>
      <use xlink:href="#DejaVuSans-56"/>
      <use xlink:href="#DejaVuSans-4e" x="68.408203"/>
      <use xlink:href="#DejaVuSans-49" x="143.212891"/>
      <use xlink:href="#DejaVuSans-4e" x="172.705078"/>
      <use xlink:href="#DejaVuSans-44" x="247.509766"/>
      <use xlink:href="#DejaVuSans-45" x="324.511719"/>
      <use xlink:href="#DejaVuSans-58" x="387.695312"/>
     </g>
    </g>
   </g>
  </g>
 </g>
 <defs>
  <clipPath id="pcbb519b6cc">
   <rect x="48.982813" y="22.318125" width="558" height="332.64"/>
  </clipPath>
 </defs>
</svg>
